<svg width="433" height="361" viewBox="0 0 433 361" fill="none" xmlns="http://www.w3.org/2000/svg">
<path d="M47.968 8.03286e-05C42.7122 -0.010463 37.506 1.01697 32.6482 3.02343C27.7904 5.02988 23.3767 7.97585 19.6602 11.6923C15.9438 15.4087 12.9978 19.8225 10.9913 24.6803C8.98489 29.5381 7.95746 34.7442 7.968 40.0001V72.0001C7.968 94.1601 25.808 112 47.968 112H55.968V222.4C55.968 232.224 63.104 240.128 71.968 240.128V256.128C71.968 262.128 75.408 267.136 80.288 269.888C80.0866 270.617 79.9896 271.372 80 272.128V336.128C80 340.704 76.56 344.128 72 344.128H8C5.87827 344.128 3.84344 344.971 2.34315 346.471C0.842856 347.972 0 350.006 0 352.128C0 354.25 0.842856 356.285 2.34315 357.785C3.84344 359.285 5.87827 360.128 8 360.128H72C85.152 360.128 96 349.28 96 336.128V272.128C96 271.37 95.8923 270.616 95.68 269.888C98.1694 268.55 100.253 266.566 101.711 264.145C103.169 261.723 103.949 258.954 103.968 256.128V240.128C112.832 240.128 119.968 232.224 119.968 222.416V183.872C120.5 183.98 121.041 184.034 121.584 184.032H167.984C181.152 184.032 191.984 173.2 191.984 160.032V112.032H247.968V96.0321H264.032C266.806 96.0115 269.525 95.2577 271.913 93.8471C274.302 92.4365 276.275 90.4193 277.632 88.0001C277.739 88.0022 277.845 88.0022 277.952 88.0001C291.12 88.0001 301.952 77.1841 301.952 64.0321H424.72C426.842 64.0321 428.877 63.1892 430.377 61.6889C431.877 60.1886 432.72 58.1538 432.72 56.0321C432.72 53.9103 431.877 51.8755 430.377 50.3752C428.877 48.8749 426.842 48.0321 424.72 48.0321H301.952C301.952 34.8801 291.104 24.0321 277.952 24.0321C277.824 24.029 277.696 24.029 277.568 24.0321C276.208 21.628 274.24 19.6236 271.862 18.2195C269.484 16.8154 266.778 16.0611 264.016 16.0321H247.952V0.032078H47.952L47.968 8.03286e-05ZM47.968 24.0321H223.968V40.0321H47.968V24.0321ZM47.968 72.0321H223.968V88.0321H47.968V72.0321ZM119.968 112H144V143.904C144 146.026 144.843 148.061 146.343 149.561C147.843 151.061 149.878 151.904 152 151.904C154.122 151.904 156.157 151.061 157.657 149.561C159.157 148.061 160 146.026 160 143.904V112H176V160C176 164.576 172.56 168 168 168H121.6C121.052 167.997 120.505 168.051 119.968 168.16V112Z" fill="black"/>
</svg>
