<svg width="352" height="378" viewBox="0 0 352 378" fill="none" xmlns="http://www.w3.org/2000/svg">
<path d="M24 0C37.44 0 48 10.56 48 24V32H0V24C0 10.56 10.56 0 24 0ZM55.776 0H328C341.44 0 352 10.56 352 24V352H304V323.472C313.744 314.672 320 302.096 320 288C320 261.6 298.4 240 272 240C245.6 240 224 261.6 224 288C224 302.08 230.256 314.672 240 323.472V352H64V24C64 14.976 60.864 6.72 55.776 0ZM144 32V48H272V32H144ZM96 80V96H320V80H96ZM96 112V128H320V112H96ZM96 144V160H320V144H96ZM96 176V192H320V176H96ZM96 208V224H320V208H96ZM96 240V256H208V240H96ZM272 256C289.76 256 304 270.24 304 288C304 305.76 289.76 320 272 320C254.24 320 240 305.76 240 288C240 270.24 254.24 256 272 256ZM256 333.024C261.024 334.832 266.368 336 272 336C277.632 336 282.976 334.832 288 333.024V377.056L276.432 369.344C275.119 368.47 273.577 368.004 272 368.004C270.423 368.004 268.881 368.47 267.568 369.344L256 377.056V333.024Z" fill="black"/>
</svg>
