<svg width="496" height="427" viewBox="0 0 496 427" fill="none" xmlns="http://www.w3.org/2000/svg">
<path d="M351.984 0H359.984C373.424 0 383.984 10.56 383.984 24V297.953C377.168 292.529 369.344 287.984 359.984 287.984H351.984V0ZM23.984 64H335.984V304H359.984C373.424 304 383.984 314.56 383.984 328C383.984 341.44 373.424 352 359.984 352H24.016C14.976 352 6.73599 355.137 0.0159912 360.225V88C0.0159912 74.56 10.576 64 24.016 64H23.984ZM431.984 80H495.984V352H431.984V336H463.984V320H431.984V304H447.984V288H431.984V272H463.984V256H431.984V240H447.984V224H431.984V208H463.984V192H431.984V176H447.984V160H431.984V144H463.984V128H431.984V112H447.984V96H431.984V80ZM55.984 96C53.8623 96 51.8274 96.8435 50.3271 98.3438C48.8268 99.844 47.984 101.878 47.984 104V312C47.984 314.122 48.8268 316.156 50.3271 317.656C51.8274 319.157 53.8623 320 55.984 320H295.984C298.106 320 300.141 319.157 301.641 317.656C303.141 316.156 303.984 314.122 303.984 312V104C303.984 101.878 303.141 99.844 301.641 98.3438C300.141 96.8435 298.106 96 295.984 96H127.984V112H159.984V160H175.984V112H287.984V208H239.984V144H223.984V208H191.984V224H287.984V304H271.984V248C271.984 245.878 271.141 243.844 269.641 242.344C268.141 240.843 266.106 240 263.984 240H199.984C197.862 240 195.827 240.843 194.327 242.344C192.827 243.844 191.984 245.878 191.984 248V304H175.984V192.785H159.984V303.984H63.984V239.984H127.984V223.984H63.984V111.984H95.984V95.9844L55.984 96ZM207.984 256H255.984V304H207.984V256ZM23.984 368H32V416H24C10.56 416 0 405.44 0 392C0 378.56 10.56 368 24 368H23.984ZM325.264 395.104C331.936 395.104 336.784 399.807 336.784 405.023L336.832 416.992C336.832 422.272 332.24 426.96 325.392 426.992H317.104L316.944 395.104H325.264ZM304.72 394.4L304.752 404.16L176.768 403.84L176.736 394.625L304.72 394.4ZM160.784 394.4L160.816 410.16L160.848 426.4L139.968 410.656L160.784 394.4ZM176.832 416.641L304.848 416.961L304.88 426.176V426.656L176.88 426.641L176.832 416.641Z" fill="black"/>
</svg>
