<svg width="344" height="416" viewBox="0 0 344 416" fill="none" xmlns="http://www.w3.org/2000/svg">
<path d="M215.676 132.8V28.016C215.676 26.368 215.581 24.736 215.389 23.136C246.117 30.848 268.484 46.912 283.988 67.552C305.301 95.864 314.061 133.04 314.061 169.352C314.061 173.776 317.669 177.384 322.101 177.384L322.572 177.368C326.868 177.56 331.044 179.096 334.492 181.672L334.876 181.92C338.196 184.496 340.804 188.088 342.156 192.408H342.124C343.94 198.104 343.244 204.008 340.74 208.888C338.516 213.192 334.877 216.768 330.165 218.776C277.125 198.984 224.076 189.144 171.196 189.16C118.284 189.192 65.5244 199.096 12.9484 218.776C8.27644 216.704 4.63655 213.192 2.41255 208.888C-0.107446 204.008 -0.795479 198.104 1.02852 192.408L1.2126 191.808C2.6606 187.624 5.29256 184.152 8.62056 181.672L8.65254 181.656L8.68453 181.672C12.2685 178.984 16.6606 177.432 21.1806 177.352C25.5726 177.296 29.0844 173.712 29.0844 169.352C29.0844 133.04 37.8764 95.864 59.1564 67.552C74.6925 46.896 97.0686 30.824 127.765 23.12C127.581 24.72 127.517 26.352 127.517 28.016V132.8C127.517 144.96 132.445 156.008 140.413 163.976C148.357 171.936 159.413 176.88 171.581 176.88C183.757 176.88 194.804 171.936 202.78 163.976C210.716 156.008 215.676 144.96 215.676 132.8Z" fill="black"/>
<path d="M30.1486 261.888C33.7886 258.184 38.4045 255.424 43.5485 253.976C43.4525 260.008 43.4845 266.032 43.6125 271.992C43.9325 286.176 44.9006 299.92 46.9726 312.352L47.2526 314.112C40.6686 313.04 34.7726 309.904 30.2766 305.448C24.6926 299.864 21.2365 292.144 21.2365 283.608C21.2365 275.128 24.6286 267.472 30.1486 261.888Z" fill="black"/>
<path d="M312.869 305.448C308.349 309.968 302.453 313.04 295.829 314.112L296.109 312.352C298.181 299.928 299.188 286.112 299.5 271.928C299.628 265.968 299.629 260 299.565 253.976C304.717 255.424 309.293 258.184 312.973 261.888C318.493 267.472 321.908 275.128 321.908 283.608C321.908 292.136 318.461 299.864 312.869 305.448Z" fill="black"/>
<path d="M278.22 219.08H64.6765C100.14 209.848 135.668 205.192 171.196 205.176C206.788 205.16 242.436 209.792 278.22 219.08Z" fill="black"/>
<path d="M283.181 235.144C283.557 246.76 283.709 261.008 283.461 271.616C283.181 285.112 282.244 298.104 280.324 309.84C275.684 337.96 260.596 364.952 240.156 384.728C220.54 403.688 196.093 415.864 171.549 415.864C147.045 415.864 122.557 403.688 102.941 384.672C82.5406 364.96 67.4126 337.968 62.7966 309.848C60.8446 298.104 59.9325 285.112 59.6525 271.68C59.3965 261.008 59.5566 246.76 59.9006 235.144H283.181Z" fill="black"/>
<path d="M199.604 28.016V132.8C199.604 140.536 196.461 147.552 191.381 152.608C186.325 157.672 179.3 160.816 171.572 160.816C163.852 160.816 156.821 157.672 151.765 152.608C146.717 147.552 143.581 140.536 143.581 132.8V28.016C143.581 20.296 146.717 13.28 151.765 8.208C156.821 3.136 163.852 0 171.572 0C179.3 0 186.325 3.136 191.381 8.208C196.461 13.28 199.604 20.296 199.604 28.016Z" fill="black"/>
</svg>
