<svg height="32" viewBox="0 0 32 32" width="32" xmlns="http://www.w3.org/2000/svg"><path d="m15.272 31.458c.168.186.33.306.486.39.002.002.006.002.008.004.108.056.214.098.314.098s.206-.042.314-.098c.002-.002.006-.002.008-.004.156-.084.318-.204.486-.39 0 0 9.296-10.11 10.23-18.87.056-.452.094-.91.094-1.376 0-6.192-5.02-11.212-11.212-11.212s-11.212 5.02-11.212 11.212c0 .474.038.936.096 1.394.958 8.756 10.388 18.852 10.388 18.852zm.728-27.458c3.976 0 7.212 3.236 7.212 7.212s-3.236 7.212-7.212 7.212-7.212-3.236-7.212-7.212 3.236-7.212 7.212-7.212z"/></svg>