<svg width="39" height="50" viewBox="0 0 39 50" fill="none" xmlns="http://www.w3.org/2000/svg">
<path d="M9.69106 37.991C10.1821 37.991 10.5839 37.5892 10.5839 37.0981V33.8035C10.5839 33.3124 10.1821 32.9106 9.69106 32.9106C9.19999 32.9106 8.7982 33.3124 8.7982 33.8035V37.0981C8.7982 37.5892 9.19999 37.991 9.69106 37.991ZM9.69106 39.0089C9.12856 39.0089 8.68213 39.4642 8.68213 40.0178C8.68213 40.5714 9.13749 41.0356 9.69106 41.0356C10.2446 41.0356 10.7 40.5803 10.7 40.0178C10.7 39.4553 10.2446 39.0089 9.69106 39.0089Z" fill="black"/>
<path d="M5.52162 15.5446C4.84437 15.5446 4.19486 15.8137 3.71598 16.2926C3.23709 16.7715 2.96805 17.421 2.96805 18.0982V24.875C1.36091 25.2857 0.137695 26.6786 0.137695 28.4196V38.6696C0.137695 40.7232 1.80734 42.3929 3.86091 42.3929H4.10198V47.1339C4.10198 48.7143 5.38769 50 6.96805 50H12.4323C13.7002 50 14.7359 49.1607 15.1198 48.0268H34.9681C37.0216 48.0268 38.6913 46.3571 38.6913 44.3036V34.0536C38.6913 32 37.0216 30.3304 34.9681 30.3304H34.8431V15.7768C35.7798 15.1608 36.549 14.322 37.082 13.3356C37.6149 12.3493 37.8948 11.2461 37.8966 10.125C37.8966 8.40179 37.2448 6.75893 36.0663 5.50893C35.4234 4.82143 34.6198 4.60714 33.9234 4.91964C33.1734 5.25893 32.7716 6.125 32.8877 7.16964L33.0663 8.92857C33.1198 9.46429 32.8788 9.86607 32.6555 10.1071C31.8877 10.9554 30.3252 10.9554 29.5663 10.1071C29.352 9.86607 29.102 9.46429 29.1556 8.92857L29.3341 7.16964C29.4502 6.02679 28.5752 5.19643 28.0395 4.89286C27.9354 4.83177 27.8197 4.79306 27.6997 4.77923C27.5798 4.76539 27.4583 4.77672 27.343 4.8125C27.218 4.84821 26.5573 5.05357 26.1466 5.50893C24.968 6.75893 24.3252 8.40179 24.3163 10.1339C24.3163 12.4107 25.477 14.5268 27.3698 15.7768V24.0982C26.8252 23.8036 26.227 23.5982 25.5395 23.5982C23.8073 23.5982 22.7538 24.7857 22.0305 25.9643H19.7359L17.4056 21.4821C16.6734 20.0804 15.5752 17.9643 13.2627 17.9643C12.5752 17.9643 11.9681 18.1696 11.4323 18.4643V18.1071C11.4323 16.6964 10.2806 15.5536 8.87877 15.5536H8.09305V5.24107H8.15555C8.64662 5.24107 9.04841 4.83929 9.04841 4.34821C9.04841 3.85714 8.64662 3.45536 8.15555 3.45536H8.09305V0.892857C8.09305 0.401786 7.69127 0 7.20019 0C6.70912 0 6.30734 0.401786 6.30734 0.892857V3.45536H6.24484C5.75377 3.45536 5.35198 3.85714 5.35198 4.34821C5.35198 4.83929 5.75377 5.24107 6.24484 5.24107H6.30734V15.5446H5.52162ZM12.4234 48.2143H6.95912C6.36091 48.2143 5.87877 47.7321 5.87877 47.1339V32.4821C5.87877 31.875 6.35198 31.4018 6.95912 31.4018H12.4234C13.0306 31.4018 13.5038 31.875 13.5038 32.4821V47.1339C13.5038 47.7321 13.0216 48.2143 12.4234 48.2143ZM26.102 10.125C26.102 8.85714 26.5841 7.65179 27.4502 6.72321L27.3698 8.75C27.2716 9.67857 27.5841 10.5893 28.227 11.3036C28.9413 12.0982 30.0127 12.5714 31.102 12.5714C32.1913 12.5714 33.2538 12.0982 33.968 11.3036C34.6198 10.5804 34.9234 9.67857 34.8252 8.74107C34.6288 6.83036 34.6109 6.83036 34.6556 6.63393C35.3966 7.26786 36.093 8.66964 36.093 10.1161C36.093 11.9375 35.0931 13.6071 33.5038 14.4821C33.2181 14.6429 33.0395 14.9375 33.0395 15.2679V30.3304H31.9859V17.1518C31.9859 16.6607 31.5841 16.2589 31.093 16.2589C30.602 16.2589 30.2002 16.6607 30.2002 17.1518V30.3304H29.1466V15.2679C29.1466 14.9464 28.968 14.6429 28.6823 14.4821C27.9009 14.0533 27.2487 13.423 26.7933 12.6568C26.338 11.8905 26.0962 11.0163 26.0931 10.125H26.102ZM25.5395 25.375C26.1288 25.375 26.6109 25.5536 26.9323 25.9018C27.2716 26.2679 27.4234 26.8036 27.3788 27.5179V31.2232C27.3788 31.7143 27.7806 32.1161 28.2716 32.1161H34.9591C36.0305 32.1161 36.8966 32.9821 36.8966 34.0536V44.3036C36.8966 45.375 36.0305 46.2411 34.9591 46.2411H15.2895V33.375H19.6109C19.9413 33.375 20.2448 33.1875 20.4055 32.8929L22.9859 27.9286C23.843 26.2768 24.5038 25.375 25.5395 25.375ZM11.8788 20.2679C12.2002 19.9286 12.6823 19.7411 13.2716 19.7411C14.2984 19.7411 14.9681 20.6429 15.8252 22.2946L18.4056 27.2589C18.5573 27.5536 18.8609 27.7411 19.2002 27.7411H21.0752L19.0752 31.5893H15.1109C14.727 30.4554 13.6913 29.6161 12.4234 29.6161H6.95912C5.37877 29.6161 4.09305 30.9018 4.09305 32.4821V40.6071H3.85198C2.78055 40.6071 1.91448 39.7411 1.91448 38.6696V28.4196C1.91448 27.3304 2.76269 26.4821 3.85198 26.4821H10.5395C11.0306 26.4821 11.4323 26.0804 11.4323 25.5893V21.7857C11.3966 21.1518 11.5395 20.6161 11.8788 20.2589V20.2679ZM9.64662 18.0982V24.6964H4.74484V18.0982C4.74484 17.6786 5.09305 17.3304 5.5127 17.3304H8.86984C9.29841 17.3304 9.63769 17.6786 9.63769 18.0982H9.64662Z" fill="black"/>
</svg>
