<svg width="51" height="50" viewBox="0 0 51 50" fill="none" xmlns="http://www.w3.org/2000/svg">
<path d="M49.858 6.66667C49.9675 6.66673 50.0759 6.64522 50.177 6.60336C50.2782 6.5615 50.3701 6.50012 50.4474 6.42273C50.5248 6.34533 50.5862 6.25344 50.6281 6.15231C50.6699 6.05118 50.6914 5.94279 50.6914 5.83333V0.833333C50.6914 0.723881 50.6699 0.61549 50.6281 0.514357C50.5862 0.413224 50.5248 0.321333 50.4474 0.243938C50.3701 0.166544 50.2782 0.105163 50.177 0.0633066C50.0759 0.0214498 49.9675 -6.23058e-05 49.858 1.35542e-07H28.1914C28.082 -9.15205e-06 27.9736 0.0215504 27.8725 0.0634463C27.7714 0.105342 27.6796 0.166753 27.6022 0.244167L0.935551 26.9108C0.85815 26.9882 0.79675 27.08 0.754859 27.1811C0.712968 27.2822 0.691406 27.3906 0.691406 27.5C0.691406 27.6095 0.712968 27.7178 0.754859 27.8189C0.79675 27.92 0.85815 28.0119 0.935551 28.0892L4.02472 31.1784V49.1667C4.02466 49.2761 4.04617 49.3845 4.08802 49.4856C4.12988 49.5868 4.19126 49.6787 4.26866 49.7561C4.34605 49.8335 4.43794 49.8948 4.53907 49.9367C4.64021 49.9785 4.7486 50.0001 4.85805 50H49.858C49.9675 50.0001 50.0759 49.9785 50.177 49.9367C50.2782 49.8948 50.3701 49.8335 50.4474 49.7561C50.5248 49.6787 50.5862 49.5868 50.6281 49.4856C50.6699 49.3845 50.6914 49.2761 50.6914 49.1667V22.5C50.6914 22.3905 50.6699 22.2822 50.6281 22.181C50.5862 22.0799 50.5248 21.988 50.4474 21.9106C50.3701 21.8332 50.2782 21.7718 50.177 21.73C50.0759 21.6881 49.9675 21.6666 49.858 21.6667H47.358V6.66667H49.858ZM28.5364 1.66667H49.0247V5H29.858C29.7486 4.99999 29.6403 5.02155 29.5392 5.06345C29.4381 5.10534 29.3462 5.16675 29.2689 5.24417L4.85805 29.655L2.7031 27.5L28.5364 1.66667ZM29.0247 21.6667V7.84505L30.2031 6.66667H42.358V21.6667H29.0247ZM5.69138 31.1784L7.35805 29.5117V41.6667H5.69138V31.1784ZM9.02472 27.845L24.0247 12.8451V28.3333H18.1914C18.0819 28.3333 17.9735 28.3548 17.8724 28.3966C17.7713 28.4385 17.6794 28.4999 17.602 28.5773C17.5246 28.6547 17.4632 28.7466 17.4214 28.8477C17.3795 28.9488 17.358 29.0572 17.3581 29.1667V35H11.5247C11.4153 34.9999 11.3069 35.0215 11.2057 35.0633C11.1046 35.1052 11.0127 35.1665 10.9353 35.2439C10.8579 35.3213 10.7965 35.4132 10.7547 35.5144C10.7128 35.6155 10.6913 35.7239 10.6914 35.8333V41.6667H9.02472V27.845ZM25.6914 11.1784L27.3581 9.51172V21.6667H25.6914V11.1784ZM34.858 35H44.0247V48.3333H34.858V35ZM33.1914 48.3333H24.0247V35H33.1914V48.3333ZM49.0247 48.3333H45.6914V34.1667C45.6914 34.0572 45.6699 33.9488 45.6281 33.8477C45.5862 33.7466 45.5248 33.6547 45.4474 33.5773C45.3701 33.4999 45.2782 33.4385 45.177 33.3966C45.0759 33.3548 44.9675 33.3333 44.858 33.3333H23.1914C23.0819 33.3333 22.9735 33.3548 22.8724 33.3966C22.7713 33.4385 22.6794 33.4999 22.602 33.5773C22.5246 33.6547 22.4632 33.7466 22.4214 33.8477C22.3795 33.9488 22.358 34.0572 22.3581 34.1667V48.3333H5.69138V43.3333H11.5247C11.6342 43.3334 11.7426 43.3119 11.8437 43.27C11.9448 43.2282 12.0367 43.1668 12.1141 43.0894C12.1915 43.012 12.2529 42.9201 12.2947 42.819C12.3366 42.7178 12.3581 42.6095 12.3581 42.5V36.6667H18.1914C18.3008 36.6667 18.4092 36.6452 18.5104 36.6034C18.6115 36.5615 18.7034 36.5001 18.7808 36.4227C18.8582 36.3453 18.9196 36.2534 18.9614 36.1523C19.0033 36.0512 19.0248 35.9428 19.0247 35.8333V30H24.8581C24.9675 30.0001 25.0759 29.9785 25.177 29.9367C25.2782 29.8948 25.3701 29.8335 25.4474 29.7561C25.5248 29.6787 25.5862 29.5868 25.6281 29.4856C25.6699 29.3845 25.6914 29.2761 25.6914 29.1667V23.3333H49.0247V48.3333ZM45.6914 21.6667H44.0247V6.66667H45.6914V21.6667Z" fill="black"/>
<path d="M38.1916 39.1667H36.5249V44.1667H38.1916V39.1667Z" fill="black"/>
<path d="M31.5246 39.1667H29.8579V44.1667H31.5246V39.1667Z" fill="black"/>
</svg>
