<svg width="51" height="50" viewBox="0 0 51 50" fill="none" xmlns="http://www.w3.org/2000/svg">
<path d="M11.4685 21.0872C11.3474 21.382 11.42 21.7195 11.6523 21.9407C11.8844 22.1619 12.2299 22.2229 12.5259 22.0947L16.3816 20.4243C17.808 21.3306 19.4432 21.9138 21.1389 22.1179C21.5898 22.1722 22.0375 22.199 22.4809 22.2004C24.115 23.0511 25.9305 23.4903 27.7623 23.4903C28.5092 23.4903 29.2588 23.4174 29.9995 23.2701C31.6739 22.9371 33.2581 22.2307 34.6085 21.2181L38.5846 22.5889C38.8898 22.694 39.2293 22.6071 39.4434 22.3687C39.6574 22.1303 39.7032 21.7883 39.5591 21.5037L37.6539 17.7393C38.9423 15.4393 39.3592 12.7759 38.8269 10.1901C37.7621 5.01658 33.1457 1.3088 27.8054 1.29103C26.6009 0.663395 25.2772 0.251679 23.8836 0.0840049C20.8901 -0.276441 17.9331 0.530779 15.5571 2.35684C13.1812 4.1829 11.6708 6.80915 11.3043 9.75199C10.9781 12.3706 11.6043 14.9943 13.0706 17.1888L11.4685 21.0872ZM37.269 10.4997C37.7514 12.8437 37.3263 15.262 36.0718 17.3092C35.9317 17.5379 35.92 17.8212 36.041 18.0603L37.2647 20.478L34.7203 19.6008C34.457 19.51 34.1645 19.5617 33.9498 19.737C32.7268 20.7347 31.2518 21.4269 29.6843 21.7387C28.3856 21.997 27.0559 21.9873 25.7774 21.7249C29.9243 20.4864 33.1584 16.9438 33.7182 12.4499C34.0848 9.50717 33.2636 6.60026 31.4062 4.26463C31.1155 3.89921 30.805 3.55458 30.4764 3.23183C33.8601 4.20096 36.5382 6.95016 37.269 10.4997ZM12.8817 9.94164C13.1966 7.41314 14.4944 5.15652 16.5359 3.58759C18.5773 2.01856 21.1181 1.32511 23.6903 1.63468C26.2624 1.94424 28.5579 3.22001 30.1539 5.22693C31.7499 7.23375 32.4555 9.73148 32.1406 12.2601C31.5391 17.0882 27.3462 20.6388 22.5183 20.6384C20.5269 20.6383 18.5485 20.0271 16.9212 18.8973C16.7073 18.7488 16.3903 18.7131 16.1422 18.8206L13.6748 19.8895L14.7037 17.3856C14.8054 17.138 14.7715 16.8565 14.6137 16.6391C13.2011 14.6939 12.5861 12.3154 12.8817 9.94164ZM21.5065 11.1008C21.5065 10.5615 21.9513 10.1243 22.4999 10.1243C23.0486 10.1243 23.4933 10.5615 23.4933 11.1008C23.4933 11.6402 23.0486 12.0774 22.4999 12.0774C21.9513 12.0774 21.5065 11.6402 21.5065 11.1008ZM26.053 11.1008C26.053 10.5615 26.4977 10.1243 27.0464 10.1243C27.595 10.1243 28.0398 10.5615 28.0398 11.1008C28.0398 11.6402 27.595 12.0774 27.0464 12.0774C26.4978 12.0774 26.053 11.6402 26.053 11.1008ZM16.9824 11.1008C16.9824 10.5615 17.4272 10.1243 17.9758 10.1243C18.5245 10.1243 18.9692 10.5615 18.9692 11.1008C18.9692 11.6402 18.5245 12.0774 17.9758 12.0774C17.4272 12.0774 16.9824 11.6402 16.9824 11.1008ZM15.502 37.9741C17.2551 36.8405 18.4156 34.8905 18.4156 32.6779C18.4156 29.1844 15.5243 26.3421 11.9705 26.3421C8.41661 26.3421 5.52534 29.1844 5.52534 32.6779C5.52534 34.8904 6.68582 36.8405 8.43896 37.9741C3.55684 39.4589 0 43.938 0 49.2188C0 49.6502 0.355833 50 0.794713 50H23.146C23.5849 50 23.9407 49.6502 23.9407 49.2188C23.9407 43.9381 20.384 39.459 15.502 37.9741ZM7.11477 32.6779C7.11477 30.0459 9.29298 27.9046 11.9705 27.9046C14.648 27.9046 16.8262 30.0459 16.8262 32.6779C16.8262 35.3095 14.6486 37.4506 11.9718 37.4513C11.9713 37.4513 11.9709 37.4513 11.9705 37.4513C11.9701 37.4513 11.9697 37.4513 11.9693 37.4513C9.29228 37.4506 7.11477 35.3095 7.11477 32.6779ZM1.61953 48.4375C2.02662 43.1744 6.51287 39.0144 11.9691 39.0138C11.9695 39.0138 11.97 39.0138 11.9704 39.0138C11.9708 39.0138 11.9712 39.0138 11.9717 39.0138C17.4279 39.0144 21.914 43.1744 22.3211 48.4375H1.61953ZM42.4228 37.9741C44.1759 36.8405 45.3365 34.8905 45.3365 32.6779C45.3365 29.1844 42.4452 26.3421 38.8914 26.3421C35.3376 26.3421 32.4464 29.1844 32.4464 32.6779C32.4464 34.8904 33.6068 36.8405 35.36 37.9741C30.4778 39.4589 26.9209 43.938 26.9209 49.2188C26.9209 49.6502 27.2767 50 27.7156 50H50.0669C50.5058 50 50.8617 49.6502 50.8617 49.2188C50.8617 43.9381 47.3049 39.459 42.4228 37.9741ZM34.0357 32.6779C34.0357 30.0459 36.2139 27.9046 38.8913 27.9046C41.5688 27.9046 43.747 30.0459 43.747 32.6779C43.747 35.3095 41.5694 37.4506 38.8925 37.4513C38.8921 37.4513 38.8916 37.4513 38.8912 37.4513C38.8908 37.4513 38.8904 37.4513 38.8899 37.4513C36.2132 37.4506 34.0357 35.3095 34.0357 32.6779ZM28.5404 48.4375C28.9475 43.1744 33.4338 39.0144 38.89 39.0138C38.8904 39.0138 38.8909 39.0138 38.8913 39.0138C38.8917 39.0138 38.8922 39.0138 38.8926 39.0138C44.3488 39.0144 48.835 43.1744 49.242 48.4375H28.5404Z" fill="black"/>
</svg>
