<svg width="51" height="50" viewBox="0 0 51 50" fill="none" xmlns="http://www.w3.org/2000/svg">
<path d="M21.1773 46.875C21.6409 46.875 22.0941 46.7375 22.4796 46.48C22.8651 46.2225 23.1656 45.8564 23.343 45.4282C23.5204 44.9999 23.5668 44.5287 23.4764 44.074C23.3859 43.6194 23.1627 43.2017 22.8348 42.874C22.507 42.5462 22.0893 42.323 21.6346 42.2325C21.1799 42.1421 20.7086 42.1885 20.2802 42.3659C19.8519 42.5433 19.4858 42.8437 19.2282 43.2291C18.9707 43.6146 18.8332 44.0677 18.8332 44.5312C18.8332 45.1529 19.0801 45.749 19.5197 46.1885C19.9594 46.6281 20.5556 46.875 21.1773 46.875ZM21.1773 43.75C21.3845 43.75 21.5833 43.8323 21.7298 43.9788C21.8763 44.1253 21.9587 44.324 21.9587 44.5312C21.9587 44.7385 21.8763 44.9372 21.7298 45.0837C21.5833 45.2302 21.3845 45.3125 21.1773 45.3125C20.9701 45.3125 20.7713 45.2302 20.6248 45.0837C20.4782 44.9372 20.3959 44.7385 20.3959 44.5312C20.3959 44.324 20.4782 44.1253 20.6248 43.9788C20.7713 43.8323 20.9701 43.75 21.1773 43.75ZM21.1695 3.125C21.0149 3.125 20.8639 3.17082 20.7354 3.25666C20.6069 3.34251 20.5067 3.46452 20.4476 3.60728C20.3884 3.75003 20.373 3.90712 20.4031 4.05866C20.4333 4.21021 20.5077 4.34942 20.617 4.45868C20.7262 4.56794 20.8655 4.64234 21.017 4.67249C21.1686 4.70263 21.3257 4.68716 21.4685 4.62803C21.6113 4.5689 21.7333 4.46877 21.8192 4.34029C21.905 4.21181 21.9509 4.06077 21.9509 3.90625C21.9509 3.69905 21.8685 3.50034 21.722 3.35382C21.5755 3.20731 21.3767 3.125 21.1695 3.125ZM10.2381 10.9375C9.31081 10.9375 8.40439 11.2124 7.63341 11.7275C6.86243 12.2426 6.26153 12.9746 5.90669 13.8312C5.55184 14.6877 5.459 15.6302 5.6399 16.5395C5.8208 17.4488 6.26731 18.284 6.92297 18.9396C7.57863 19.5951 8.414 20.0416 9.32343 20.2224C10.2329 20.4033 11.1755 20.3105 12.0322 19.9557C12.8888 19.6009 13.621 19.0001 14.1362 18.2292C14.6513 17.4584 14.9263 16.5521 14.9263 15.625C14.9263 14.3818 14.4324 13.1895 13.5531 12.3104C12.6739 11.4314 11.4815 10.9375 10.2381 10.9375ZM10.2381 18.75C9.61989 18.75 9.01561 18.5667 8.50163 18.2233C7.98764 17.88 7.58704 17.3919 7.35048 16.8209C7.11392 16.2499 7.05202 15.6215 7.17262 15.0153C7.29322 14.4092 7.59089 13.8523 8.028 13.4153C8.46511 12.9783 9.02202 12.6806 9.6283 12.56C10.2346 12.4395 10.863 12.5014 11.4341 12.7379C12.0052 12.9744 12.4934 13.3749 12.8368 13.8888C13.1802 14.4027 13.3636 15.0069 13.3636 15.625C13.3636 16.4538 13.0343 17.2487 12.4481 17.8347C11.862 18.4208 11.067 18.75 10.2381 18.75ZM23.2917 21.875C22.7285 21.5244 22.0988 21.2943 21.4423 21.1991C20.7857 21.1039 20.1166 21.1457 19.477 21.3219C19.3757 21.3465 19.2803 21.3912 19.1965 21.4533C19.1127 21.5153 19.0422 21.5936 18.9891 21.6833C18.936 21.7731 18.9014 21.8726 18.8874 21.9759C18.8734 22.0792 18.8802 22.1843 18.9074 22.285C18.9346 22.3856 18.9817 22.4798 19.0459 22.562C19.1102 22.6442 19.1902 22.7126 19.2813 22.7634C19.3724 22.8142 19.4727 22.8462 19.5764 22.8576C19.6801 22.869 19.785 22.8595 19.8849 22.8297C20.3158 22.7103 20.7668 22.6812 21.2094 22.7444C21.6521 22.8076 22.0769 22.9617 22.4572 23.1969C22.7221 23.3491 22.9536 23.5533 23.1378 23.797C23.322 24.0408 23.4551 24.3192 23.5292 24.6156C23.57 25.1593 23.4335 25.7016 23.1403 26.1613C22.847 26.621 22.4127 26.9734 21.9024 27.1656C21.6133 27.2859 21.3164 27.3828 21.0195 27.4781C20.4631 27.6379 19.9248 27.8547 19.413 28.125C18.3008 28.7819 17.4894 29.8472 17.1517 31.0937C17.0336 31.5173 17.0049 31.9607 17.0673 32.3959C17.1297 32.8311 17.2819 33.2486 17.5142 33.6219C17.872 34.107 18.3452 34.4951 18.891 34.7511C19.4368 35.007 20.0379 35.1227 20.6397 35.0875C21.4728 35.0841 22.2942 34.8912 23.0417 34.5234C23.2282 34.4321 23.3707 34.2704 23.438 34.0739C23.5052 33.8774 23.4917 33.6623 23.4003 33.4758C23.3089 33.2893 23.1472 33.1468 22.9507 33.0795C22.7542 33.0123 22.539 33.0258 22.3525 33.1172C21.8099 33.4546 21.1714 33.6045 20.5353 33.5438C19.8992 33.4831 19.3006 33.2152 18.8316 32.7812C18.7139 32.5864 18.6384 32.3691 18.6102 32.1432C18.5819 31.9174 18.6014 31.6881 18.6675 31.4703C18.904 30.6408 19.4455 29.9313 20.1834 29.4844C20.6035 29.269 21.0437 29.0952 21.4977 28.9656C21.8352 28.8563 22.1728 28.7453 22.5009 28.6094C23.34 28.2807 24.0467 27.6835 24.5106 26.9109C24.9745 26.1384 25.1696 25.2341 25.0654 24.3391C24.9548 23.8286 24.7403 23.3463 24.4351 22.9224C24.13 22.4985 23.7407 22.1419 23.2917 21.875ZM23.0995 18.3594C23.1714 18.4775 23.2723 18.5754 23.3927 18.6438C23.513 18.7121 23.6487 18.7487 23.7871 18.75H27.3814C27.5198 18.7487 27.6555 18.7121 27.7758 18.6438C27.8961 18.5754 27.997 18.4775 28.069 18.3594L29.8662 15.2344C29.9347 15.1156 29.9709 14.9809 29.9709 14.8438C29.9709 14.7066 29.9347 14.5719 29.8662 14.4531L28.069 11.3281C27.997 11.21 27.8961 11.1121 27.7758 11.0437C27.6555 10.9754 27.5198 10.9388 27.3814 10.9375H23.7871C23.6487 10.9388 23.513 10.9754 23.3927 11.0437C23.2723 11.1121 23.1714 11.21 23.0995 11.3281L21.3023 14.4531C21.2337 14.5719 21.1976 14.7066 21.1976 14.8438C21.1976 14.9809 21.2337 15.1156 21.3023 15.2344L23.0995 18.3594ZM24.2403 12.5H26.9438L28.2878 14.8438L26.9438 17.1875H24.2403L22.8807 14.8438L24.2403 12.5ZM49.7287 9.71875C48.9845 9.01158 47.9971 8.61726 46.9704 8.61726C45.9438 8.61726 44.9564 9.01158 44.2122 9.71875L43.1073 10.8234L41.493 12.4375V3.90625C41.4901 2.87114 41.0776 1.87924 40.3455 1.1473C39.6135 0.415363 38.6214 0.00288622 37.5861 0L4.76844 0C3.73228 0 2.73855 0.41155 2.00587 1.14411C1.27319 1.87668 0.861572 2.87025 0.861572 3.90625L0.861572 46.0938C0.861572 47.1298 1.27319 48.1233 2.00587 48.8559C2.73855 49.5884 3.73228 50 4.76844 50H37.5861C38.6214 49.9971 39.6135 49.5846 40.3455 48.8527C41.0776 48.1208 41.4901 47.1289 41.493 46.0938V23.4844L48.627 16.3516L49.7209 15.2578C50.4515 14.5227 50.8616 13.5285 50.8616 12.4922C50.8616 11.4559 50.4515 10.4616 49.7209 9.72656L49.7287 9.71875ZM2.42432 3.90625C2.42432 3.28465 2.67129 2.68851 3.1109 2.24897C3.55051 1.80943 4.14674 1.5625 4.76844 1.5625H37.5861C38.2078 1.5625 38.8041 1.80943 39.2437 2.24897C39.6833 2.68851 39.9303 3.28465 39.9303 3.90625V6.25H2.42432V3.90625ZM39.9303 46.0938C39.9303 46.7154 39.6833 47.3115 39.2437 47.751C38.8041 48.1906 38.2078 48.4375 37.5861 48.4375H4.76844C4.14674 48.4375 3.55051 48.1906 3.1109 47.751C2.67129 47.3115 2.42432 46.7154 2.42432 46.0938V40.625H39.9303V46.0938ZM39.9303 39.0625H2.42432V7.8125H39.9303V14L26.5219 27.4063C26.4125 27.5102 26.341 27.6477 26.3187 27.7969L25.2092 33.3281C25.1859 33.4543 25.1936 33.5842 25.2317 33.7067C25.2698 33.8292 25.3372 33.9406 25.428 34.0313C25.5748 34.1727 25.771 34.2512 25.9749 34.25H26.1312L31.6477 33.1406C31.6677 33.1387 31.6866 33.1311 31.7024 33.1187C31.718 33.1187 31.7321 33.1187 31.7477 33.1187H31.7571C31.8161 33.0908 31.8735 33.0595 31.929 33.025L31.9806 32.9875C31.9962 32.975 32.0134 32.9656 32.0275 32.9516L32.054 32.9313L39.9303 25.0469V39.0625ZM27.6564 29.0797C28.8299 29.6754 29.7825 30.6301 30.3756 31.8047L26.9751 32.4844L27.6564 29.0797ZM41.493 21.2812L39.9303 22.8437L31.7587 31.0141C31.0184 29.593 29.8591 28.4339 28.4378 27.6938L39.9303 16.2031L41.493 14.6406L43.6527 12.4812L46.9736 15.8016L41.493 21.2812ZM48.6348 14.1406L48.0878 14.7031L44.7592 11.375L45.3077 10.8266C45.7556 10.3978 46.3519 10.1584 46.972 10.1584C47.5922 10.1584 48.1884 10.3978 48.6363 10.8266C49.0671 11.2703 49.308 11.8644 49.308 12.4828C49.308 13.1012 49.0671 13.6953 48.6363 14.1391L48.6348 14.1406ZM12.5822 25H4.89346C4.73867 24.9984 4.58706 25.0439 4.45869 25.1304C4.33032 25.2169 4.23125 25.3403 4.1746 25.4844C4.11172 25.6254 4.09449 25.7825 4.12531 25.9338C4.15613 26.0851 4.23346 26.2229 4.3465 26.3281L12.0196 34.0156C12.1724 34.1595 12.3724 34.2428 12.5822 34.25C12.6835 34.2426 12.7834 34.2216 12.8791 34.1875C13.02 34.1264 13.1405 34.0263 13.2264 33.8989C13.3122 33.7716 13.3598 33.6223 13.3636 33.4688V25.7812C13.3636 25.574 13.2812 25.3753 13.1347 25.2288C12.9882 25.0823 12.7894 25 12.5822 25ZM11.8008 31.5781L6.78439 26.5625H11.8008V31.5781Z" fill="black"/>
</svg>
