<svg width="52" height="50" viewBox="0 0 52 50" fill="none" xmlns="http://www.w3.org/2000/svg">
<path d="M37.5282 45.8333C37.5282 46.4964 37.2648 47.1323 36.796 47.6011C36.3272 48.0699 35.6913 48.3333 35.0282 48.3333H5.02824C4.3652 48.3333 3.72931 48.0699 3.26047 47.6011C2.79163 47.1323 2.52824 46.4964 2.52824 45.8333V4.16667C2.52824 3.50363 2.79163 2.86774 3.26047 2.3989C3.72931 1.93006 4.3652 1.66667 5.02824 1.66667H30.8616V5.83333C30.8616 6.49637 31.125 7.13226 31.5938 7.6011C32.0626 8.06994 32.6985 8.33333 33.3616 8.33333H37.5282V25.8333H39.1949V7.5C39.1949 7.279 39.107 7.06708 38.9507 6.91083L32.2841 0.244167C32.1278 0.0878755 31.9159 4.71978e-05 31.6949 0H5.02824C3.92358 0.00132321 2.86454 0.440735 2.08342 1.22185C1.30231 2.00296 0.862895 3.062 0.861572 4.16667V45.8333C0.862895 46.938 1.30231 47.997 2.08342 48.7781C2.86454 49.5593 3.92358 49.9987 5.02824 50H35.0282C36.1329 49.9987 37.1919 49.5593 37.9731 48.7781C38.7542 47.997 39.1936 46.938 39.1949 45.8333V42.5H37.5282V45.8333ZM32.5282 5.83333V2.845L36.3499 6.66667H33.3616C33.1406 6.66667 32.9286 6.57887 32.7723 6.42259C32.616 6.26631 32.5282 6.05435 32.5282 5.83333Z" fill="black"/>
<path d="M5.86127 5H7.52793V6.66667H5.86127V5ZM9.1946 5H14.1946V6.66667H9.1946V5ZM5.86127 8.33333H14.1946V10H5.86127V8.33333ZM49.9196 22.6083C49.1376 21.8282 48.078 21.39 46.9734 21.39C45.8687 21.39 44.8091 21.8282 44.0271 22.6083L29.2954 37.34C29.1794 37.4562 29.1002 37.604 29.0679 37.765L28.5279 40.4642L26.9388 42.0533C26.7035 42.2848 26.5164 42.5605 26.3882 42.8646C26.26 43.1687 26.1933 43.4952 26.1919 43.8252C26.1905 44.1552 26.2545 44.4822 26.3801 44.7874C26.5058 45.0925 26.6906 45.3698 26.9239 45.6032C27.1572 45.8366 27.4345 46.0215 27.7396 46.1472C28.0447 46.2729 28.3717 46.3369 28.7018 46.3356C29.0318 46.3343 29.3583 46.2677 29.6624 46.1396C29.9665 46.0115 30.2423 45.8244 30.4738 45.5892L32.0638 44L34.7629 43.46C34.924 43.4275 35.0719 43.348 35.1879 43.2317L49.9196 28.5C50.6995 27.718 51.1375 26.6586 51.1375 25.5542C51.1375 24.4497 50.6995 23.3903 49.9196 22.6083ZM30.2004 40.6017L30.5929 38.6367L33.8904 41.9342L31.9263 42.3275L30.2004 40.6017ZM31.6521 37.34L41.6696 27.3217L42.8488 28.5L32.8313 38.5183L31.6521 37.34ZM34.0096 39.6967L44.0279 29.6792L45.2063 30.8583L35.1879 40.875L34.0096 39.6967ZM42.8488 26.1433L43.4379 25.5542L46.9738 29.09L46.3838 29.68L42.8488 26.1433ZM29.2946 44.4108C29.136 44.5623 28.9251 44.6468 28.7059 44.6468C28.4866 44.6468 28.2757 44.5623 28.1171 44.4108C28.0396 44.3334 27.9782 44.2415 27.9362 44.1404C27.8943 44.0392 27.8727 43.9308 27.8727 43.8213C27.8727 43.7117 27.8943 43.6033 27.9362 43.5021C27.9782 43.401 28.0396 43.3091 28.1171 43.2317L29.2954 42.0533L30.4746 43.2325L29.2946 44.4108ZM48.7413 27.3225L48.1521 27.9117L44.6163 24.3758L45.2054 23.7867C45.4376 23.5545 45.7132 23.3703 46.0166 23.2447C46.3199 23.119 46.645 23.0544 46.9734 23.0544C47.3017 23.0544 47.6268 23.119 47.9301 23.2447C48.2335 23.3703 48.5091 23.5545 48.7413 23.7867C48.9734 24.0188 49.1576 24.2945 49.2832 24.5978C49.4089 24.9011 49.4736 25.2263 49.4736 25.5546C49.4736 25.8829 49.4089 26.208 49.2832 26.5114C49.1576 26.8147 48.9734 27.0903 48.7413 27.3225ZM35.1029 23.8417C35.2591 23.6843 35.3467 23.4717 35.3467 23.25C35.3467 23.0283 35.2591 22.8157 35.1029 22.6583L26.8529 14.4083C26.6934 14.2597 26.4835 14.177 26.2654 14.177C26.0474 14.177 25.8374 14.2597 25.6779 14.4083L23.4946 16.5917L22.2196 16.8417L19.7863 14.4083C19.6274 14.2548 19.4155 14.1683 19.1946 14.1667H16.0029L13.8946 12.05C13.7373 11.8939 13.5246 11.8063 13.3029 11.8063C13.0813 11.8063 12.8686 11.8939 12.7113 12.05L4.46127 20.3C4.30514 20.4573 4.21753 20.67 4.21753 20.8917C4.21753 21.1133 4.30514 21.326 4.46127 21.4833L10.4613 27.4833C10.2815 27.8532 10.1966 28.2619 10.2143 28.6728C10.232 29.0836 10.3516 29.4835 10.5625 29.8366C10.7733 30.1896 11.0687 30.4846 11.422 30.695C11.7753 30.9054 12.1754 31.0245 12.5863 31.0417C12.6087 31.6575 12.8649 32.2416 13.3029 32.675C13.7378 33.112 14.3204 33.3707 14.9363 33.4C14.9671 34.0155 15.2255 34.5976 15.6612 35.0334C16.097 35.4691 16.6791 35.7275 17.2946 35.7583C17.3216 36.2395 17.487 36.7025 17.771 37.0918C18.055 37.4811 18.4455 37.78 18.8954 37.9526C19.3453 38.1252 19.8355 38.164 20.307 38.0645C20.7785 37.965 21.2111 37.7313 21.5529 37.3917L22.4363 38.275C22.668 38.5074 22.9434 38.6918 23.2465 38.8176C23.5497 38.9434 23.8747 39.0082 24.2029 39.0082C24.5312 39.0082 24.8562 38.9434 25.1593 38.8176C25.4625 38.6918 25.7378 38.5074 25.9696 38.275C26.4093 37.8393 26.6657 37.252 26.6863 36.6333C27.3029 36.61 27.888 36.3551 28.3251 35.9196C28.7621 35.4841 29.0191 34.8998 29.0446 34.2833C29.6614 34.2562 30.2456 33.999 30.6821 33.5625C31.1186 33.126 31.3758 32.5418 31.4029 31.925C31.886 31.902 32.3519 31.7391 32.7441 31.456C33.1362 31.173 33.4376 30.7821 33.6115 30.3308C33.7855 29.8796 33.8245 29.3875 33.7239 28.9145C33.6232 28.4415 33.3872 28.008 33.0446 27.6667L32.1613 26.7833L35.1029 23.8417ZM6.22793 20.8917L13.3029 13.825L14.4779 15L7.41127 22.075L6.22793 20.8917ZM8.58627 23.25L16.0029 15.8333H18.8529L25.3779 22.3667C25.457 22.4427 25.52 22.5339 25.5629 22.6349C25.6059 22.7359 25.6281 22.8444 25.6281 22.9542C25.6281 23.0639 25.6059 23.1725 25.5629 23.2734C25.52 23.3744 25.457 23.4656 25.3779 23.5417C25.2203 23.6941 25.0097 23.7793 24.7904 23.7793C24.5712 23.7793 24.3605 23.6941 24.2029 23.5417L20.6696 20.0083C20.5094 19.8578 20.2978 19.774 20.0779 19.774C19.8581 19.774 19.6465 19.8578 19.4863 20.0083C19.0107 20.4635 18.3779 20.7176 17.7196 20.7176C17.0613 20.7176 16.4285 20.4635 15.9529 20.0083L14.7779 21.1833C15.0805 21.4805 15.426 21.7306 15.8029 21.925L11.5363 26.2L8.58627 23.25ZM21.2529 33.5583C20.9467 33.8698 20.7271 34.2559 20.6161 34.6783C20.505 35.1007 20.5062 35.5449 20.6196 35.9667L20.3696 36.2083C20.2925 36.2866 20.2003 36.3484 20.0986 36.39C19.9969 36.4315 19.8878 36.452 19.7779 36.45C19.6693 36.4518 19.5615 36.4313 19.4612 36.3898C19.3608 36.3482 19.2701 36.2864 19.1946 36.2083C19.0394 36.0544 18.9514 35.8453 18.9498 35.6267C18.9483 35.4081 19.0333 35.1978 19.1863 35.0417C19.1885 35.0417 19.1906 35.0408 19.1922 35.0392C19.1937 35.0377 19.1946 35.0355 19.1946 35.0333L21.5529 32.6833V32.675L20.3696 31.5L18.0113 33.8583C18.0029 33.8583 18.0029 33.8583 18.0029 33.8667C17.843 34.0122 17.6342 34.0921 17.418 34.0906C17.2018 34.089 16.9941 34.0061 16.8363 33.8583C16.6813 33.7004 16.5946 33.4879 16.5946 33.2667C16.5946 33.0454 16.6813 32.833 16.8363 32.675L19.1946 30.3167L18.0196 29.1417L15.6613 31.5C15.5836 31.5777 15.4913 31.6393 15.3898 31.6814C15.2883 31.7234 15.1795 31.7451 15.0696 31.7451C14.9597 31.7451 14.8509 31.7234 14.7494 31.6814C14.6479 31.6393 14.5556 31.5777 14.4779 31.5C14.4002 31.4223 14.3386 31.3301 14.2966 31.2285C14.2545 31.127 14.2329 31.0182 14.2329 30.9083C14.2329 30.7985 14.2545 30.6896 14.2966 30.5881C14.3386 30.4866 14.4002 30.3944 14.4779 30.3167L16.8363 27.9667L15.6613 26.7833L13.3029 29.1417C13.1437 29.2941 12.9317 29.3791 12.7113 29.3791C12.4908 29.3791 12.2789 29.2941 12.1196 29.1417C11.9644 28.9855 11.8773 28.7743 11.8773 28.5542C11.8773 28.334 11.9644 28.1228 12.1196 27.9667L17.6779 22.4C17.6946 22.4 17.7029 22.4083 17.7196 22.4083C18.5379 22.4111 19.3385 22.1703 20.0196 21.7167L23.0279 24.725C23.5044 25.1785 24.1369 25.4314 24.7946 25.4314C25.4523 25.4314 26.0849 25.1785 26.5613 24.725C27.0211 24.265 27.2835 23.6438 27.2929 22.9935C27.3022 22.3431 27.0577 21.7147 26.6113 21.2417L30.9863 25.6083L30.7363 25.85C30.3137 25.7376 29.8692 25.7376 29.4467 25.8502C29.0242 25.9627 28.6385 26.1839 28.3279 26.4917C27.8899 26.9251 27.6337 27.5092 27.6113 28.125C26.9902 28.1522 26.4023 28.4127 25.9651 28.8546C25.5279 29.2964 25.2735 29.8871 25.2529 30.5083C24.6368 30.5243 24.0498 30.7744 23.6117 31.208C23.1735 31.6415 22.9171 32.2257 22.8946 32.8417C22.2785 32.8731 21.6949 33.1279 21.2529 33.5583ZM24.7946 37.1C24.6344 37.2505 24.4228 37.3343 24.2029 37.3343C23.9831 37.3343 23.7715 37.2505 23.6113 37.1L22.4363 35.9167C22.349 35.842 22.2782 35.75 22.2282 35.6466C22.1781 35.5433 22.15 35.4306 22.1456 35.3159C22.1412 35.2011 22.1605 35.0867 22.2024 34.9797C22.2443 34.8728 22.3078 34.7757 22.3891 34.6945C22.4703 34.6132 22.5674 34.5497 22.6743 34.5078C22.7813 34.4659 22.8957 34.4466 23.0105 34.451C23.1252 34.4554 23.2379 34.4835 23.3412 34.5336C23.4446 34.5836 23.5366 34.6544 23.6113 34.7417L24.7946 35.9167C24.9507 36.074 25.0383 36.2867 25.0383 36.5083C25.0383 36.73 24.9507 36.9427 24.7946 37.1ZM27.1529 34.7417C26.9956 34.8978 26.7829 34.9854 26.5613 34.9854C26.3396 34.9854 26.1269 34.8978 25.9696 34.7417L24.7946 33.5583C24.6394 33.4022 24.5523 33.191 24.5523 32.9708C24.5523 32.7507 24.6394 32.5395 24.7946 32.3833C24.9507 32.2281 25.1619 32.141 25.3821 32.141C25.6023 32.141 25.8135 32.2281 25.9696 32.3833L27.1529 33.5583C27.3079 33.7163 27.3946 33.9287 27.3946 34.15C27.3946 34.3713 27.3079 34.5837 27.1529 34.7417ZM29.5029 32.3833C29.3453 32.5358 29.1347 32.621 28.9154 32.621C28.6962 32.621 28.4855 32.5358 28.3279 32.3833L27.1529 31.2C27.0737 31.125 27.0106 31.0345 26.9676 30.9342C26.9246 30.8339 26.9026 30.7258 26.9029 30.6167C26.9045 30.3961 26.9927 30.1851 27.1487 30.0291C27.3046 29.8732 27.5157 29.7849 27.7363 29.7833C27.9573 29.7842 28.1695 29.8708 28.3279 30.025L29.5029 31.2083C29.6581 31.3645 29.7453 31.5757 29.7453 31.7958C29.7453 32.016 29.6581 32.2272 29.5029 32.3833ZM31.8613 30.025C31.7051 30.1802 31.4939 30.2673 31.2738 30.2673C31.0536 30.2673 30.8424 30.1802 30.6863 30.025L29.5029 28.85C29.3468 28.6927 29.2592 28.48 29.2592 28.2583C29.2592 28.0367 29.3468 27.824 29.5029 27.6667C29.6623 27.5138 29.8738 27.4274 30.0946 27.425C30.3157 27.4259 30.5278 27.5125 30.6863 27.6667L31.8613 28.85C31.9404 28.926 32.0033 29.0173 32.0463 29.1182C32.0893 29.2192 32.1114 29.3278 32.1114 29.4375C32.1114 29.5472 32.0893 29.6558 32.0463 29.7568C32.0033 29.8577 31.9404 29.949 31.8613 30.025ZM25.0863 17.3583L26.2696 16.175L33.3363 23.25L32.1613 24.425L25.0863 17.3583ZM16.6946 43.3333H25.0279V45H16.6946V43.3333ZM5.86127 35H12.5279V36.6667H5.86127V35ZM5.86127 38.3333H14.1946V40H5.86127V38.3333ZM5.86127 31.6667H10.8613V33.3333H5.86127V31.6667Z" fill="black"/>
</svg>
