<svg width="43" height="50" viewBox="0 0 43 50" fill="none" xmlns="http://www.w3.org/2000/svg">
<path d="M21.486 6.24731C18.603 6.24731 15.7847 7.10223 13.3876 8.70396C10.9904 10.3057 9.12207 12.5823 8.01878 15.2458C6.9155 17.9094 6.62683 20.8403 7.18928 23.668C7.75173 26.4956 9.14004 29.0929 11.1786 31.1315C13.2173 33.1701 15.8146 34.5585 18.6422 35.1209C21.4699 35.6834 24.4008 35.3947 27.0643 34.2914C29.7279 33.1881 32.0045 31.3198 33.6062 28.9226C35.208 26.5255 36.0629 23.7072 36.0629 20.8242C36.0629 16.9581 34.5271 13.2505 31.7934 10.5168C29.0597 7.78308 25.352 6.24731 21.486 6.24731ZM21.486 33.3186C19.0149 33.3186 16.5992 32.5858 14.5445 31.2129C12.4898 29.84 10.8883 27.8886 9.94267 25.6056C8.997 23.3225 8.74957 20.8103 9.23167 18.3866C9.71377 15.9629 10.9037 13.7366 12.6511 11.9893C14.3985 10.2419 16.6248 9.0519 19.0485 8.5698C21.4722 8.0877 23.9844 8.33513 26.2674 9.2808C28.5505 10.2265 30.5019 11.8279 31.8748 13.8826C33.2477 15.9373 33.9805 18.353 33.9805 20.8242C33.9805 24.1379 32.6641 27.3159 30.3209 29.6591C27.9778 32.0022 24.7998 33.3186 21.486 33.3186Z" fill="black"/>
<path d="M41.0293 17.9816C40.7541 17.7328 40.5668 17.4015 40.4955 17.0374C40.4242 16.6733 40.4727 16.2959 40.6337 15.9616C40.8624 15.4815 40.9876 14.9587 41.001 14.427C41.0144 13.8954 40.9157 13.3668 40.7114 12.8758C40.5072 12.3848 40.2019 11.9422 39.8153 11.577C39.4288 11.2117 38.9697 10.9318 38.468 10.7556C38.1155 10.637 37.8122 10.4053 37.605 10.0965C37.3979 9.78772 37.2986 9.41912 37.3226 9.04805C37.3534 8.4996 37.2655 7.95097 37.065 7.43955C36.8646 6.92813 36.5562 6.46595 36.1609 6.0845C35.7656 5.70306 35.2927 5.41132 34.7745 5.22917C34.2563 5.04703 33.7048 4.97876 33.1578 5.02901C32.8042 5.03026 32.4592 4.92036 32.1715 4.71484C31.8837 4.50931 31.6679 4.21857 31.5544 3.88369C31.3782 3.38191 31.0983 2.92284 30.733 2.53632C30.3678 2.14979 29.9252 1.84447 29.4342 1.64021C28.9432 1.43594 28.4147 1.3373 27.883 1.3507C27.3514 1.3641 26.8285 1.48924 26.3484 1.71798C24.3909 2.61342 24.318 0 21.4859 0C20.949 0.0029708 20.4186 0.118476 19.929 0.339063C19.4394 0.55965 19.0015 0.88042 18.6435 1.28068C18.3909 1.55032 18.0599 1.73365 17.6974 1.80466C17.3348 1.87567 16.9591 1.83078 16.6235 1.67634C16.1437 1.44591 15.6206 1.31943 15.0884 1.3052C14.5563 1.29097 14.0272 1.38931 13.5357 1.59376C13.0442 1.79822 12.6015 2.10419 12.2364 2.49163C11.8714 2.87908 11.5924 3.33926 11.4175 3.84204C11.2955 4.19432 11.0615 4.49697 10.7512 4.70378C10.441 4.91058 10.0717 5.01018 9.69953 4.98736C9.15108 4.95662 8.60245 5.04449 8.09103 5.24497C7.57961 5.44546 7.11742 5.75385 6.73598 6.14913C6.35454 6.54441 6.0628 7.01728 5.88065 7.53552C5.69851 8.05375 5.63023 8.60516 5.68049 9.15217C5.68174 9.50576 5.57183 9.8508 5.36631 10.1385C5.16079 10.4263 4.87005 10.6421 4.53516 10.7556C4.03439 10.9332 3.57641 11.2138 3.1908 11.5793C2.80519 11.9449 2.50051 12.3872 2.29643 12.8778C2.09235 13.3684 1.99341 13.8963 2.00599 14.4275C2.01857 14.9586 2.14239 15.4813 2.36946 15.9616C2.54469 16.3041 2.59991 16.6954 2.52629 17.073C2.45266 17.4506 2.25445 17.7925 1.96339 18.044C1.56332 18.4006 1.24317 18.8377 1.02395 19.3266C0.804735 19.8156 0.691406 20.3454 0.691406 20.8813C0.691406 21.4172 0.804735 21.947 1.02395 22.436C1.24317 22.925 1.56332 23.3621 1.96339 23.7186C2.23862 23.9674 2.42589 24.2987 2.49721 24.6628C2.56853 25.0269 2.52006 25.4043 2.35905 25.7385C2.12862 26.2184 2.00215 26.7415 1.98792 27.2736C1.97369 27.8057 2.07202 28.3349 2.27648 28.8264C2.48093 29.3178 2.7869 29.7606 3.17435 30.1256C3.56179 30.4906 4.02197 30.7697 4.52475 30.9445C4.87703 31.0666 5.17968 31.3006 5.38649 31.6108C5.5933 31.921 5.6929 32.2904 5.67008 32.6625C5.61932 33.5221 5.86437 34.373 6.36447 35.0739C6.86457 35.7748 7.58956 36.2834 8.41885 36.515C3.51479 45.0216 3.50437 44.6468 3.98333 45.3652C4.46228 46.0836 4.78505 45.8442 9.36635 45.2923C11.1572 49.5196 11.126 49.9777 11.9798 49.9777C12.8336 49.9777 12.6565 49.9777 18.3311 40.1175C18.4476 40.1927 18.5558 40.28 18.6539 40.3778C19.0104 40.7779 19.4475 41.0981 19.9365 41.3173C20.4255 41.5365 20.9553 41.6498 21.4912 41.6498C22.027 41.6498 22.5568 41.5365 23.0458 41.3173C23.5348 41.0981 23.9719 40.7779 24.3284 40.3778C24.4236 40.284 24.5283 40.2003 24.6408 40.128C30.4611 50.2172 30.1175 50.0506 30.9921 49.9881C31.8667 49.9257 31.8147 49.5404 33.6264 45.2819C38.1764 45.8338 38.5409 46.0732 39.0094 45.3548C39.4779 44.6364 39.2385 44.5947 34.5739 36.515C35.4195 36.2726 36.1553 35.7452 36.6563 35.0221C37.1573 34.299 37.3927 33.4249 37.3226 32.548C37.3214 32.1944 37.4313 31.8494 37.6368 31.5616C37.8423 31.2739 38.1331 31.058 38.468 30.9445C38.9687 30.767 39.4267 30.4864 39.8123 30.1208C40.1979 29.7553 40.5026 29.313 40.7067 28.8224C40.9108 28.3318 41.0097 27.8039 40.9971 27.2727C40.9846 26.7415 40.8607 26.2189 40.6337 25.7385C40.476 25.4036 40.4293 25.027 40.5005 24.6637C40.5717 24.3004 40.7569 23.9693 41.0293 23.7186C41.4414 23.3628 41.7719 22.9224 41.9985 22.4274C42.225 21.9325 42.3423 21.3945 42.3423 20.8501C42.3423 20.3057 42.225 19.7677 41.9985 19.2727C41.7719 18.7777 41.4414 18.3374 41.0293 17.9816ZM12.1776 46.6147C10.3451 42.3353 11.3238 42.9392 6.77375 43.491C11.001 36.2026 10.5429 36.8586 10.6678 36.9315C10.9976 37.1327 11.2477 37.4417 11.3759 37.8061C11.6856 38.6967 12.3154 39.4403 13.1428 39.8925C13.9702 40.3447 14.9362 40.4732 15.853 40.2529L12.1776 46.6147ZM30.7943 46.6147L27.1189 40.2529C28.0343 40.4727 28.9988 40.3439 29.8245 39.8916C30.6502 39.4393 31.278 38.6959 31.5856 37.8061C31.7393 37.4148 32.0222 37.0878 32.3873 36.8794L36.1981 43.491C31.6064 42.9288 32.5956 42.3874 30.7943 46.6147ZM39.6549 22.1047C39.0376 22.6556 38.6164 23.3925 38.4548 24.204C38.2933 25.0154 38.4002 25.8574 38.7595 26.6027C38.8655 26.8193 38.9241 27.056 38.9315 27.2971C38.9388 27.5381 38.8948 27.7779 38.8021 28.0006C38.7095 28.2232 38.5705 28.4236 38.3944 28.5883C38.2183 28.753 38.0091 28.8783 37.7808 28.9559C36.9871 29.2371 36.3082 29.7719 35.849 30.4777C35.3898 31.1835 35.1759 32.0208 35.2402 32.8604C35.2397 33.0993 35.1895 33.3355 35.0931 33.554C34.9966 33.7726 34.8559 33.9688 34.6798 34.1302C34.5037 34.2916 34.296 34.4148 34.0699 34.4919C33.8438 34.5691 33.6041 34.5985 33.3661 34.5783C32.5517 34.5453 31.7483 34.7743 31.0737 35.2315C30.399 35.6888 29.8887 36.3503 29.6177 37.1189C29.5374 37.3452 29.4106 37.5522 29.2453 37.7264C29.0801 37.9007 28.8802 38.0384 28.6584 38.1306C28.4367 38.2228 28.1981 38.2675 27.958 38.2619C27.718 38.2562 27.4817 38.2002 27.2646 38.0976C26.5205 37.7447 25.6828 37.6402 24.8748 37.7996C24.0668 37.9589 23.3314 38.3736 22.777 38.9826C22.6108 39.1562 22.4112 39.2943 22.1902 39.3886C21.9692 39.483 21.7314 39.5316 21.4912 39.5316C21.2509 39.5316 21.0131 39.483 20.7921 39.3886C20.5711 39.2943 20.3715 39.1562 20.2053 38.9826C19.6544 38.3653 18.9175 37.9441 18.1061 37.7825C17.2946 37.621 16.4526 37.7279 15.7073 38.0872C15.4897 38.1916 15.2525 38.2489 15.0112 38.2555C14.77 38.2621 14.53 38.2178 14.307 38.1255C14.084 38.0331 13.883 37.8948 13.717 37.7196C13.5511 37.5444 13.4239 37.3361 13.3437 37.1085C13.0675 36.3137 12.5353 35.633 11.8305 35.1732C11.1258 34.7134 10.2884 34.5006 9.44964 34.5679C9.21074 34.5673 8.97455 34.5172 8.75599 34.4208C8.53743 34.3243 8.34124 34.1836 8.1798 34.0075C8.01837 33.8314 7.8952 33.6237 7.81806 33.3976C7.74093 33.1715 7.71151 32.9318 7.73166 32.6938C7.76634 31.8791 7.53808 31.0749 7.0806 30.3999C6.62312 29.7249 5.96067 29.215 5.19112 28.9454C4.96175 28.8694 4.75139 28.7449 4.57432 28.5804C4.39724 28.416 4.25756 28.2154 4.16475 27.9922C4.07195 27.7691 4.02817 27.5286 4.03639 27.2871C4.04461 27.0456 4.10463 26.8086 4.21239 26.5923C4.56867 25.8489 4.67499 25.0103 4.51548 24.2015C4.35598 23.3927 3.93921 22.6572 3.32737 22.1047C3.14543 21.9435 2.99977 21.7456 2.90001 21.5239C2.80025 21.3022 2.74867 21.0619 2.74867 20.8189C2.74867 20.5758 2.80025 20.3355 2.90001 20.1138C2.99977 19.8921 3.14543 19.6942 3.32737 19.533C3.94181 18.9801 4.36099 18.2434 4.52237 17.4327C4.68375 16.6221 4.57867 15.781 4.2228 15.035C4.11504 14.8187 4.05502 14.5817 4.0468 14.3402C4.03858 14.0987 4.08236 13.8582 4.17517 13.6351C4.26798 13.4119 4.40765 13.2113 4.58473 13.0469C4.76181 12.8824 4.97216 12.7579 5.20153 12.6819C5.99517 12.4006 6.67407 11.8658 7.13328 11.16C7.5925 10.4542 7.80645 9.61688 7.74207 8.77734C7.74108 8.53797 7.79012 8.30103 7.88606 8.08171C7.98199 7.8624 8.1227 7.66556 8.29916 7.50381C8.47561 7.34205 8.68393 7.21896 8.91074 7.14242C9.13755 7.06589 9.37785 7.03759 9.61624 7.05936C10.4309 7.09404 11.2351 6.86578 11.9101 6.40829C12.5851 5.95081 13.095 5.28837 13.3646 4.51882C13.4449 4.2925 13.5717 4.08554 13.737 3.91128C13.9022 3.73702 14.1021 3.59933 14.3239 3.50711C14.5456 3.41489 14.7842 3.37017 15.0243 3.37585C15.2643 3.38153 15.5006 3.43748 15.7177 3.54009C16.4611 3.89636 17.2997 4.00268 18.1085 3.84318C18.9173 3.68368 19.6528 3.2669 20.2053 2.65507C20.3715 2.48152 20.5711 2.34342 20.7921 2.24907C21.0131 2.15472 21.2509 2.10608 21.4912 2.10608C21.7314 2.10608 21.9692 2.15472 22.1902 2.24907C22.4112 2.34342 22.6108 2.48152 22.777 2.65507C23.3299 3.2695 24.0666 3.68869 24.8773 3.85007C25.6879 4.01145 26.529 3.90636 27.275 3.5505C27.4919 3.44621 27.7284 3.38894 27.9689 3.38243C28.2094 3.37593 28.4487 3.42034 28.6708 3.51275C28.893 3.60516 29.0932 3.74349 29.2581 3.91867C29.4231 4.09384 29.5492 4.30191 29.6282 4.52923C29.9094 5.32287 30.4443 6.00177 31.15 6.46098C31.8558 6.92019 32.6931 7.13415 33.5327 7.06977C33.7716 7.07036 34.0078 7.12046 34.2263 7.21693C34.4449 7.3134 34.6411 7.45413 34.8025 7.63024C34.9639 7.80635 35.0871 8.01401 35.1642 8.24012C35.2414 8.46623 35.2708 8.70588 35.2507 8.94393C35.216 9.7586 35.4442 10.5628 35.9017 11.2378C36.3592 11.9128 37.0216 12.4227 37.7912 12.6923C38.0206 12.7683 38.2309 12.8928 38.408 13.0573C38.5851 13.2217 38.7247 13.4223 38.8176 13.6455C38.9104 13.8686 38.9541 14.1091 38.9459 14.3506C38.9377 14.5921 38.8777 14.8291 38.7699 15.0454C38.4136 15.7888 38.3073 16.6274 38.4668 17.4362C38.6263 18.245 39.0431 18.9805 39.6549 19.533C39.8369 19.6942 39.9825 19.8921 40.0823 20.1138C40.1821 20.3355 40.2336 20.5758 40.2336 20.8189C40.2336 21.0619 40.1821 21.3022 40.0823 21.5239C39.9825 21.7456 39.8369 21.9435 39.6549 22.1047Z" fill="black"/>
<path d="M24.7552 16.7633C22.2772 11.7551 22.3501 11.4531 21.4859 11.4531C20.6217 11.4531 20.6945 11.7447 18.2165 16.7633C12.6981 17.565 12.4378 17.3984 12.1671 18.2209C11.8964 19.0435 12.1671 19.0747 16.207 22.9688C15.2595 28.4664 15.0304 28.6746 15.728 29.216C16.4256 29.7575 16.5401 29.4451 21.4859 26.8421C26.5149 29.4868 26.2754 29.4139 26.6294 29.4139C26.7824 29.4161 26.934 29.3846 27.0734 29.3216C27.2128 29.2586 27.3367 29.1656 27.4361 29.0493C27.5355 28.933 27.608 28.7962 27.6486 28.6486C27.6891 28.5011 27.6966 28.3464 27.6706 28.1957L26.7752 22.9897L30.5547 19.3142C30.6953 19.1784 30.7948 19.0057 30.8418 18.816C30.8889 18.6263 30.8816 18.4272 30.8207 18.2414C30.7599 18.0556 30.648 17.8908 30.4978 17.7656C30.3477 17.6405 30.1653 17.5601 29.9717 17.5338L24.7552 16.7633ZM24.9218 21.8652C24.4012 22.3753 24.5991 22.6044 25.255 26.436C21.6212 24.5306 21.8295 24.5931 21.4859 24.5931C21.1423 24.5931 21.3505 24.5306 17.7167 26.436C18.3831 22.5836 18.5705 22.3649 18.0499 21.8652L15.3948 19.2726L19.0599 18.7415C19.7887 18.6374 19.7679 18.3355 21.4859 14.8474C23.2247 18.3667 23.1934 18.6374 23.9119 18.7415L27.5769 19.2726L24.9218 21.8652Z" fill="black"/>
</svg>
