<?xml version="1.0" encoding="utf-8"?><svg xmlns="http://www.w3.org/2000/svg" xmlns:xlink="http://www.w3.org/1999/xlink"><symbol id="Telegram" viewBox="0 0 215 215" xmlns="http://www.w3.org/2000/svg"><defs><style>.ocls-1{fill:url(#oБезымянный_градиент_2);}.ocls-2{fill:#fff;fill-rule:evenodd;}</style><linearGradient id="oБезымянный_градиент_2" y1="107.5" x2="215" y2="107.5" gradientUnits="userSpaceOnUse"><stop offset="0" stop-color="#2aabee"/><stop offset="1" stop-color="#229ed9"/></linearGradient></defs><g id="oTelegram"><circle id="oBackground" class="ocls-1" cx="107.5" cy="107.5" r="107.5"/><path id="oTelegram-2" data-name="Telegram" class="ocls-2" d="M603.31,105.65q46.89-20.43,62.53-26.94c29.78-12.38,36-14.53,40-14.61A7.09,7.09,0,0,1,710,65.35a4.49,4.49,0,0,1,1.53,2.9,19.25,19.25,0,0,1,.18,4.23c-1.61,17-8.6,58.09-12.15,77.08-1.5,8-4.46,10.73-7.33,11-6.22.57-11-4.12-17-8.07-9.44-6.19-14.77-10-23.93-16.08-10.59-7-3.72-10.81,2.31-17.07,1.58-1.64,29-26.6,29.54-28.86a2.18,2.18,0,0,0-.5-1.9,2.49,2.49,0,0,0-2.22-.21q-1.41.31-45.22,29.89-6.42,4.41-11.63,4.3c-3.83-.09-11.19-2.17-16.67-4-6.71-2.18-12-3.33-11.58-7Q595.7,108.68,603.31,105.65Z" transform="translate(-554)"/></g></symbol><symbol id="VK" viewBox="0 0 215 215" xmlns="http://www.w3.org/2000/svg"><defs><style>.rcls-1{fill:#07f;}.rcls-2{fill:#fff;}</style></defs><g id="rVK"><circle id="rBackground" class="rcls-1" cx="107.5" cy="107.5" r="107.5"/><path id="rVK-2" data-name="VK" class="rcls-2" d="M111.44,147.14C69.76,147.14,46,118.56,45,71H65.87c.69,34.9,16.08,49.69,28.27,52.74V71h19.67v30.1c12-1.29,24.69-15,28.95-30.1h19.67c-3.28,18.59-17,32.31-26.75,37.95A60.16,60.16,0,0,1,167,147.14H145.36c-4.65-14.48-16.24-25.68-31.55-27.2v27.2Z"/></g></symbol><symbol id="Viber" viewBox="0 0 215 215" xmlns="http://www.w3.org/2000/svg"><defs><style>.qcls-1{fill:#7360f2;}.qcls-2{fill:#fff;}</style></defs><g id="qViber"><circle id="qBackground" class="qcls-1" cx="107.5" cy="107.5" r="107.5"/><g id="qViber-2" data-name="Viber"><path class="qcls-2" d="M148.37,343.83c-2.75-2.55-13.9-10.64-38.73-10.75,0,0-29.28-1.77-43.55,11.33-8,7.94-10.74,19.57-11,34s-.68,41.43,25.37,48.76h0v11.18s-.17,4.52,2.81,5.45c3.6,1.11,5.72-2.33,9.16-6,1.89-2,4.5-5,6.46-7.31,17.82,1.5,31.51-1.93,33.07-2.44,3.6-1.16,23.95-3.77,27.26-30.79C162.6,369.38,157.53,351.77,148.37,343.83Zm3,51.4c-2.79,22.55-19.3,24-22.34,24.95a92.89,92.89,0,0,1-28.46,2.42S89.32,436.2,85.8,439.74a1.89,1.89,0,0,1-1.63.66c-.6-.15-.77-.86-.76-1.91,0-1.5.09-18.58.09-18.58h0c-22-6.12-20.74-29.11-20.49-41.15s2.51-21.91,9.23-28.54c12.07-10.94,36.94-9.3,36.94-9.3,21,.09,31.07,6.41,33.4,8.53,7.75,6.64,11.7,22.51,8.81,45.77Z" transform="translate(0 -277)"/><path id="qViber-3" data-name="Viber" class="qcls-2" d="M119.86,379.17a1.4,1.4,0,0,1-1.4-1.33c-.24-4.77-2.48-7.11-7.06-7.35a1.4,1.4,0,0,1,.14-2.8c6,.32,9.41,3.78,9.72,10a1.41,1.41,0,0,1-1.33,1.47Z" transform="translate(0 -277)"/><path id="qViber-4" data-name="Viber" class="qcls-2" d="M127.06,381.59h0a1.41,1.41,0,0,1-1.37-1.44,16.27,16.27,0,0,0-4.19-11.88c-2.92-3.19-6.92-4.92-12.23-5.31a1.4,1.4,0,1,1,.2-2.8c6,.43,10.72,2.53,14.1,6.22a19.13,19.13,0,0,1,4.93,13.83A1.41,1.41,0,0,1,127.06,381.59Z" transform="translate(0 -277)"/><path id="qViber-5" data-name="Viber" class="qcls-2" d="M134.44,384.47a1.4,1.4,0,0,1-1.4-1.39c-.07-8.47-2.61-15.21-7.56-20a26,26,0,0,0-18.63-7.36,1.41,1.41,0,0,1,0-2.81h0A28.71,28.71,0,0,1,127.44,361c5.51,5.37,8.33,12.78,8.4,22a1.39,1.39,0,0,1-1.39,1.41Z" transform="translate(0 -277)"/><path id="qViber-6" data-name="Viber" class="qcls-2" d="M111.75,396.58a3.86,3.86,0,0,0,3-1.15l2.08-2.6a4.53,4.53,0,0,1,5.77-.8,59,59,0,0,1,5.15,3.28c1.56,1.16,4.77,3.83,4.78,3.83a4,4,0,0,1,.85,5.19v0a21.69,21.69,0,0,1-4.32,5.31l0,0a8.55,8.55,0,0,1-4.38,2.12,2.76,2.76,0,0,1-.64,0,5.88,5.88,0,0,1-1.86-.29l0-.07c-2.21-.62-5.9-2.18-12-5.57A70.72,70.72,0,0,1,100,399.26a51.18,51.18,0,0,1-4.55-4l-.16-.15-.15-.16h0l-.15-.15-.16-.15a54.36,54.36,0,0,1-4-4.55A71.67,71.67,0,0,1,84.09,380c-3.39-6.14-5-9.82-5.57-12l-.07,0a5.87,5.87,0,0,1-.28-1.86,2.72,2.72,0,0,1,0-.64A8.7,8.7,0,0,1,80.32,361s0,0,0,0a21.65,21.65,0,0,1,5.31-4.32h0a4,4,0,0,1,5.18.84s2.68,3.22,3.83,4.78S97,365.63,98,367.4a4.55,4.55,0,0,1-.8,5.77l-2.61,2.07a3.86,3.86,0,0,0-1.14,3S97.32,392.89,111.75,396.58Z" transform="translate(0 -277)"/></g></g></symbol><symbol id="WhatsApp" viewBox="0 0 215 215" xmlns="http://www.w3.org/2000/svg"><defs><style>.scls-1{fill:#25d366;}.scls-2,.scls-3{fill:#fff;}.scls-3{fill-rule:evenodd;}</style></defs><g id="sWhatsApp"><circle id="sBackground" class="scls-1" cx="107.5" cy="107.5" r="107.5"/><g id="sWhatsApp-2" data-name="WhatsApp"><path id="sWhatsApp-3" data-name="WhatsApp" class="scls-2" d="M885.91,161l7.55-27.56a53.18,53.18,0,1,1,46.09,26.64h0a53.18,53.18,0,0,1-25.41-6.48Zm29.5-17,1.62,1a44.21,44.21,0,0,0,22.5,6.17h0a44.22,44.22,0,1,0-37.45-20.72l1,1.67-4.47,16.31Z" transform="translate(-831)"/><path id="sWhatsApp-4" data-name="WhatsApp" class="scls-3" d="M966.34,119.54c-.33-.56-1.22-.89-2.55-1.55s-7.86-3.88-9.08-4.33-2.1-.66-3,.67-3.43,4.32-4.2,5.21-1.56,1-2.88.33A36.31,36.31,0,0,1,934,113.28a40,40,0,0,1-7.39-9.21c-.78-1.33-.09-2,.58-2.71s1.33-1.56,2-2.33a8.84,8.84,0,0,0,1.33-2.22,2.47,2.47,0,0,0-.11-2.33c-.33-.66-3-7.2-4.1-9.86s-2.17-2.24-3-2.29-1.66,0-2.54,0A4.89,4.89,0,0,0,917.17,84,14.91,14.91,0,0,0,912.52,95c0,6.54,4.76,12.86,5.43,13.75s9.37,14.31,22.7,20.06a75.55,75.55,0,0,0,7.58,2.8,18.27,18.27,0,0,0,8.37.53c2.55-.38,7.86-3.22,9-6.32S966.67,120.09,966.34,119.54Z" transform="translate(-831)"/></g></g></symbol><symbol viewBox="0 0 433 361" id="advantage1" xmlns="http://www.w3.org/2000/svg"><path d="M47.968 8.03286e-05C42.7122 -0.010463 37.506 1.01697 32.6482 3.02343C27.7904 5.02988 23.3767 7.97585 19.6602 11.6923C15.9438 15.4087 12.9978 19.8225 10.9913 24.6803C8.98489 29.5381 7.95746 34.7442 7.968 40.0001V72.0001C7.968 94.1601 25.808 112 47.968 112H55.968V222.4C55.968 232.224 63.104 240.128 71.968 240.128V256.128C71.968 262.128 75.408 267.136 80.288 269.888C80.0866 270.617 79.9896 271.372 80 272.128V336.128C80 340.704 76.56 344.128 72 344.128H8C5.87827 344.128 3.84344 344.971 2.34315 346.471C0.842856 347.972 0 350.006 0 352.128C0 354.25 0.842856 356.285 2.34315 357.785C3.84344 359.285 5.87827 360.128 8 360.128H72C85.152 360.128 96 349.28 96 336.128V272.128C96 271.37 95.8923 270.616 95.68 269.888C98.1694 268.55 100.253 266.566 101.711 264.145C103.169 261.723 103.949 258.954 103.968 256.128V240.128C112.832 240.128 119.968 232.224 119.968 222.416V183.872C120.5 183.98 121.041 184.034 121.584 184.032H167.984C181.152 184.032 191.984 173.2 191.984 160.032V112.032H247.968V96.0321H264.032C266.806 96.0115 269.525 95.2577 271.913 93.8471C274.302 92.4365 276.275 90.4193 277.632 88.0001C277.739 88.0022 277.845 88.0022 277.952 88.0001C291.12 88.0001 301.952 77.1841 301.952 64.0321H424.72C426.842 64.0321 428.877 63.1892 430.377 61.6889C431.877 60.1886 432.72 58.1538 432.72 56.0321C432.72 53.9103 431.877 51.8755 430.377 50.3752C428.877 48.8749 426.842 48.0321 424.72 48.0321H301.952C301.952 34.8801 291.104 24.0321 277.952 24.0321C277.824 24.029 277.696 24.029 277.568 24.0321C276.208 21.628 274.24 19.6236 271.862 18.2195C269.484 16.8154 266.778 16.0611 264.016 16.0321H247.952V0.032078H47.952L47.968 8.03286e-05ZM47.968 24.0321H223.968V40.0321H47.968V24.0321ZM47.968 72.0321H223.968V88.0321H47.968V72.0321ZM119.968 112H144V143.904C144 146.026 144.843 148.061 146.343 149.561C147.843 151.061 149.878 151.904 152 151.904C154.122 151.904 156.157 151.061 157.657 149.561C159.157 148.061 160 146.026 160 143.904V112H176V160C176 164.576 172.56 168 168 168H121.6C121.052 167.997 120.505 168.051 119.968 168.16V112Z"/></symbol><symbol viewBox="0 0 344 416" id="advantage2" xmlns="http://www.w3.org/2000/svg"><path d="M215.676 132.8V28.016C215.676 26.368 215.581 24.736 215.389 23.136C246.117 30.848 268.484 46.912 283.988 67.552C305.301 95.864 314.061 133.04 314.061 169.352C314.061 173.776 317.669 177.384 322.101 177.384L322.572 177.368C326.868 177.56 331.044 179.096 334.492 181.672L334.876 181.92C338.196 184.496 340.804 188.088 342.156 192.408H342.124C343.94 198.104 343.244 204.008 340.74 208.888C338.516 213.192 334.877 216.768 330.165 218.776C277.125 198.984 224.076 189.144 171.196 189.16C118.284 189.192 65.5244 199.096 12.9484 218.776C8.27644 216.704 4.63655 213.192 2.41255 208.888C-0.107446 204.008 -0.795479 198.104 1.02852 192.408L1.2126 191.808C2.6606 187.624 5.29256 184.152 8.62056 181.672L8.65254 181.656L8.68453 181.672C12.2685 178.984 16.6606 177.432 21.1806 177.352C25.5726 177.296 29.0844 173.712 29.0844 169.352C29.0844 133.04 37.8764 95.864 59.1564 67.552C74.6925 46.896 97.0686 30.824 127.765 23.12C127.581 24.72 127.517 26.352 127.517 28.016V132.8C127.517 144.96 132.445 156.008 140.413 163.976C148.357 171.936 159.413 176.88 171.581 176.88C183.757 176.88 194.804 171.936 202.78 163.976C210.716 156.008 215.676 144.96 215.676 132.8Z"/><path d="M30.1486 261.888C33.7886 258.184 38.4045 255.424 43.5485 253.976C43.4525 260.008 43.4845 266.032 43.6125 271.992C43.9325 286.176 44.9006 299.92 46.9726 312.352L47.2526 314.112C40.6686 313.04 34.7726 309.904 30.2766 305.448C24.6926 299.864 21.2365 292.144 21.2365 283.608C21.2365 275.128 24.6286 267.472 30.1486 261.888Z"/><path d="M312.869 305.448C308.349 309.968 302.453 313.04 295.829 314.112L296.109 312.352C298.181 299.928 299.188 286.112 299.5 271.928C299.628 265.968 299.629 260 299.565 253.976C304.717 255.424 309.293 258.184 312.973 261.888C318.493 267.472 321.908 275.128 321.908 283.608C321.908 292.136 318.461 299.864 312.869 305.448Z"/><path d="M278.22 219.08H64.6765C100.14 209.848 135.668 205.192 171.196 205.176C206.788 205.16 242.436 209.792 278.22 219.08Z"/><path d="M283.181 235.144C283.557 246.76 283.709 261.008 283.461 271.616C283.181 285.112 282.244 298.104 280.324 309.84C275.684 337.96 260.596 364.952 240.156 384.728C220.54 403.688 196.093 415.864 171.549 415.864C147.045 415.864 122.557 403.688 102.941 384.672C82.5406 364.96 67.4126 337.968 62.7966 309.848C60.8446 298.104 59.9325 285.112 59.6525 271.68C59.3965 261.008 59.5566 246.76 59.9006 235.144H283.181Z"/><path d="M199.604 28.016V132.8C199.604 140.536 196.461 147.552 191.381 152.608C186.325 157.672 179.3 160.816 171.572 160.816C163.852 160.816 156.821 157.672 151.765 152.608C146.717 147.552 143.581 140.536 143.581 132.8V28.016C143.581 20.296 146.717 13.28 151.765 8.208C156.821 3.136 163.852 0 171.572 0C179.3 0 186.325 3.136 191.381 8.208C196.461 13.28 199.604 20.296 199.604 28.016Z"/></symbol><symbol viewBox="0 0 352 378" id="advantage3" xmlns="http://www.w3.org/2000/svg"><path d="M24 0C37.44 0 48 10.56 48 24V32H0V24C0 10.56 10.56 0 24 0ZM55.776 0H328C341.44 0 352 10.56 352 24V352H304V323.472C313.744 314.672 320 302.096 320 288C320 261.6 298.4 240 272 240C245.6 240 224 261.6 224 288C224 302.08 230.256 314.672 240 323.472V352H64V24C64 14.976 60.864 6.72 55.776 0ZM144 32V48H272V32H144ZM96 80V96H320V80H96ZM96 112V128H320V112H96ZM96 144V160H320V144H96ZM96 176V192H320V176H96ZM96 208V224H320V208H96ZM96 240V256H208V240H96ZM272 256C289.76 256 304 270.24 304 288C304 305.76 289.76 320 272 320C254.24 320 240 305.76 240 288C240 270.24 254.24 256 272 256ZM256 333.024C261.024 334.832 266.368 336 272 336C277.632 336 282.976 334.832 288 333.024V377.056L276.432 369.344C275.119 368.47 273.577 368.004 272 368.004C270.423 368.004 268.881 368.47 267.568 369.344L256 377.056V333.024Z"/></symbol><symbol viewBox="0 0 496 427" id="advantage4" xmlns="http://www.w3.org/2000/svg"><path d="M351.984 0H359.984C373.424 0 383.984 10.56 383.984 24V297.953C377.168 292.529 369.344 287.984 359.984 287.984H351.984V0ZM23.984 64H335.984V304H359.984C373.424 304 383.984 314.56 383.984 328C383.984 341.44 373.424 352 359.984 352H24.016C14.976 352 6.73599 355.137 0.0159912 360.225V88C0.0159912 74.56 10.576 64 24.016 64H23.984ZM431.984 80H495.984V352H431.984V336H463.984V320H431.984V304H447.984V288H431.984V272H463.984V256H431.984V240H447.984V224H431.984V208H463.984V192H431.984V176H447.984V160H431.984V144H463.984V128H431.984V112H447.984V96H431.984V80ZM55.984 96C53.8623 96 51.8274 96.8435 50.3271 98.3438C48.8268 99.844 47.984 101.878 47.984 104V312C47.984 314.122 48.8268 316.156 50.3271 317.656C51.8274 319.157 53.8623 320 55.984 320H295.984C298.106 320 300.141 319.157 301.641 317.656C303.141 316.156 303.984 314.122 303.984 312V104C303.984 101.878 303.141 99.844 301.641 98.3438C300.141 96.8435 298.106 96 295.984 96H127.984V112H159.984V160H175.984V112H287.984V208H239.984V144H223.984V208H191.984V224H287.984V304H271.984V248C271.984 245.878 271.141 243.844 269.641 242.344C268.141 240.843 266.106 240 263.984 240H199.984C197.862 240 195.827 240.843 194.327 242.344C192.827 243.844 191.984 245.878 191.984 248V304H175.984V192.785H159.984V303.984H63.984V239.984H127.984V223.984H63.984V111.984H95.984V95.9844L55.984 96ZM207.984 256H255.984V304H207.984V256ZM23.984 368H32V416H24C10.56 416 0 405.44 0 392C0 378.56 10.56 368 24 368H23.984ZM325.264 395.104C331.936 395.104 336.784 399.807 336.784 405.023L336.832 416.992C336.832 422.272 332.24 426.96 325.392 426.992H317.104L316.944 395.104H325.264ZM304.72 394.4L304.752 404.16L176.768 403.84L176.736 394.625L304.72 394.4ZM160.784 394.4L160.816 410.16L160.848 426.4L139.968 410.656L160.784 394.4ZM176.832 416.641L304.848 416.961L304.88 426.176V426.656L176.88 426.641L176.832 416.641Z"/></symbol><symbol id="logo" enable-background="new 0 0 512 512" viewBox="0 0 512 512" xmlns="http://www.w3.org/2000/svg"><g><path d="m194.798 52.743h122.404v30h-122.404z"/><path d="m194.798 146.872h122.404v30h-122.404z"/><path d="m194.798 241h122.404v30h-122.404z"/><path d="m194.798 335.128h122.404v30h-122.404z"/><path d="m194.798 429.257h122.404v30h-122.404z"/><path d="m99.214 0h65.584v512h-65.584z"/><path d="m347.202 0h65.584v512h-65.584z"/></g></symbol><symbol viewBox="0 0 32 32" id="mail" xmlns="http://www.w3.org/2000/svg"><path d="m30 8h-28c-1.104 0-2 .896-2 2v3.358l16 6.4 16-6.4v-3.358c0-1.104-.896-2-2-2zm-30 8.624v13.376c0 1.104.896 2 2 2h28c1.104 0 2-.896 2-2v-13.376l-16 6.4z"/></symbol><symbol viewBox="0 0 32 32" id="mobile" xmlns="http://www.w3.org/2000/svg"><path d="m24 32c1.104 0 2-.896 2-2v-28c0-1.104-.896-2-2-2h-14c-1.104 0-2 .896-2 2v28c0 1.104.896 2 2 2zm-8-3.124c0-.622.504-1.124 1.124-1.124s1.124.504 1.124 1.124-.502 1.124-1.124 1.124-1.124-.504-1.124-1.124zm5-26.876c.552 0 1 .448 1 1s-.448 1-1 1h-2c-.552 0-1-.448-1-1s.448-1 1-1zm-5 1c0 .552-.448 1-1 1s-1-.448-1-1 .448-1 1-1 1 .448 1 1zm-6 3h14v20h-14z"/></symbol><symbol viewBox="0 0 32 32" id="pin" xmlns="http://www.w3.org/2000/svg"><path d="m15.272 31.458c.168.186.33.306.486.39.002.002.006.002.008.004.108.056.214.098.314.098s.206-.042.314-.098c.002-.002.006-.002.008-.004.156-.084.318-.204.486-.39 0 0 9.296-10.11 10.23-18.87.056-.452.094-.91.094-1.376 0-6.192-5.02-11.212-11.212-11.212s-11.212 5.02-11.212 11.212c0 .474.038.936.096 1.394.958 8.756 10.388 18.852 10.388 18.852zm.728-27.458c3.976 0 7.212 3.236 7.212 7.212s-3.236 7.212-7.212 7.212-7.212-3.236-7.212-7.212 3.236-7.212 7.212-7.212z"/></symbol><symbol viewBox="0 0 51 50" id="stages1" xmlns="http://www.w3.org/2000/svg"><path d="M11.4685 21.0872C11.3474 21.382 11.42 21.7195 11.6523 21.9407C11.8844 22.1619 12.2299 22.2229 12.5259 22.0947L16.3816 20.4243C17.808 21.3306 19.4432 21.9138 21.1389 22.1179C21.5898 22.1722 22.0375 22.199 22.4809 22.2004C24.115 23.0511 25.9305 23.4903 27.7623 23.4903C28.5092 23.4903 29.2588 23.4174 29.9995 23.2701C31.6739 22.9371 33.2581 22.2307 34.6085 21.2181L38.5846 22.5889C38.8898 22.694 39.2293 22.6071 39.4434 22.3687C39.6574 22.1303 39.7032 21.7883 39.5591 21.5037L37.6539 17.7393C38.9423 15.4393 39.3592 12.7759 38.8269 10.1901C37.7621 5.01658 33.1457 1.3088 27.8054 1.29103C26.6009 0.663395 25.2772 0.251679 23.8836 0.0840049C20.8901 -0.276441 17.9331 0.530779 15.5571 2.35684C13.1812 4.1829 11.6708 6.80915 11.3043 9.75199C10.9781 12.3706 11.6043 14.9943 13.0706 17.1888L11.4685 21.0872ZM37.269 10.4997C37.7514 12.8437 37.3263 15.262 36.0718 17.3092C35.9317 17.5379 35.92 17.8212 36.041 18.0603L37.2647 20.478L34.7203 19.6008C34.457 19.51 34.1645 19.5617 33.9498 19.737C32.7268 20.7347 31.2518 21.4269 29.6843 21.7387C28.3856 21.997 27.0559 21.9873 25.7774 21.7249C29.9243 20.4864 33.1584 16.9438 33.7182 12.4499C34.0848 9.50717 33.2636 6.60026 31.4062 4.26463C31.1155 3.89921 30.805 3.55458 30.4764 3.23183C33.8601 4.20096 36.5382 6.95016 37.269 10.4997ZM12.8817 9.94164C13.1966 7.41314 14.4944 5.15652 16.5359 3.58759C18.5773 2.01856 21.1181 1.32511 23.6903 1.63468C26.2624 1.94424 28.5579 3.22001 30.1539 5.22693C31.7499 7.23375 32.4555 9.73148 32.1406 12.2601C31.5391 17.0882 27.3462 20.6388 22.5183 20.6384C20.5269 20.6383 18.5485 20.0271 16.9212 18.8973C16.7073 18.7488 16.3903 18.7131 16.1422 18.8206L13.6748 19.8895L14.7037 17.3856C14.8054 17.138 14.7715 16.8565 14.6137 16.6391C13.2011 14.6939 12.5861 12.3154 12.8817 9.94164ZM21.5065 11.1008C21.5065 10.5615 21.9513 10.1243 22.4999 10.1243C23.0486 10.1243 23.4933 10.5615 23.4933 11.1008C23.4933 11.6402 23.0486 12.0774 22.4999 12.0774C21.9513 12.0774 21.5065 11.6402 21.5065 11.1008ZM26.053 11.1008C26.053 10.5615 26.4977 10.1243 27.0464 10.1243C27.595 10.1243 28.0398 10.5615 28.0398 11.1008C28.0398 11.6402 27.595 12.0774 27.0464 12.0774C26.4978 12.0774 26.053 11.6402 26.053 11.1008ZM16.9824 11.1008C16.9824 10.5615 17.4272 10.1243 17.9758 10.1243C18.5245 10.1243 18.9692 10.5615 18.9692 11.1008C18.9692 11.6402 18.5245 12.0774 17.9758 12.0774C17.4272 12.0774 16.9824 11.6402 16.9824 11.1008ZM15.502 37.9741C17.2551 36.8405 18.4156 34.8905 18.4156 32.6779C18.4156 29.1844 15.5243 26.3421 11.9705 26.3421C8.41661 26.3421 5.52534 29.1844 5.52534 32.6779C5.52534 34.8904 6.68582 36.8405 8.43896 37.9741C3.55684 39.4589 0 43.938 0 49.2188C0 49.6502 0.355833 50 0.794713 50H23.146C23.5849 50 23.9407 49.6502 23.9407 49.2188C23.9407 43.9381 20.384 39.459 15.502 37.9741ZM7.11477 32.6779C7.11477 30.0459 9.29298 27.9046 11.9705 27.9046C14.648 27.9046 16.8262 30.0459 16.8262 32.6779C16.8262 35.3095 14.6486 37.4506 11.9718 37.4513C11.9713 37.4513 11.9709 37.4513 11.9705 37.4513C11.9701 37.4513 11.9697 37.4513 11.9693 37.4513C9.29228 37.4506 7.11477 35.3095 7.11477 32.6779ZM1.61953 48.4375C2.02662 43.1744 6.51287 39.0144 11.9691 39.0138C11.9695 39.0138 11.97 39.0138 11.9704 39.0138C11.9708 39.0138 11.9712 39.0138 11.9717 39.0138C17.4279 39.0144 21.914 43.1744 22.3211 48.4375H1.61953ZM42.4228 37.9741C44.1759 36.8405 45.3365 34.8905 45.3365 32.6779C45.3365 29.1844 42.4452 26.3421 38.8914 26.3421C35.3376 26.3421 32.4464 29.1844 32.4464 32.6779C32.4464 34.8904 33.6068 36.8405 35.36 37.9741C30.4778 39.4589 26.9209 43.938 26.9209 49.2188C26.9209 49.6502 27.2767 50 27.7156 50H50.0669C50.5058 50 50.8617 49.6502 50.8617 49.2188C50.8617 43.9381 47.3049 39.459 42.4228 37.9741ZM34.0357 32.6779C34.0357 30.0459 36.2139 27.9046 38.8913 27.9046C41.5688 27.9046 43.747 30.0459 43.747 32.6779C43.747 35.3095 41.5694 37.4506 38.8925 37.4513C38.8921 37.4513 38.8916 37.4513 38.8912 37.4513C38.8908 37.4513 38.8904 37.4513 38.8899 37.4513C36.2132 37.4506 34.0357 35.3095 34.0357 32.6779ZM28.5404 48.4375C28.9475 43.1744 33.4338 39.0144 38.89 39.0138C38.8904 39.0138 38.8909 39.0138 38.8913 39.0138C38.8917 39.0138 38.8922 39.0138 38.8926 39.0138C44.3488 39.0144 48.835 43.1744 49.242 48.4375H28.5404Z"/></symbol><symbol viewBox="0 0 51 50" id="stages2" xmlns="http://www.w3.org/2000/svg"><path d="M21.1773 46.875C21.6409 46.875 22.0941 46.7375 22.4796 46.48C22.8651 46.2225 23.1656 45.8564 23.343 45.4282C23.5204 44.9999 23.5668 44.5287 23.4764 44.074C23.3859 43.6194 23.1627 43.2017 22.8348 42.874C22.507 42.5462 22.0893 42.323 21.6346 42.2325C21.1799 42.1421 20.7086 42.1885 20.2802 42.3659C19.8519 42.5433 19.4858 42.8437 19.2282 43.2291C18.9707 43.6146 18.8332 44.0677 18.8332 44.5312C18.8332 45.1529 19.0801 45.749 19.5197 46.1885C19.9594 46.6281 20.5556 46.875 21.1773 46.875ZM21.1773 43.75C21.3845 43.75 21.5833 43.8323 21.7298 43.9788C21.8763 44.1253 21.9587 44.324 21.9587 44.5312C21.9587 44.7385 21.8763 44.9372 21.7298 45.0837C21.5833 45.2302 21.3845 45.3125 21.1773 45.3125C20.9701 45.3125 20.7713 45.2302 20.6248 45.0837C20.4782 44.9372 20.3959 44.7385 20.3959 44.5312C20.3959 44.324 20.4782 44.1253 20.6248 43.9788C20.7713 43.8323 20.9701 43.75 21.1773 43.75ZM21.1695 3.125C21.0149 3.125 20.8639 3.17082 20.7354 3.25666C20.6069 3.34251 20.5067 3.46452 20.4476 3.60728C20.3884 3.75003 20.373 3.90712 20.4031 4.05866C20.4333 4.21021 20.5077 4.34942 20.617 4.45868C20.7262 4.56794 20.8655 4.64234 21.017 4.67249C21.1686 4.70263 21.3257 4.68716 21.4685 4.62803C21.6113 4.5689 21.7333 4.46877 21.8192 4.34029C21.905 4.21181 21.9509 4.06077 21.9509 3.90625C21.9509 3.69905 21.8685 3.50034 21.722 3.35382C21.5755 3.20731 21.3767 3.125 21.1695 3.125ZM10.2381 10.9375C9.31081 10.9375 8.40439 11.2124 7.63341 11.7275C6.86243 12.2426 6.26153 12.9746 5.90669 13.8312C5.55184 14.6877 5.459 15.6302 5.6399 16.5395C5.8208 17.4488 6.26731 18.284 6.92297 18.9396C7.57863 19.5951 8.414 20.0416 9.32343 20.2224C10.2329 20.4033 11.1755 20.3105 12.0322 19.9557C12.8888 19.6009 13.621 19.0001 14.1362 18.2292C14.6513 17.4584 14.9263 16.5521 14.9263 15.625C14.9263 14.3818 14.4324 13.1895 13.5531 12.3104C12.6739 11.4314 11.4815 10.9375 10.2381 10.9375ZM10.2381 18.75C9.61989 18.75 9.01561 18.5667 8.50163 18.2233C7.98764 17.88 7.58704 17.3919 7.35048 16.8209C7.11392 16.2499 7.05202 15.6215 7.17262 15.0153C7.29322 14.4092 7.59089 13.8523 8.028 13.4153C8.46511 12.9783 9.02202 12.6806 9.6283 12.56C10.2346 12.4395 10.863 12.5014 11.4341 12.7379C12.0052 12.9744 12.4934 13.3749 12.8368 13.8888C13.1802 14.4027 13.3636 15.0069 13.3636 15.625C13.3636 16.4538 13.0343 17.2487 12.4481 17.8347C11.862 18.4208 11.067 18.75 10.2381 18.75ZM23.2917 21.875C22.7285 21.5244 22.0988 21.2943 21.4423 21.1991C20.7857 21.1039 20.1166 21.1457 19.477 21.3219C19.3757 21.3465 19.2803 21.3912 19.1965 21.4533C19.1127 21.5153 19.0422 21.5936 18.9891 21.6833C18.936 21.7731 18.9014 21.8726 18.8874 21.9759C18.8734 22.0792 18.8802 22.1843 18.9074 22.285C18.9346 22.3856 18.9817 22.4798 19.0459 22.562C19.1102 22.6442 19.1902 22.7126 19.2813 22.7634C19.3724 22.8142 19.4727 22.8462 19.5764 22.8576C19.6801 22.869 19.785 22.8595 19.8849 22.8297C20.3158 22.7103 20.7668 22.6812 21.2094 22.7444C21.6521 22.8076 22.0769 22.9617 22.4572 23.1969C22.7221 23.3491 22.9536 23.5533 23.1378 23.797C23.322 24.0408 23.4551 24.3192 23.5292 24.6156C23.57 25.1593 23.4335 25.7016 23.1403 26.1613C22.847 26.621 22.4127 26.9734 21.9024 27.1656C21.6133 27.2859 21.3164 27.3828 21.0195 27.4781C20.4631 27.6379 19.9248 27.8547 19.413 28.125C18.3008 28.7819 17.4894 29.8472 17.1517 31.0937C17.0336 31.5173 17.0049 31.9607 17.0673 32.3959C17.1297 32.8311 17.2819 33.2486 17.5142 33.6219C17.872 34.107 18.3452 34.4951 18.891 34.7511C19.4368 35.007 20.0379 35.1227 20.6397 35.0875C21.4728 35.0841 22.2942 34.8912 23.0417 34.5234C23.2282 34.4321 23.3707 34.2704 23.438 34.0739C23.5052 33.8774 23.4917 33.6623 23.4003 33.4758C23.3089 33.2893 23.1472 33.1468 22.9507 33.0795C22.7542 33.0123 22.539 33.0258 22.3525 33.1172C21.8099 33.4546 21.1714 33.6045 20.5353 33.5438C19.8992 33.4831 19.3006 33.2152 18.8316 32.7812C18.7139 32.5864 18.6384 32.3691 18.6102 32.1432C18.5819 31.9174 18.6014 31.6881 18.6675 31.4703C18.904 30.6408 19.4455 29.9313 20.1834 29.4844C20.6035 29.269 21.0437 29.0952 21.4977 28.9656C21.8352 28.8563 22.1728 28.7453 22.5009 28.6094C23.34 28.2807 24.0467 27.6835 24.5106 26.9109C24.9745 26.1384 25.1696 25.2341 25.0654 24.3391C24.9548 23.8286 24.7403 23.3463 24.4351 22.9224C24.13 22.4985 23.7407 22.1419 23.2917 21.875ZM23.0995 18.3594C23.1714 18.4775 23.2723 18.5754 23.3927 18.6438C23.513 18.7121 23.6487 18.7487 23.7871 18.75H27.3814C27.5198 18.7487 27.6555 18.7121 27.7758 18.6438C27.8961 18.5754 27.997 18.4775 28.069 18.3594L29.8662 15.2344C29.9347 15.1156 29.9709 14.9809 29.9709 14.8438C29.9709 14.7066 29.9347 14.5719 29.8662 14.4531L28.069 11.3281C27.997 11.21 27.8961 11.1121 27.7758 11.0437C27.6555 10.9754 27.5198 10.9388 27.3814 10.9375H23.7871C23.6487 10.9388 23.513 10.9754 23.3927 11.0437C23.2723 11.1121 23.1714 11.21 23.0995 11.3281L21.3023 14.4531C21.2337 14.5719 21.1976 14.7066 21.1976 14.8438C21.1976 14.9809 21.2337 15.1156 21.3023 15.2344L23.0995 18.3594ZM24.2403 12.5H26.9438L28.2878 14.8438L26.9438 17.1875H24.2403L22.8807 14.8438L24.2403 12.5ZM49.7287 9.71875C48.9845 9.01158 47.9971 8.61726 46.9704 8.61726C45.9438 8.61726 44.9564 9.01158 44.2122 9.71875L43.1073 10.8234L41.493 12.4375V3.90625C41.4901 2.87114 41.0776 1.87924 40.3455 1.1473C39.6135 0.415363 38.6214 0.00288622 37.5861 0L4.76844 0C3.73228 0 2.73855 0.41155 2.00587 1.14411C1.27319 1.87668 0.861572 2.87025 0.861572 3.90625L0.861572 46.0938C0.861572 47.1298 1.27319 48.1233 2.00587 48.8559C2.73855 49.5884 3.73228 50 4.76844 50H37.5861C38.6214 49.9971 39.6135 49.5846 40.3455 48.8527C41.0776 48.1208 41.4901 47.1289 41.493 46.0938V23.4844L48.627 16.3516L49.7209 15.2578C50.4515 14.5227 50.8616 13.5285 50.8616 12.4922C50.8616 11.4559 50.4515 10.4616 49.7209 9.72656L49.7287 9.71875ZM2.42432 3.90625C2.42432 3.28465 2.67129 2.68851 3.1109 2.24897C3.55051 1.80943 4.14674 1.5625 4.76844 1.5625H37.5861C38.2078 1.5625 38.8041 1.80943 39.2437 2.24897C39.6833 2.68851 39.9303 3.28465 39.9303 3.90625V6.25H2.42432V3.90625ZM39.9303 46.0938C39.9303 46.7154 39.6833 47.3115 39.2437 47.751C38.8041 48.1906 38.2078 48.4375 37.5861 48.4375H4.76844C4.14674 48.4375 3.55051 48.1906 3.1109 47.751C2.67129 47.3115 2.42432 46.7154 2.42432 46.0938V40.625H39.9303V46.0938ZM39.9303 39.0625H2.42432V7.8125H39.9303V14L26.5219 27.4063C26.4125 27.5102 26.341 27.6477 26.3187 27.7969L25.2092 33.3281C25.1859 33.4543 25.1936 33.5842 25.2317 33.7067C25.2698 33.8292 25.3372 33.9406 25.428 34.0313C25.5748 34.1727 25.771 34.2512 25.9749 34.25H26.1312L31.6477 33.1406C31.6677 33.1387 31.6866 33.1311 31.7024 33.1187C31.718 33.1187 31.7321 33.1187 31.7477 33.1187H31.7571C31.8161 33.0908 31.8735 33.0595 31.929 33.025L31.9806 32.9875C31.9962 32.975 32.0134 32.9656 32.0275 32.9516L32.054 32.9313L39.9303 25.0469V39.0625ZM27.6564 29.0797C28.8299 29.6754 29.7825 30.6301 30.3756 31.8047L26.9751 32.4844L27.6564 29.0797ZM41.493 21.2812L39.9303 22.8437L31.7587 31.0141C31.0184 29.593 29.8591 28.4339 28.4378 27.6938L39.9303 16.2031L41.493 14.6406L43.6527 12.4812L46.9736 15.8016L41.493 21.2812ZM48.6348 14.1406L48.0878 14.7031L44.7592 11.375L45.3077 10.8266C45.7556 10.3978 46.3519 10.1584 46.972 10.1584C47.5922 10.1584 48.1884 10.3978 48.6363 10.8266C49.0671 11.2703 49.308 11.8644 49.308 12.4828C49.308 13.1012 49.0671 13.6953 48.6363 14.1391L48.6348 14.1406ZM12.5822 25H4.89346C4.73867 24.9984 4.58706 25.0439 4.45869 25.1304C4.33032 25.2169 4.23125 25.3403 4.1746 25.4844C4.11172 25.6254 4.09449 25.7825 4.12531 25.9338C4.15613 26.0851 4.23346 26.2229 4.3465 26.3281L12.0196 34.0156C12.1724 34.1595 12.3724 34.2428 12.5822 34.25C12.6835 34.2426 12.7834 34.2216 12.8791 34.1875C13.02 34.1264 13.1405 34.0263 13.2264 33.8989C13.3122 33.7716 13.3598 33.6223 13.3636 33.4688V25.7812C13.3636 25.574 13.2812 25.3753 13.1347 25.2288C12.9882 25.0823 12.7894 25 12.5822 25ZM11.8008 31.5781L6.78439 26.5625H11.8008V31.5781Z"/></symbol><symbol viewBox="0 0 52 50" id="stages3" xmlns="http://www.w3.org/2000/svg"><path d="M37.5282 45.8333C37.5282 46.4964 37.2648 47.1323 36.796 47.6011C36.3272 48.0699 35.6913 48.3333 35.0282 48.3333H5.02824C4.3652 48.3333 3.72931 48.0699 3.26047 47.6011C2.79163 47.1323 2.52824 46.4964 2.52824 45.8333V4.16667C2.52824 3.50363 2.79163 2.86774 3.26047 2.3989C3.72931 1.93006 4.3652 1.66667 5.02824 1.66667H30.8616V5.83333C30.8616 6.49637 31.125 7.13226 31.5938 7.6011C32.0626 8.06994 32.6985 8.33333 33.3616 8.33333H37.5282V25.8333H39.1949V7.5C39.1949 7.279 39.107 7.06708 38.9507 6.91083L32.2841 0.244167C32.1278 0.0878755 31.9159 4.71978e-05 31.6949 0H5.02824C3.92358 0.00132321 2.86454 0.440735 2.08342 1.22185C1.30231 2.00296 0.862895 3.062 0.861572 4.16667V45.8333C0.862895 46.938 1.30231 47.997 2.08342 48.7781C2.86454 49.5593 3.92358 49.9987 5.02824 50H35.0282C36.1329 49.9987 37.1919 49.5593 37.9731 48.7781C38.7542 47.997 39.1936 46.938 39.1949 45.8333V42.5H37.5282V45.8333ZM32.5282 5.83333V2.845L36.3499 6.66667H33.3616C33.1406 6.66667 32.9286 6.57887 32.7723 6.42259C32.616 6.26631 32.5282 6.05435 32.5282 5.83333Z"/><path d="M5.86127 5H7.52793V6.66667H5.86127V5ZM9.1946 5H14.1946V6.66667H9.1946V5ZM5.86127 8.33333H14.1946V10H5.86127V8.33333ZM49.9196 22.6083C49.1376 21.8282 48.078 21.39 46.9734 21.39C45.8687 21.39 44.8091 21.8282 44.0271 22.6083L29.2954 37.34C29.1794 37.4562 29.1002 37.604 29.0679 37.765L28.5279 40.4642L26.9388 42.0533C26.7035 42.2848 26.5164 42.5605 26.3882 42.8646C26.26 43.1687 26.1933 43.4952 26.1919 43.8252C26.1905 44.1552 26.2545 44.4822 26.3801 44.7874C26.5058 45.0925 26.6906 45.3698 26.9239 45.6032C27.1572 45.8366 27.4345 46.0215 27.7396 46.1472C28.0447 46.2729 28.3717 46.3369 28.7018 46.3356C29.0318 46.3343 29.3583 46.2677 29.6624 46.1396C29.9665 46.0115 30.2423 45.8244 30.4738 45.5892L32.0638 44L34.7629 43.46C34.924 43.4275 35.0719 43.348 35.1879 43.2317L49.9196 28.5C50.6995 27.718 51.1375 26.6586 51.1375 25.5542C51.1375 24.4497 50.6995 23.3903 49.9196 22.6083ZM30.2004 40.6017L30.5929 38.6367L33.8904 41.9342L31.9263 42.3275L30.2004 40.6017ZM31.6521 37.34L41.6696 27.3217L42.8488 28.5L32.8313 38.5183L31.6521 37.34ZM34.0096 39.6967L44.0279 29.6792L45.2063 30.8583L35.1879 40.875L34.0096 39.6967ZM42.8488 26.1433L43.4379 25.5542L46.9738 29.09L46.3838 29.68L42.8488 26.1433ZM29.2946 44.4108C29.136 44.5623 28.9251 44.6468 28.7059 44.6468C28.4866 44.6468 28.2757 44.5623 28.1171 44.4108C28.0396 44.3334 27.9782 44.2415 27.9362 44.1404C27.8943 44.0392 27.8727 43.9308 27.8727 43.8213C27.8727 43.7117 27.8943 43.6033 27.9362 43.5021C27.9782 43.401 28.0396 43.3091 28.1171 43.2317L29.2954 42.0533L30.4746 43.2325L29.2946 44.4108ZM48.7413 27.3225L48.1521 27.9117L44.6163 24.3758L45.2054 23.7867C45.4376 23.5545 45.7132 23.3703 46.0166 23.2447C46.3199 23.119 46.645 23.0544 46.9734 23.0544C47.3017 23.0544 47.6268 23.119 47.9301 23.2447C48.2335 23.3703 48.5091 23.5545 48.7413 23.7867C48.9734 24.0188 49.1576 24.2945 49.2832 24.5978C49.4089 24.9011 49.4736 25.2263 49.4736 25.5546C49.4736 25.8829 49.4089 26.208 49.2832 26.5114C49.1576 26.8147 48.9734 27.0903 48.7413 27.3225ZM35.1029 23.8417C35.2591 23.6843 35.3467 23.4717 35.3467 23.25C35.3467 23.0283 35.2591 22.8157 35.1029 22.6583L26.8529 14.4083C26.6934 14.2597 26.4835 14.177 26.2654 14.177C26.0474 14.177 25.8374 14.2597 25.6779 14.4083L23.4946 16.5917L22.2196 16.8417L19.7863 14.4083C19.6274 14.2548 19.4155 14.1683 19.1946 14.1667H16.0029L13.8946 12.05C13.7373 11.8939 13.5246 11.8063 13.3029 11.8063C13.0813 11.8063 12.8686 11.8939 12.7113 12.05L4.46127 20.3C4.30514 20.4573 4.21753 20.67 4.21753 20.8917C4.21753 21.1133 4.30514 21.326 4.46127 21.4833L10.4613 27.4833C10.2815 27.8532 10.1966 28.2619 10.2143 28.6728C10.232 29.0836 10.3516 29.4835 10.5625 29.8366C10.7733 30.1896 11.0687 30.4846 11.422 30.695C11.7753 30.9054 12.1754 31.0245 12.5863 31.0417C12.6087 31.6575 12.8649 32.2416 13.3029 32.675C13.7378 33.112 14.3204 33.3707 14.9363 33.4C14.9671 34.0155 15.2255 34.5976 15.6612 35.0334C16.097 35.4691 16.6791 35.7275 17.2946 35.7583C17.3216 36.2395 17.487 36.7025 17.771 37.0918C18.055 37.4811 18.4455 37.78 18.8954 37.9526C19.3453 38.1252 19.8355 38.164 20.307 38.0645C20.7785 37.965 21.2111 37.7313 21.5529 37.3917L22.4363 38.275C22.668 38.5074 22.9434 38.6918 23.2465 38.8176C23.5497 38.9434 23.8747 39.0082 24.2029 39.0082C24.5312 39.0082 24.8562 38.9434 25.1593 38.8176C25.4625 38.6918 25.7378 38.5074 25.9696 38.275C26.4093 37.8393 26.6657 37.252 26.6863 36.6333C27.3029 36.61 27.888 36.3551 28.3251 35.9196C28.7621 35.4841 29.0191 34.8998 29.0446 34.2833C29.6614 34.2562 30.2456 33.999 30.6821 33.5625C31.1186 33.126 31.3758 32.5418 31.4029 31.925C31.886 31.902 32.3519 31.7391 32.7441 31.456C33.1362 31.173 33.4376 30.7821 33.6115 30.3308C33.7855 29.8796 33.8245 29.3875 33.7239 28.9145C33.6232 28.4415 33.3872 28.008 33.0446 27.6667L32.1613 26.7833L35.1029 23.8417ZM6.22793 20.8917L13.3029 13.825L14.4779 15L7.41127 22.075L6.22793 20.8917ZM8.58627 23.25L16.0029 15.8333H18.8529L25.3779 22.3667C25.457 22.4427 25.52 22.5339 25.5629 22.6349C25.6059 22.7359 25.6281 22.8444 25.6281 22.9542C25.6281 23.0639 25.6059 23.1725 25.5629 23.2734C25.52 23.3744 25.457 23.4656 25.3779 23.5417C25.2203 23.6941 25.0097 23.7793 24.7904 23.7793C24.5712 23.7793 24.3605 23.6941 24.2029 23.5417L20.6696 20.0083C20.5094 19.8578 20.2978 19.774 20.0779 19.774C19.8581 19.774 19.6465 19.8578 19.4863 20.0083C19.0107 20.4635 18.3779 20.7176 17.7196 20.7176C17.0613 20.7176 16.4285 20.4635 15.9529 20.0083L14.7779 21.1833C15.0805 21.4805 15.426 21.7306 15.8029 21.925L11.5363 26.2L8.58627 23.25ZM21.2529 33.5583C20.9467 33.8698 20.7271 34.2559 20.6161 34.6783C20.505 35.1007 20.5062 35.5449 20.6196 35.9667L20.3696 36.2083C20.2925 36.2866 20.2003 36.3484 20.0986 36.39C19.9969 36.4315 19.8878 36.452 19.7779 36.45C19.6693 36.4518 19.5615 36.4313 19.4612 36.3898C19.3608 36.3482 19.2701 36.2864 19.1946 36.2083C19.0394 36.0544 18.9514 35.8453 18.9498 35.6267C18.9483 35.4081 19.0333 35.1978 19.1863 35.0417C19.1885 35.0417 19.1906 35.0408 19.1922 35.0392C19.1937 35.0377 19.1946 35.0355 19.1946 35.0333L21.5529 32.6833V32.675L20.3696 31.5L18.0113 33.8583C18.0029 33.8583 18.0029 33.8583 18.0029 33.8667C17.843 34.0122 17.6342 34.0921 17.418 34.0906C17.2018 34.089 16.9941 34.0061 16.8363 33.8583C16.6813 33.7004 16.5946 33.4879 16.5946 33.2667C16.5946 33.0454 16.6813 32.833 16.8363 32.675L19.1946 30.3167L18.0196 29.1417L15.6613 31.5C15.5836 31.5777 15.4913 31.6393 15.3898 31.6814C15.2883 31.7234 15.1795 31.7451 15.0696 31.7451C14.9597 31.7451 14.8509 31.7234 14.7494 31.6814C14.6479 31.6393 14.5556 31.5777 14.4779 31.5C14.4002 31.4223 14.3386 31.3301 14.2966 31.2285C14.2545 31.127 14.2329 31.0182 14.2329 30.9083C14.2329 30.7985 14.2545 30.6896 14.2966 30.5881C14.3386 30.4866 14.4002 30.3944 14.4779 30.3167L16.8363 27.9667L15.6613 26.7833L13.3029 29.1417C13.1437 29.2941 12.9317 29.3791 12.7113 29.3791C12.4908 29.3791 12.2789 29.2941 12.1196 29.1417C11.9644 28.9855 11.8773 28.7743 11.8773 28.5542C11.8773 28.334 11.9644 28.1228 12.1196 27.9667L17.6779 22.4C17.6946 22.4 17.7029 22.4083 17.7196 22.4083C18.5379 22.4111 19.3385 22.1703 20.0196 21.7167L23.0279 24.725C23.5044 25.1785 24.1369 25.4314 24.7946 25.4314C25.4523 25.4314 26.0849 25.1785 26.5613 24.725C27.0211 24.265 27.2835 23.6438 27.2929 22.9935C27.3022 22.3431 27.0577 21.7147 26.6113 21.2417L30.9863 25.6083L30.7363 25.85C30.3137 25.7376 29.8692 25.7376 29.4467 25.8502C29.0242 25.9627 28.6385 26.1839 28.3279 26.4917C27.8899 26.9251 27.6337 27.5092 27.6113 28.125C26.9902 28.1522 26.4023 28.4127 25.9651 28.8546C25.5279 29.2964 25.2735 29.8871 25.2529 30.5083C24.6368 30.5243 24.0498 30.7744 23.6117 31.208C23.1735 31.6415 22.9171 32.2257 22.8946 32.8417C22.2785 32.8731 21.6949 33.1279 21.2529 33.5583ZM24.7946 37.1C24.6344 37.2505 24.4228 37.3343 24.2029 37.3343C23.9831 37.3343 23.7715 37.2505 23.6113 37.1L22.4363 35.9167C22.349 35.842 22.2782 35.75 22.2282 35.6466C22.1781 35.5433 22.15 35.4306 22.1456 35.3159C22.1412 35.2011 22.1605 35.0867 22.2024 34.9797C22.2443 34.8728 22.3078 34.7757 22.3891 34.6945C22.4703 34.6132 22.5674 34.5497 22.6743 34.5078C22.7813 34.4659 22.8957 34.4466 23.0105 34.451C23.1252 34.4554 23.2379 34.4835 23.3412 34.5336C23.4446 34.5836 23.5366 34.6544 23.6113 34.7417L24.7946 35.9167C24.9507 36.074 25.0383 36.2867 25.0383 36.5083C25.0383 36.73 24.9507 36.9427 24.7946 37.1ZM27.1529 34.7417C26.9956 34.8978 26.7829 34.9854 26.5613 34.9854C26.3396 34.9854 26.1269 34.8978 25.9696 34.7417L24.7946 33.5583C24.6394 33.4022 24.5523 33.191 24.5523 32.9708C24.5523 32.7507 24.6394 32.5395 24.7946 32.3833C24.9507 32.2281 25.1619 32.141 25.3821 32.141C25.6023 32.141 25.8135 32.2281 25.9696 32.3833L27.1529 33.5583C27.3079 33.7163 27.3946 33.9287 27.3946 34.15C27.3946 34.3713 27.3079 34.5837 27.1529 34.7417ZM29.5029 32.3833C29.3453 32.5358 29.1347 32.621 28.9154 32.621C28.6962 32.621 28.4855 32.5358 28.3279 32.3833L27.1529 31.2C27.0737 31.125 27.0106 31.0345 26.9676 30.9342C26.9246 30.8339 26.9026 30.7258 26.9029 30.6167C26.9045 30.3961 26.9927 30.1851 27.1487 30.0291C27.3046 29.8732 27.5157 29.7849 27.7363 29.7833C27.9573 29.7842 28.1695 29.8708 28.3279 30.025L29.5029 31.2083C29.6581 31.3645 29.7453 31.5757 29.7453 31.7958C29.7453 32.016 29.6581 32.2272 29.5029 32.3833ZM31.8613 30.025C31.7051 30.1802 31.4939 30.2673 31.2738 30.2673C31.0536 30.2673 30.8424 30.1802 30.6863 30.025L29.5029 28.85C29.3468 28.6927 29.2592 28.48 29.2592 28.2583C29.2592 28.0367 29.3468 27.824 29.5029 27.6667C29.6623 27.5138 29.8738 27.4274 30.0946 27.425C30.3157 27.4259 30.5278 27.5125 30.6863 27.6667L31.8613 28.85C31.9404 28.926 32.0033 29.0173 32.0463 29.1182C32.0893 29.2192 32.1114 29.3278 32.1114 29.4375C32.1114 29.5472 32.0893 29.6558 32.0463 29.7568C32.0033 29.8577 31.9404 29.949 31.8613 30.025ZM25.0863 17.3583L26.2696 16.175L33.3363 23.25L32.1613 24.425L25.0863 17.3583ZM16.6946 43.3333H25.0279V45H16.6946V43.3333ZM5.86127 35H12.5279V36.6667H5.86127V35ZM5.86127 38.3333H14.1946V40H5.86127V38.3333ZM5.86127 31.6667H10.8613V33.3333H5.86127V31.6667Z"/></symbol><symbol viewBox="0 0 39 50" id="stages4" xmlns="http://www.w3.org/2000/svg"><path d="M9.69106 37.991C10.1821 37.991 10.5839 37.5892 10.5839 37.0981V33.8035C10.5839 33.3124 10.1821 32.9106 9.69106 32.9106C9.19999 32.9106 8.7982 33.3124 8.7982 33.8035V37.0981C8.7982 37.5892 9.19999 37.991 9.69106 37.991ZM9.69106 39.0089C9.12856 39.0089 8.68213 39.4642 8.68213 40.0178C8.68213 40.5714 9.13749 41.0356 9.69106 41.0356C10.2446 41.0356 10.7 40.5803 10.7 40.0178C10.7 39.4553 10.2446 39.0089 9.69106 39.0089Z"/><path d="M5.52162 15.5446C4.84437 15.5446 4.19486 15.8137 3.71598 16.2926C3.23709 16.7715 2.96805 17.421 2.96805 18.0982V24.875C1.36091 25.2857 0.137695 26.6786 0.137695 28.4196V38.6696C0.137695 40.7232 1.80734 42.3929 3.86091 42.3929H4.10198V47.1339C4.10198 48.7143 5.38769 50 6.96805 50H12.4323C13.7002 50 14.7359 49.1607 15.1198 48.0268H34.9681C37.0216 48.0268 38.6913 46.3571 38.6913 44.3036V34.0536C38.6913 32 37.0216 30.3304 34.9681 30.3304H34.8431V15.7768C35.7798 15.1608 36.549 14.322 37.082 13.3356C37.6149 12.3493 37.8948 11.2461 37.8966 10.125C37.8966 8.40179 37.2448 6.75893 36.0663 5.50893C35.4234 4.82143 34.6198 4.60714 33.9234 4.91964C33.1734 5.25893 32.7716 6.125 32.8877 7.16964L33.0663 8.92857C33.1198 9.46429 32.8788 9.86607 32.6555 10.1071C31.8877 10.9554 30.3252 10.9554 29.5663 10.1071C29.352 9.86607 29.102 9.46429 29.1556 8.92857L29.3341 7.16964C29.4502 6.02679 28.5752 5.19643 28.0395 4.89286C27.9354 4.83177 27.8197 4.79306 27.6997 4.77923C27.5798 4.76539 27.4583 4.77672 27.343 4.8125C27.218 4.84821 26.5573 5.05357 26.1466 5.50893C24.968 6.75893 24.3252 8.40179 24.3163 10.1339C24.3163 12.4107 25.477 14.5268 27.3698 15.7768V24.0982C26.8252 23.8036 26.227 23.5982 25.5395 23.5982C23.8073 23.5982 22.7538 24.7857 22.0305 25.9643H19.7359L17.4056 21.4821C16.6734 20.0804 15.5752 17.9643 13.2627 17.9643C12.5752 17.9643 11.9681 18.1696 11.4323 18.4643V18.1071C11.4323 16.6964 10.2806 15.5536 8.87877 15.5536H8.09305V5.24107H8.15555C8.64662 5.24107 9.04841 4.83929 9.04841 4.34821C9.04841 3.85714 8.64662 3.45536 8.15555 3.45536H8.09305V0.892857C8.09305 0.401786 7.69127 0 7.20019 0C6.70912 0 6.30734 0.401786 6.30734 0.892857V3.45536H6.24484C5.75377 3.45536 5.35198 3.85714 5.35198 4.34821C5.35198 4.83929 5.75377 5.24107 6.24484 5.24107H6.30734V15.5446H5.52162ZM12.4234 48.2143H6.95912C6.36091 48.2143 5.87877 47.7321 5.87877 47.1339V32.4821C5.87877 31.875 6.35198 31.4018 6.95912 31.4018H12.4234C13.0306 31.4018 13.5038 31.875 13.5038 32.4821V47.1339C13.5038 47.7321 13.0216 48.2143 12.4234 48.2143ZM26.102 10.125C26.102 8.85714 26.5841 7.65179 27.4502 6.72321L27.3698 8.75C27.2716 9.67857 27.5841 10.5893 28.227 11.3036C28.9413 12.0982 30.0127 12.5714 31.102 12.5714C32.1913 12.5714 33.2538 12.0982 33.968 11.3036C34.6198 10.5804 34.9234 9.67857 34.8252 8.74107C34.6288 6.83036 34.6109 6.83036 34.6556 6.63393C35.3966 7.26786 36.093 8.66964 36.093 10.1161C36.093 11.9375 35.0931 13.6071 33.5038 14.4821C33.2181 14.6429 33.0395 14.9375 33.0395 15.2679V30.3304H31.9859V17.1518C31.9859 16.6607 31.5841 16.2589 31.093 16.2589C30.602 16.2589 30.2002 16.6607 30.2002 17.1518V30.3304H29.1466V15.2679C29.1466 14.9464 28.968 14.6429 28.6823 14.4821C27.9009 14.0533 27.2487 13.423 26.7933 12.6568C26.338 11.8905 26.0962 11.0163 26.0931 10.125H26.102ZM25.5395 25.375C26.1288 25.375 26.6109 25.5536 26.9323 25.9018C27.2716 26.2679 27.4234 26.8036 27.3788 27.5179V31.2232C27.3788 31.7143 27.7806 32.1161 28.2716 32.1161H34.9591C36.0305 32.1161 36.8966 32.9821 36.8966 34.0536V44.3036C36.8966 45.375 36.0305 46.2411 34.9591 46.2411H15.2895V33.375H19.6109C19.9413 33.375 20.2448 33.1875 20.4055 32.8929L22.9859 27.9286C23.843 26.2768 24.5038 25.375 25.5395 25.375ZM11.8788 20.2679C12.2002 19.9286 12.6823 19.7411 13.2716 19.7411C14.2984 19.7411 14.9681 20.6429 15.8252 22.2946L18.4056 27.2589C18.5573 27.5536 18.8609 27.7411 19.2002 27.7411H21.0752L19.0752 31.5893H15.1109C14.727 30.4554 13.6913 29.6161 12.4234 29.6161H6.95912C5.37877 29.6161 4.09305 30.9018 4.09305 32.4821V40.6071H3.85198C2.78055 40.6071 1.91448 39.7411 1.91448 38.6696V28.4196C1.91448 27.3304 2.76269 26.4821 3.85198 26.4821H10.5395C11.0306 26.4821 11.4323 26.0804 11.4323 25.5893V21.7857C11.3966 21.1518 11.5395 20.6161 11.8788 20.2589V20.2679ZM9.64662 18.0982V24.6964H4.74484V18.0982C4.74484 17.6786 5.09305 17.3304 5.5127 17.3304H8.86984C9.29841 17.3304 9.63769 17.6786 9.63769 18.0982H9.64662Z"/></symbol><symbol viewBox="0 0 51 50" id="stages5" xmlns="http://www.w3.org/2000/svg"><path d="M49.858 6.66667C49.9675 6.66673 50.0759 6.64522 50.177 6.60336C50.2782 6.5615 50.3701 6.50012 50.4474 6.42273C50.5248 6.34533 50.5862 6.25344 50.6281 6.15231C50.6699 6.05118 50.6914 5.94279 50.6914 5.83333V0.833333C50.6914 0.723881 50.6699 0.61549 50.6281 0.514357C50.5862 0.413224 50.5248 0.321333 50.4474 0.243938C50.3701 0.166544 50.2782 0.105163 50.177 0.0633066C50.0759 0.0214498 49.9675 -6.23058e-05 49.858 1.35542e-07H28.1914C28.082 -9.15205e-06 27.9736 0.0215504 27.8725 0.0634463C27.7714 0.105342 27.6796 0.166753 27.6022 0.244167L0.935551 26.9108C0.85815 26.9882 0.79675 27.08 0.754859 27.1811C0.712968 27.2822 0.691406 27.3906 0.691406 27.5C0.691406 27.6095 0.712968 27.7178 0.754859 27.8189C0.79675 27.92 0.85815 28.0119 0.935551 28.0892L4.02472 31.1784V49.1667C4.02466 49.2761 4.04617 49.3845 4.08802 49.4856C4.12988 49.5868 4.19126 49.6787 4.26866 49.7561C4.34605 49.8335 4.43794 49.8948 4.53907 49.9367C4.64021 49.9785 4.7486 50.0001 4.85805 50H49.858C49.9675 50.0001 50.0759 49.9785 50.177 49.9367C50.2782 49.8948 50.3701 49.8335 50.4474 49.7561C50.5248 49.6787 50.5862 49.5868 50.6281 49.4856C50.6699 49.3845 50.6914 49.2761 50.6914 49.1667V22.5C50.6914 22.3905 50.6699 22.2822 50.6281 22.181C50.5862 22.0799 50.5248 21.988 50.4474 21.9106C50.3701 21.8332 50.2782 21.7718 50.177 21.73C50.0759 21.6881 49.9675 21.6666 49.858 21.6667H47.358V6.66667H49.858ZM28.5364 1.66667H49.0247V5H29.858C29.7486 4.99999 29.6403 5.02155 29.5392 5.06345C29.4381 5.10534 29.3462 5.16675 29.2689 5.24417L4.85805 29.655L2.7031 27.5L28.5364 1.66667ZM29.0247 21.6667V7.84505L30.2031 6.66667H42.358V21.6667H29.0247ZM5.69138 31.1784L7.35805 29.5117V41.6667H5.69138V31.1784ZM9.02472 27.845L24.0247 12.8451V28.3333H18.1914C18.0819 28.3333 17.9735 28.3548 17.8724 28.3966C17.7713 28.4385 17.6794 28.4999 17.602 28.5773C17.5246 28.6547 17.4632 28.7466 17.4214 28.8477C17.3795 28.9488 17.358 29.0572 17.3581 29.1667V35H11.5247C11.4153 34.9999 11.3069 35.0215 11.2057 35.0633C11.1046 35.1052 11.0127 35.1665 10.9353 35.2439C10.8579 35.3213 10.7965 35.4132 10.7547 35.5144C10.7128 35.6155 10.6913 35.7239 10.6914 35.8333V41.6667H9.02472V27.845ZM25.6914 11.1784L27.3581 9.51172V21.6667H25.6914V11.1784ZM34.858 35H44.0247V48.3333H34.858V35ZM33.1914 48.3333H24.0247V35H33.1914V48.3333ZM49.0247 48.3333H45.6914V34.1667C45.6914 34.0572 45.6699 33.9488 45.6281 33.8477C45.5862 33.7466 45.5248 33.6547 45.4474 33.5773C45.3701 33.4999 45.2782 33.4385 45.177 33.3966C45.0759 33.3548 44.9675 33.3333 44.858 33.3333H23.1914C23.0819 33.3333 22.9735 33.3548 22.8724 33.3966C22.7713 33.4385 22.6794 33.4999 22.602 33.5773C22.5246 33.6547 22.4632 33.7466 22.4214 33.8477C22.3795 33.9488 22.358 34.0572 22.3581 34.1667V48.3333H5.69138V43.3333H11.5247C11.6342 43.3334 11.7426 43.3119 11.8437 43.27C11.9448 43.2282 12.0367 43.1668 12.1141 43.0894C12.1915 43.012 12.2529 42.9201 12.2947 42.819C12.3366 42.7178 12.3581 42.6095 12.3581 42.5V36.6667H18.1914C18.3008 36.6667 18.4092 36.6452 18.5104 36.6034C18.6115 36.5615 18.7034 36.5001 18.7808 36.4227C18.8582 36.3453 18.9196 36.2534 18.9614 36.1523C19.0033 36.0512 19.0248 35.9428 19.0247 35.8333V30H24.8581C24.9675 30.0001 25.0759 29.9785 25.177 29.9367C25.2782 29.8948 25.3701 29.8335 25.4474 29.7561C25.5248 29.6787 25.5862 29.5868 25.6281 29.4856C25.6699 29.3845 25.6914 29.2761 25.6914 29.1667V23.3333H49.0247V48.3333ZM45.6914 21.6667H44.0247V6.66667H45.6914V21.6667Z"/><path d="M38.1916 39.1667H36.5249V44.1667H38.1916V39.1667Z"/><path d="M31.5246 39.1667H29.8579V44.1667H31.5246V39.1667Z"/></symbol><symbol viewBox="0 0 43 50" id="stages6" xmlns="http://www.w3.org/2000/svg"><path d="M21.486 6.24731C18.603 6.24731 15.7847 7.10223 13.3876 8.70396C10.9904 10.3057 9.12207 12.5823 8.01878 15.2458C6.9155 17.9094 6.62683 20.8403 7.18928 23.668C7.75173 26.4956 9.14004 29.0929 11.1786 31.1315C13.2173 33.1701 15.8146 34.5585 18.6422 35.1209C21.4699 35.6834 24.4008 35.3947 27.0643 34.2914C29.7279 33.1881 32.0045 31.3198 33.6062 28.9226C35.208 26.5255 36.0629 23.7072 36.0629 20.8242C36.0629 16.9581 34.5271 13.2505 31.7934 10.5168C29.0597 7.78308 25.352 6.24731 21.486 6.24731ZM21.486 33.3186C19.0149 33.3186 16.5992 32.5858 14.5445 31.2129C12.4898 29.84 10.8883 27.8886 9.94267 25.6056C8.997 23.3225 8.74957 20.8103 9.23167 18.3866C9.71377 15.9629 10.9037 13.7366 12.6511 11.9893C14.3985 10.2419 16.6248 9.0519 19.0485 8.5698C21.4722 8.0877 23.9844 8.33513 26.2674 9.2808C28.5505 10.2265 30.5019 11.8279 31.8748 13.8826C33.2477 15.9373 33.9805 18.353 33.9805 20.8242C33.9805 24.1379 32.6641 27.3159 30.3209 29.6591C27.9778 32.0022 24.7998 33.3186 21.486 33.3186Z"/><path d="M41.0293 17.9816C40.7541 17.7328 40.5668 17.4015 40.4955 17.0374C40.4242 16.6733 40.4727 16.2959 40.6337 15.9616C40.8624 15.4815 40.9876 14.9587 41.001 14.427C41.0144 13.8954 40.9157 13.3668 40.7114 12.8758C40.5072 12.3848 40.2019 11.9422 39.8153 11.577C39.4288 11.2117 38.9697 10.9318 38.468 10.7556C38.1155 10.637 37.8122 10.4053 37.605 10.0965C37.3979 9.78772 37.2986 9.41912 37.3226 9.04805C37.3534 8.4996 37.2655 7.95097 37.065 7.43955C36.8646 6.92813 36.5562 6.46595 36.1609 6.0845C35.7656 5.70306 35.2927 5.41132 34.7745 5.22917C34.2563 5.04703 33.7048 4.97876 33.1578 5.02901C32.8042 5.03026 32.4592 4.92036 32.1715 4.71484C31.8837 4.50931 31.6679 4.21857 31.5544 3.88369C31.3782 3.38191 31.0983 2.92284 30.733 2.53632C30.3678 2.14979 29.9252 1.84447 29.4342 1.64021C28.9432 1.43594 28.4147 1.3373 27.883 1.3507C27.3514 1.3641 26.8285 1.48924 26.3484 1.71798C24.3909 2.61342 24.318 0 21.4859 0C20.949 0.0029708 20.4186 0.118476 19.929 0.339063C19.4394 0.55965 19.0015 0.88042 18.6435 1.28068C18.3909 1.55032 18.0599 1.73365 17.6974 1.80466C17.3348 1.87567 16.9591 1.83078 16.6235 1.67634C16.1437 1.44591 15.6206 1.31943 15.0884 1.3052C14.5563 1.29097 14.0272 1.38931 13.5357 1.59376C13.0442 1.79822 12.6015 2.10419 12.2364 2.49163C11.8714 2.87908 11.5924 3.33926 11.4175 3.84204C11.2955 4.19432 11.0615 4.49697 10.7512 4.70378C10.441 4.91058 10.0717 5.01018 9.69953 4.98736C9.15108 4.95662 8.60245 5.04449 8.09103 5.24497C7.57961 5.44546 7.11742 5.75385 6.73598 6.14913C6.35454 6.54441 6.0628 7.01728 5.88065 7.53552C5.69851 8.05375 5.63023 8.60516 5.68049 9.15217C5.68174 9.50576 5.57183 9.8508 5.36631 10.1385C5.16079 10.4263 4.87005 10.6421 4.53516 10.7556C4.03439 10.9332 3.57641 11.2138 3.1908 11.5793C2.80519 11.9449 2.50051 12.3872 2.29643 12.8778C2.09235 13.3684 1.99341 13.8963 2.00599 14.4275C2.01857 14.9586 2.14239 15.4813 2.36946 15.9616C2.54469 16.3041 2.59991 16.6954 2.52629 17.073C2.45266 17.4506 2.25445 17.7925 1.96339 18.044C1.56332 18.4006 1.24317 18.8377 1.02395 19.3266C0.804735 19.8156 0.691406 20.3454 0.691406 20.8813C0.691406 21.4172 0.804735 21.947 1.02395 22.436C1.24317 22.925 1.56332 23.3621 1.96339 23.7186C2.23862 23.9674 2.42589 24.2987 2.49721 24.6628C2.56853 25.0269 2.52006 25.4043 2.35905 25.7385C2.12862 26.2184 2.00215 26.7415 1.98792 27.2736C1.97369 27.8057 2.07202 28.3349 2.27648 28.8264C2.48093 29.3178 2.7869 29.7606 3.17435 30.1256C3.56179 30.4906 4.02197 30.7697 4.52475 30.9445C4.87703 31.0666 5.17968 31.3006 5.38649 31.6108C5.5933 31.921 5.6929 32.2904 5.67008 32.6625C5.61932 33.5221 5.86437 34.373 6.36447 35.0739C6.86457 35.7748 7.58956 36.2834 8.41885 36.515C3.51479 45.0216 3.50437 44.6468 3.98333 45.3652C4.46228 46.0836 4.78505 45.8442 9.36635 45.2923C11.1572 49.5196 11.126 49.9777 11.9798 49.9777C12.8336 49.9777 12.6565 49.9777 18.3311 40.1175C18.4476 40.1927 18.5558 40.28 18.6539 40.3778C19.0104 40.7779 19.4475 41.0981 19.9365 41.3173C20.4255 41.5365 20.9553 41.6498 21.4912 41.6498C22.027 41.6498 22.5568 41.5365 23.0458 41.3173C23.5348 41.0981 23.9719 40.7779 24.3284 40.3778C24.4236 40.284 24.5283 40.2003 24.6408 40.128C30.4611 50.2172 30.1175 50.0506 30.9921 49.9881C31.8667 49.9257 31.8147 49.5404 33.6264 45.2819C38.1764 45.8338 38.5409 46.0732 39.0094 45.3548C39.4779 44.6364 39.2385 44.5947 34.5739 36.515C35.4195 36.2726 36.1553 35.7452 36.6563 35.0221C37.1573 34.299 37.3927 33.4249 37.3226 32.548C37.3214 32.1944 37.4313 31.8494 37.6368 31.5616C37.8423 31.2739 38.1331 31.058 38.468 30.9445C38.9687 30.767 39.4267 30.4864 39.8123 30.1208C40.1979 29.7553 40.5026 29.313 40.7067 28.8224C40.9108 28.3318 41.0097 27.8039 40.9971 27.2727C40.9846 26.7415 40.8607 26.2189 40.6337 25.7385C40.476 25.4036 40.4293 25.027 40.5005 24.6637C40.5717 24.3004 40.7569 23.9693 41.0293 23.7186C41.4414 23.3628 41.7719 22.9224 41.9985 22.4274C42.225 21.9325 42.3423 21.3945 42.3423 20.8501C42.3423 20.3057 42.225 19.7677 41.9985 19.2727C41.7719 18.7777 41.4414 18.3374 41.0293 17.9816ZM12.1776 46.6147C10.3451 42.3353 11.3238 42.9392 6.77375 43.491C11.001 36.2026 10.5429 36.8586 10.6678 36.9315C10.9976 37.1327 11.2477 37.4417 11.3759 37.8061C11.6856 38.6967 12.3154 39.4403 13.1428 39.8925C13.9702 40.3447 14.9362 40.4732 15.853 40.2529L12.1776 46.6147ZM30.7943 46.6147L27.1189 40.2529C28.0343 40.4727 28.9988 40.3439 29.8245 39.8916C30.6502 39.4393 31.278 38.6959 31.5856 37.8061C31.7393 37.4148 32.0222 37.0878 32.3873 36.8794L36.1981 43.491C31.6064 42.9288 32.5956 42.3874 30.7943 46.6147ZM39.6549 22.1047C39.0376 22.6556 38.6164 23.3925 38.4548 24.204C38.2933 25.0154 38.4002 25.8574 38.7595 26.6027C38.8655 26.8193 38.9241 27.056 38.9315 27.2971C38.9388 27.5381 38.8948 27.7779 38.8021 28.0006C38.7095 28.2232 38.5705 28.4236 38.3944 28.5883C38.2183 28.753 38.0091 28.8783 37.7808 28.9559C36.9871 29.2371 36.3082 29.7719 35.849 30.4777C35.3898 31.1835 35.1759 32.0208 35.2402 32.8604C35.2397 33.0993 35.1895 33.3355 35.0931 33.554C34.9966 33.7726 34.8559 33.9688 34.6798 34.1302C34.5037 34.2916 34.296 34.4148 34.0699 34.4919C33.8438 34.5691 33.6041 34.5985 33.3661 34.5783C32.5517 34.5453 31.7483 34.7743 31.0737 35.2315C30.399 35.6888 29.8887 36.3503 29.6177 37.1189C29.5374 37.3452 29.4106 37.5522 29.2453 37.7264C29.0801 37.9007 28.8802 38.0384 28.6584 38.1306C28.4367 38.2228 28.1981 38.2675 27.958 38.2619C27.718 38.2562 27.4817 38.2002 27.2646 38.0976C26.5205 37.7447 25.6828 37.6402 24.8748 37.7996C24.0668 37.9589 23.3314 38.3736 22.777 38.9826C22.6108 39.1562 22.4112 39.2943 22.1902 39.3886C21.9692 39.483 21.7314 39.5316 21.4912 39.5316C21.2509 39.5316 21.0131 39.483 20.7921 39.3886C20.5711 39.2943 20.3715 39.1562 20.2053 38.9826C19.6544 38.3653 18.9175 37.9441 18.1061 37.7825C17.2946 37.621 16.4526 37.7279 15.7073 38.0872C15.4897 38.1916 15.2525 38.2489 15.0112 38.2555C14.77 38.2621 14.53 38.2178 14.307 38.1255C14.084 38.0331 13.883 37.8948 13.717 37.7196C13.5511 37.5444 13.4239 37.3361 13.3437 37.1085C13.0675 36.3137 12.5353 35.633 11.8305 35.1732C11.1258 34.7134 10.2884 34.5006 9.44964 34.5679C9.21074 34.5673 8.97455 34.5172 8.75599 34.4208C8.53743 34.3243 8.34124 34.1836 8.1798 34.0075C8.01837 33.8314 7.8952 33.6237 7.81806 33.3976C7.74093 33.1715 7.71151 32.9318 7.73166 32.6938C7.76634 31.8791 7.53808 31.0749 7.0806 30.3999C6.62312 29.7249 5.96067 29.215 5.19112 28.9454C4.96175 28.8694 4.75139 28.7449 4.57432 28.5804C4.39724 28.416 4.25756 28.2154 4.16475 27.9922C4.07195 27.7691 4.02817 27.5286 4.03639 27.2871C4.04461 27.0456 4.10463 26.8086 4.21239 26.5923C4.56867 25.8489 4.67499 25.0103 4.51548 24.2015C4.35598 23.3927 3.93921 22.6572 3.32737 22.1047C3.14543 21.9435 2.99977 21.7456 2.90001 21.5239C2.80025 21.3022 2.74867 21.0619 2.74867 20.8189C2.74867 20.5758 2.80025 20.3355 2.90001 20.1138C2.99977 19.8921 3.14543 19.6942 3.32737 19.533C3.94181 18.9801 4.36099 18.2434 4.52237 17.4327C4.68375 16.6221 4.57867 15.781 4.2228 15.035C4.11504 14.8187 4.05502 14.5817 4.0468 14.3402C4.03858 14.0987 4.08236 13.8582 4.17517 13.6351C4.26798 13.4119 4.40765 13.2113 4.58473 13.0469C4.76181 12.8824 4.97216 12.7579 5.20153 12.6819C5.99517 12.4006 6.67407 11.8658 7.13328 11.16C7.5925 10.4542 7.80645 9.61688 7.74207 8.77734C7.74108 8.53797 7.79012 8.30103 7.88606 8.08171C7.98199 7.8624 8.1227 7.66556 8.29916 7.50381C8.47561 7.34205 8.68393 7.21896 8.91074 7.14242C9.13755 7.06589 9.37785 7.03759 9.61624 7.05936C10.4309 7.09404 11.2351 6.86578 11.9101 6.40829C12.5851 5.95081 13.095 5.28837 13.3646 4.51882C13.4449 4.2925 13.5717 4.08554 13.737 3.91128C13.9022 3.73702 14.1021 3.59933 14.3239 3.50711C14.5456 3.41489 14.7842 3.37017 15.0243 3.37585C15.2643 3.38153 15.5006 3.43748 15.7177 3.54009C16.4611 3.89636 17.2997 4.00268 18.1085 3.84318C18.9173 3.68368 19.6528 3.2669 20.2053 2.65507C20.3715 2.48152 20.5711 2.34342 20.7921 2.24907C21.0131 2.15472 21.2509 2.10608 21.4912 2.10608C21.7314 2.10608 21.9692 2.15472 22.1902 2.24907C22.4112 2.34342 22.6108 2.48152 22.777 2.65507C23.3299 3.2695 24.0666 3.68869 24.8773 3.85007C25.6879 4.01145 26.529 3.90636 27.275 3.5505C27.4919 3.44621 27.7284 3.38894 27.9689 3.38243C28.2094 3.37593 28.4487 3.42034 28.6708 3.51275C28.893 3.60516 29.0932 3.74349 29.2581 3.91867C29.4231 4.09384 29.5492 4.30191 29.6282 4.52923C29.9094 5.32287 30.4443 6.00177 31.15 6.46098C31.8558 6.92019 32.6931 7.13415 33.5327 7.06977C33.7716 7.07036 34.0078 7.12046 34.2263 7.21693C34.4449 7.3134 34.6411 7.45413 34.8025 7.63024C34.9639 7.80635 35.0871 8.01401 35.1642 8.24012C35.2414 8.46623 35.2708 8.70588 35.2507 8.94393C35.216 9.7586 35.4442 10.5628 35.9017 11.2378C36.3592 11.9128 37.0216 12.4227 37.7912 12.6923C38.0206 12.7683 38.2309 12.8928 38.408 13.0573C38.5851 13.2217 38.7247 13.4223 38.8176 13.6455C38.9104 13.8686 38.9541 14.1091 38.9459 14.3506C38.9377 14.5921 38.8777 14.8291 38.7699 15.0454C38.4136 15.7888 38.3073 16.6274 38.4668 17.4362C38.6263 18.245 39.0431 18.9805 39.6549 19.533C39.8369 19.6942 39.9825 19.8921 40.0823 20.1138C40.1821 20.3355 40.2336 20.5758 40.2336 20.8189C40.2336 21.0619 40.1821 21.3022 40.0823 21.5239C39.9825 21.7456 39.8369 21.9435 39.6549 22.1047Z"/><path d="M24.7552 16.7633C22.2772 11.7551 22.3501 11.4531 21.4859 11.4531C20.6217 11.4531 20.6945 11.7447 18.2165 16.7633C12.6981 17.565 12.4378 17.3984 12.1671 18.2209C11.8964 19.0435 12.1671 19.0747 16.207 22.9688C15.2595 28.4664 15.0304 28.6746 15.728 29.216C16.4256 29.7575 16.5401 29.4451 21.4859 26.8421C26.5149 29.4868 26.2754 29.4139 26.6294 29.4139C26.7824 29.4161 26.934 29.3846 27.0734 29.3216C27.2128 29.2586 27.3367 29.1656 27.4361 29.0493C27.5355 28.933 27.608 28.7962 27.6486 28.6486C27.6891 28.5011 27.6966 28.3464 27.6706 28.1957L26.7752 22.9897L30.5547 19.3142C30.6953 19.1784 30.7948 19.0057 30.8418 18.816C30.8889 18.6263 30.8816 18.4272 30.8207 18.2414C30.7599 18.0556 30.648 17.8908 30.4978 17.7656C30.3477 17.6405 30.1653 17.5601 29.9717 17.5338L24.7552 16.7633ZM24.9218 21.8652C24.4012 22.3753 24.5991 22.6044 25.255 26.436C21.6212 24.5306 21.8295 24.5931 21.4859 24.5931C21.1423 24.5931 21.3505 24.5306 17.7167 26.436C18.3831 22.5836 18.5705 22.3649 18.0499 21.8652L15.3948 19.2726L19.0599 18.7415C19.7887 18.6374 19.7679 18.3355 21.4859 14.8474C23.2247 18.3667 23.1934 18.6374 23.9119 18.7415L27.5769 19.2726L24.9218 21.8652Z"/></symbol><symbol viewBox="0 0 512.00027 512" id="title" xmlns="http://www.w3.org/2000/svg"><path d="m8.804688 51.230469c-15.894532 33.429687-10.351563 74.5 17.316406 102.167969 27.667968 27.667968 68.738281 33.210937 102.167968 17.316406l212.996094 212.996094c-15.898437 33.429687-10.355468 74.5 17.3125 102.167968 27.671875 27.667969 68.742188 33.210938 102.171875 17.316406l-59.742187-59.746093 42.425781-42.425781 59.742187 59.742187c15.894532-33.425781 10.355469-74.5-17.316406-102.167969-27.667968-27.667968-68.738281-33.210937-102.167968-17.316406l-212.996094-212.992188c15.894531-33.425781 10.355468-74.5-17.3125-102.167968-27.671875-27.671875-68.742188-33.210938-102.171875-17.316406l59.742187 59.742187-42.425781 42.425781zm0 0"/><path d="m17.574219 494.425781c23.429687 23.433594 61.421875 23.433594 84.851562 0l132.464844-132.464843 21.214844 21.214843 21.210937-21.214843-127.277344-127.277344-21.214843 21.210937 21.214843 21.214844-132.464843 132.464844c-23.433594 23.429687-23.433594 61.421875 0 84.851562zm143.070312-164.285156 21.210938 21.214844-111.25 111.25-21.210938-21.214844zm0 0"/><path d="m383.570312 35.351562 25.328126 25.328126-131.6875 131.683593 42.425781 42.429688 131.6875-131.691407 25.324219 25.328126 35.351562-91.925782-36.5-36.503906zm0 0"/></symbol></svg>