<?xml version="1.0" encoding="utf-8"?><svg viewBox="0 0 512 512" xmlns="http://www.w3.org/2000/svg" xmlns:xlink="http://www.w3.org/1999/xlink"><style>:root>svg{display:none}:root>svg:target{display:block}</style><svg viewBox="0 0 215 215" id="Telegram" xmlns="http://www.w3.org/2000/svg"><defs><linearGradient id="oa" y1="107.5" x2="215" y2="107.5" gradientUnits="userSpaceOnUse"><stop offset="0" stop-color="#2aabee"/><stop offset="1" stop-color="#229ed9"/></linearGradient></defs><circle cx="107.5" cy="107.5" r="107.5" style="fill:url(#oa)"/><path data-name="Telegram" d="M603.31 105.65q46.89-20.43 62.53-26.94c29.78-12.38 36-14.53 40-14.61a7.09 7.09 0 0 1 4.16 1.25 4.49 4.49 0 0 1 1.53 2.9 19.25 19.25 0 0 1 .18 4.23c-1.61 17-8.6 58.09-12.15 77.08-1.5 8-4.46 10.73-7.33 11-6.22.57-11-4.12-17-8.07-9.44-6.19-14.77-10-23.93-16.08-10.59-7-3.72-10.81 2.31-17.07 1.58-1.64 29-26.6 29.54-28.86a2.18 2.18 0 0 0-.5-1.9 2.49 2.49 0 0 0-2.22-.21q-1.41.31-45.22 29.89-6.42 4.41-11.63 4.3c-3.83-.09-11.19-2.17-16.67-4-6.71-2.18-12-3.33-11.58-7q.37-2.88 7.98-5.91Z" transform="translate(-554)" style="fill:#fff;fill-rule:evenodd"/></svg><svg viewBox="0 0 215 215" id="VK" xmlns="http://www.w3.org/2000/svg"><circle cx="107.5" cy="107.5" r="107.5" style="fill:#07f"/><path data-name="VK" d="M111.44 147.14C69.76 147.14 46 118.56 45 71h20.87c.69 34.9 16.08 49.69 28.27 52.74V71h19.67v30.1c12-1.29 24.69-15 28.95-30.1h19.67c-3.28 18.59-17 32.31-26.75 37.95A60.16 60.16 0 0 1 167 147.14h-21.64c-4.65-14.48-16.24-25.68-31.55-27.2v27.2Z" style="fill:#fff"/></svg><svg id="Viber" viewBox="0 0 215 215" xmlns="http://www.w3.org/2000/svg"><defs><style>.qcls-2{fill:#fff}</style></defs><g id="qViber"><circle id="qBackground" cx="107.5" cy="107.5" r="107.5" style="fill:#7360f2"/><g id="qViber-2" data-name="Viber"><path class="qcls-2" d="M148.37 343.83c-2.75-2.55-13.9-10.64-38.73-10.75 0 0-29.28-1.77-43.55 11.33-8 7.94-10.74 19.57-11 34s-.68 41.43 25.37 48.76v11.18s-.17 4.52 2.81 5.45c3.6 1.11 5.72-2.33 9.16-6 1.89-2 4.5-5 6.46-7.31 17.82 1.5 31.51-1.93 33.07-2.44 3.6-1.16 23.95-3.77 27.26-30.79 3.38-27.88-1.69-45.49-10.85-53.43Zm3 51.4c-2.79 22.55-19.3 24-22.34 24.95a92.89 92.89 0 0 1-28.46 2.42s-11.25 13.6-14.77 17.14a1.89 1.89 0 0 1-1.63.66c-.6-.15-.77-.86-.76-1.91 0-1.5.09-18.58.09-18.58-22-6.12-20.74-29.11-20.49-41.15s2.51-21.91 9.23-28.54c12.07-10.94 36.94-9.3 36.94-9.3 21 .09 31.07 6.41 33.4 8.53 7.75 6.64 11.7 22.51 8.81 45.77Z" transform="translate(0 -277)"/><path id="qViber-3" data-name="Viber" class="qcls-2" d="M119.86 379.17a1.4 1.4 0 0 1-1.4-1.33c-.24-4.77-2.48-7.11-7.06-7.35a1.4 1.4 0 0 1 .14-2.8c6 .32 9.41 3.78 9.72 10a1.41 1.41 0 0 1-1.33 1.47Z" transform="translate(0 -277)"/><path id="qViber-4" data-name="Viber" class="qcls-2" d="M127.06 381.59a1.41 1.41 0 0 1-1.37-1.44 16.27 16.27 0 0 0-4.19-11.88c-2.92-3.19-6.92-4.92-12.23-5.31a1.4 1.4 0 1 1 .2-2.8c6 .43 10.72 2.53 14.1 6.22a19.13 19.13 0 0 1 4.93 13.83 1.41 1.41 0 0 1-1.44 1.38Z" transform="translate(0 -277)"/><path id="qViber-5" data-name="Viber" class="qcls-2" d="M134.44 384.47a1.4 1.4 0 0 1-1.4-1.39c-.07-8.47-2.61-15.21-7.56-20a26 26 0 0 0-18.63-7.36 1.41 1.41 0 0 1 0-2.81 28.71 28.71 0 0 1 20.59 8.09c5.51 5.37 8.33 12.78 8.4 22a1.39 1.39 0 0 1-1.39 1.41Z" transform="translate(0 -277)"/><path id="qViber-6" data-name="Viber" class="qcls-2" d="M111.75 396.58a3.86 3.86 0 0 0 3-1.15l2.08-2.6a4.53 4.53 0 0 1 5.77-.8 59 59 0 0 1 5.15 3.28c1.56 1.16 4.77 3.83 4.78 3.83a4 4 0 0 1 .85 5.19 21.69 21.69 0 0 1-4.32 5.31 8.55 8.55 0 0 1-4.38 2.12 2.76 2.76 0 0 1-.64 0 5.88 5.88 0 0 1-1.86-.29v-.07c-2.21-.62-5.9-2.18-12-5.57a70.72 70.72 0 0 1-10.18-6.57 51.18 51.18 0 0 1-4.55-4l-.16-.15-.15-.16-.15-.15-.16-.15a54.36 54.36 0 0 1-4-4.55 71.67 71.67 0 0 1-6.74-10.1c-3.39-6.14-5-9.82-5.57-12h-.07a5.87 5.87 0 0 1-.28-1.86 2.72 2.72 0 0 1 0-.64 8.7 8.7 0 0 1 2.15-4.5 21.65 21.65 0 0 1 5.31-4.32 4 4 0 0 1 5.18.84s2.68 3.22 3.83 4.78 2.36 3.33 3.36 5.1a4.55 4.55 0 0 1-.8 5.77l-2.61 2.07a3.86 3.86 0 0 0-1.14 3s3.87 14.65 18.3 18.34Z" transform="translate(0 -277)"/></g></g></svg><svg viewBox="0 0 215 215" id="WhatsApp" xmlns="http://www.w3.org/2000/svg"><circle cx="107.5" cy="107.5" r="107.5" style="fill:#25d366"/><g data-name="WhatsApp"><path data-name="WhatsApp" d="m885.91 161 7.55-27.56a53.18 53.18 0 1 1 46.09 26.64 53.18 53.18 0 0 1-25.41-6.48Zm29.5-17 1.62 1a44.21 44.21 0 0 0 22.5 6.17 44.22 44.22 0 1 0-37.45-20.72l1 1.67-4.47 16.31Z" transform="translate(-831)" style="fill:#fff"/><path data-name="WhatsApp" d="M966.34 119.54c-.33-.56-1.22-.89-2.55-1.55s-7.86-3.88-9.08-4.33-2.1-.66-3 .67-3.43 4.32-4.2 5.21-1.56 1-2.88.33a36.31 36.31 0 0 1-10.63-6.59 40 40 0 0 1-7.39-9.21c-.78-1.33-.09-2 .58-2.71s1.33-1.56 2-2.33a8.84 8.84 0 0 0 1.33-2.22 2.47 2.47 0 0 0-.11-2.33c-.33-.66-3-7.2-4.1-9.86s-2.17-2.24-3-2.29-1.66 0-2.54 0a4.89 4.89 0 0 0-3.6 1.67 14.91 14.91 0 0 0-4.65 11c0 6.54 4.76 12.86 5.43 13.75s9.37 14.31 22.7 20.06a75.55 75.55 0 0 0 7.58 2.8 18.27 18.27 0 0 0 8.37.53c2.55-.38 7.86-3.22 9-6.32s1.07-5.73.74-6.28Z" transform="translate(-831)" style="fill-rule:evenodd;fill:#fff"/></g></svg><svg fill="none" viewBox="0 0 433 361" id="advantage1" xmlns="http://www.w3.org/2000/svg"><path d="M47.968 0a39.92 39.92 0 0 0-40 40v32c0 22.16 17.84 40 40 40h8v110.4c0 9.824 7.136 17.728 16 17.728v16c0 6 3.44 11.008 8.32 13.76a8.003 8.003 0 0 0-.288 2.24v64c0 4.576-3.44 8-8 8H8a8.001 8.001 0 0 0 0 16h64c13.152 0 24-10.848 24-24v-64a8 8 0 0 0-.32-2.24 15.738 15.738 0 0 0 8.288-13.76v-16c8.864 0 16-7.904 16-17.712v-38.544a7.972 7.972 0 0 0 1.616.16h46.4c13.168 0 24-10.832 24-24v-48h55.984v-16h16.064a15.725 15.725 0 0 0 13.6-8.032c.107.002.213.002.32 0 13.168 0 24-10.816 24-23.968H424.72a8 8 0 1 0 0-16H301.952c0-13.152-10.848-24-24-24a7.929 7.929 0 0 0-.384 0 15.765 15.765 0 0 0-13.552-8h-16.064v-16h-200L47.968 0Zm0 24.032h176v16h-176v-16Zm0 48h176v16h-176v-16Zm72 39.968H144v31.904a8 8 0 1 0 16 0V112h16v48c0 4.576-3.44 8-8 8h-46.4a7.986 7.986 0 0 0-1.632.16V112Z" fill="#000"/></svg><svg fill="none" viewBox="0 0 344 416" id="advantage2" xmlns="http://www.w3.org/2000/svg"><path d="M215.676 132.8V28.016c0-1.648-.095-3.28-.287-4.88 30.728 7.712 53.095 23.776 68.599 44.416 21.313 28.312 30.073 65.488 30.073 101.8 0 4.424 3.608 8.032 8.04 8.032l.471-.016c4.296.192 8.472 1.728 11.92 4.304l.384.248a21.29 21.29 0 0 1 7.28 10.488h-.032c1.816 5.696 1.12 11.6-1.384 16.48-2.224 4.304-5.863 7.88-10.575 9.888-53.04-19.792-106.089-29.632-158.969-29.616-52.912.032-105.672 9.936-158.248 29.616-4.672-2.072-8.311-5.584-10.535-9.888a21.55 21.55 0 0 1-1.384-16.48l.184-.6a21.29 21.29 0 0 1 7.408-10.136l.032-.016.032.016c3.583-2.688 7.976-4.24 12.496-4.32a8.009 8.009 0 0 0 7.903-8c0-36.312 8.792-73.488 30.072-101.8C74.692 46.896 97.07 30.824 127.765 23.12c-.184 1.6-.248 3.232-.248 4.896V132.8a43.988 43.988 0 0 0 12.896 31.176 43.953 43.953 0 0 0 31.168 12.904c12.176 0 23.223-4.944 31.199-12.904 7.936-7.968 12.896-19.016 12.896-31.176ZM30.149 261.888a30.321 30.321 0 0 1 13.4-7.912 482.496 482.496 0 0 0 .063 18.016c.32 14.184 1.289 27.928 3.36 40.36l.28 1.76a31.29 31.29 0 0 1-16.975-8.664 30.785 30.785 0 0 1-9.04-21.84c0-8.48 3.392-16.136 8.912-21.72ZM312.869 305.448c-4.52 4.52-10.416 7.592-17.04 8.664l.28-1.76c2.072-12.424 3.079-26.24 3.391-40.424.128-5.96.129-11.928.065-17.952 5.152 1.448 9.728 4.208 13.408 7.912 5.52 5.584 8.935 13.24 8.935 21.72a30.765 30.765 0 0 1-9.039 21.84Z" fill="#000"/><path d="M278.22 219.08H64.676c35.464-9.232 70.992-13.888 106.52-13.904 35.592-.016 71.24 4.616 107.024 13.904ZM283.181 235.144c.376 11.616.528 25.864.28 36.472-.28 13.496-1.217 26.488-3.137 38.224-4.64 28.12-19.728 55.112-40.168 74.888-19.616 18.96-44.063 31.136-68.607 31.136-24.504 0-48.992-12.176-68.608-31.192-20.4-19.712-35.528-46.704-40.144-74.824-1.952-11.744-2.864-24.736-3.144-38.168-.256-10.672-.096-24.92.248-36.536h223.28ZM199.604 28.016V132.8a27.872 27.872 0 0 1-8.223 19.808 27.942 27.942 0 0 1-19.809 8.208 27.952 27.952 0 0 1-19.807-8.208 27.972 27.972 0 0 1-8.184-19.808V28.016c0-7.72 3.136-14.736 8.184-19.808A27.918 27.918 0 0 1 171.572 0a27.909 27.909 0 0 1 19.809 8.208c5.08 5.072 8.223 12.088 8.223 19.808Z" fill="#000"/></svg><svg fill="none" viewBox="0 0 352 378" id="advantage3" xmlns="http://www.w3.org/2000/svg"><path d="M24 0c13.44 0 24 10.56 24 24v8H0v-8C0 10.56 10.56 0 24 0Zm31.776 0H328c13.44 0 24 10.56 24 24v328h-48v-28.528c9.744-8.8 16-21.376 16-35.472 0-26.4-21.6-48-48-48s-48 21.6-48 48c0 14.08 6.256 26.672 16 35.472V352H64V24c0-9.024-3.136-17.28-8.224-24ZM144 32v16h128V32H144ZM96 80v16h224V80H96Zm0 32v16h224v-16H96Zm0 32v16h224v-16H96Zm0 32v16h224v-16H96Zm0 32v16h224v-16H96Zm0 32v16h112v-16H96Zm176 16c17.76 0 32 14.24 32 32 0 17.76-14.24 32-32 32-17.76 0-32-14.24-32-32 0-17.76 14.24-32 32-32Zm-16 77.024c5.024 1.808 10.368 2.976 16 2.976s10.976-1.168 16-2.976v44.032l-11.568-7.712a7.998 7.998 0 0 0-8.864 0L256 377.056v-44.032Z" fill="#000"/></svg><svg fill="none" viewBox="0 0 496 427" id="advantage4" xmlns="http://www.w3.org/2000/svg"><path d="M351.984 0h8c13.44 0 24 10.56 24 24v273.953c-6.816-5.424-14.64-9.969-24-9.969h-8V0Zm-328 64h312v240h24c13.44 0 24 10.56 24 24s-10.56 24-24 24H24.016c-9.04 0-17.28 3.137-24 8.225V88c0-13.44 10.56-24 24-24h-.032Zm408 16h64v272h-64v-16h32v-16h-32v-16h16v-16h-16v-16h32v-16h-32v-16h16v-16h-16v-16h32v-16h-32v-16h16v-16h-16v-16h32v-16h-32v-16h16V96h-16V80Zm-376 16a8 8 0 0 0-8 8v208a7.998 7.998 0 0 0 8 8h240a7.997 7.997 0 0 0 8-8V104a7.999 7.999 0 0 0-8-8h-168v16h32v48h16v-48h112v96h-48v-64h-16v64h-32v16h96v80h-16v-56a7.998 7.998 0 0 0-8-8h-64a7.997 7.997 0 0 0-8 8v56h-16V192.785h-16v111.199h-96v-64h64v-16h-64v-112h32v-16l-40 .016Zm152 160h48v48h-48v-48Zm-184 112H32v48h-8c-13.44 0-24-10.56-24-24s10.56-24 24-24h-.016Zm301.28 27.104c6.672 0 11.52 4.703 11.52 9.919l.048 11.969c0 5.28-4.592 9.968-11.44 10h-8.288l-.16-31.888h8.32Zm-20.544-.704.032 9.76-127.984-.32-.032-9.215 127.984-.225Zm-143.936 0 .032 15.76.032 16.24-20.88-15.744 20.816-16.256Zm16.048 22.241 128.016.32.032 9.215v.48l-128-.015-.048-10Z" fill="#000"/></svg><svg viewBox="0 0 512 512" id="logo" xmlns="http://www.w3.org/2000/svg"><path d="M194.798 52.743h122.404v30H194.798zM194.798 146.872h122.404v30H194.798zM194.798 241h122.404v30H194.798zM194.798 335.128h122.404v30H194.798zM194.798 429.257h122.404v30H194.798zM99.214 0h65.584v512H99.214zM347.202 0h65.584v512h-65.584z"/></svg><svg viewBox="0 0 32 32" id="mail" xmlns="http://www.w3.org/2000/svg"><path d="M30 8H2a2 2 0 0 0-2 2v3.358l16 6.4 16-6.4V10a2 2 0 0 0-2-2zM0 16.624V30a2 2 0 0 0 2 2h28a2 2 0 0 0 2-2V16.624l-16 6.4z"/></svg><svg viewBox="0 0 32 32" id="mobile" xmlns="http://www.w3.org/2000/svg"><path d="M24 32a2 2 0 0 0 2-2V2a2 2 0 0 0-2-2H10a2 2 0 0 0-2 2v28a2 2 0 0 0 2 2zm-8-3.124a1.124 1.124 0 1 1 2.247 0 1.124 1.124 0 0 1-2.247 0zM21 2a1 1 0 0 1 0 2h-2a1 1 0 0 1 0-2zm-5 1a1 1 0 1 1-2 0 1 1 0 0 1 2 0zm-6 3h14v20H10z"/></svg><svg viewBox="0 0 32 32" id="pin" xmlns="http://www.w3.org/2000/svg"><path d="M15.272 31.458c.168.186.33.306.486.39l.008.004c.108.056.214.098.314.098s.206-.042.314-.098l.008-.004c.156-.084.318-.204.486-.39 0 0 9.296-10.11 10.23-18.87.056-.452.094-.91.094-1.376C27.212 5.02 22.192 0 16 0S4.788 5.02 4.788 11.212c0 .474.038.936.096 1.394.958 8.756 10.388 18.852 10.388 18.852zM16 4c3.976 0 7.212 3.236 7.212 7.212S19.976 18.424 16 18.424s-7.212-3.236-7.212-7.212S12.024 4 16 4z"/></svg><svg fill="none" viewBox="0 0 51 50" id="stages1" xmlns="http://www.w3.org/2000/svg"><path d="M11.469 21.087a.772.772 0 0 0 .183.854.805.805 0 0 0 .874.154l3.856-1.67A11.446 11.446 0 0 0 22.48 22.2a11.445 11.445 0 0 0 7.518 1.07 11.414 11.414 0 0 0 4.61-2.052l3.976 1.37a.804.804 0 0 0 .858-.22.77.77 0 0 0 .116-.864l-1.905-3.765a10.902 10.902 0 0 0 1.173-7.549c-1.065-5.173-5.681-8.881-11.022-8.899A11.425 11.425 0 0 0 23.884.084c-2.994-.36-5.95.447-8.327 2.273-2.376 1.826-3.886 4.452-4.253 7.395-.326 2.619.3 5.242 1.767 7.437l-1.602 3.898Zm25.8-10.587a9.373 9.373 0 0 1-1.197 6.81.77.77 0 0 0-.031.75l1.224 2.418-2.545-.877a.805.805 0 0 0-.77.136 9.789 9.789 0 0 1-4.266 2.002 9.868 9.868 0 0 1-3.907-.014c4.147-1.239 7.381-4.781 7.941-9.275a10.893 10.893 0 0 0-2.312-8.185 11.36 11.36 0 0 0-.93-1.033C33.86 4.2 36.538 6.95 37.27 10.5Zm-24.387-.558c.315-2.529 1.612-4.785 3.654-6.354a9.758 9.758 0 0 1 7.154-1.953 9.677 9.677 0 0 1 6.464 3.592 9.36 9.36 0 0 1 1.987 7.033c-.602 4.828-4.795 8.379-9.623 8.378a9.872 9.872 0 0 1-5.597-1.74.84.84 0 0 0-.779-.077l-2.467 1.069 1.029-2.504a.77.77 0 0 0-.09-.747 9.388 9.388 0 0 1-1.732-6.697Zm8.624 1.159c0-.54.445-.977.994-.977.549 0 .993.438.993.977 0 .54-.444.976-.993.976a.985.985 0 0 1-.994-.976Zm4.547 0c0-.54.445-.977.993-.977.549 0 .994.438.994.977 0 .54-.445.976-.994.976a.985.985 0 0 1-.993-.976Zm-9.07 0c0-.54.444-.977.993-.977.549 0 .993.438.993.977 0 .54-.445.976-.993.976a.985.985 0 0 1-.994-.976Zm-1.481 26.873c1.753-1.133 2.914-3.083 2.914-5.296 0-3.494-2.892-6.336-6.446-6.336-3.553 0-6.445 2.842-6.445 6.336 0 2.212 1.16 4.163 2.914 5.296C3.557 39.46 0 43.938 0 49.22c0 .431.356.781.795.781h22.351c.439 0 .795-.35.795-.781 0-5.28-3.557-9.76-8.439-11.245Zm-8.387-5.296c0-2.632 2.178-4.773 4.855-4.773 2.678 0 4.856 2.14 4.856 4.773 0 2.632-2.177 4.773-4.854 4.773h-.002c-2.678 0-4.855-2.142-4.855-4.773ZM1.62 48.438c.407-5.264 4.893-9.424 10.35-9.424h.002c5.456 0 9.942 4.16 10.35 9.423H1.62Zm40.803-10.464c1.753-1.133 2.913-3.083 2.913-5.296 0-3.494-2.89-6.336-6.445-6.336-3.553 0-6.445 2.842-6.445 6.336 0 2.212 1.16 4.163 2.914 5.296-4.882 1.485-8.44 5.964-8.44 11.245 0 .431.357.781.796.781h22.35c.44 0 .796-.35.796-.781 0-5.28-3.557-9.76-8.44-11.245Zm-8.387-5.296c0-2.632 2.178-4.773 4.855-4.773 2.678 0 4.856 2.14 4.856 4.773 0 2.632-2.178 4.773-4.855 4.773h-.002c-2.677 0-4.854-2.142-4.854-4.773Zm-5.496 15.76c.408-5.264 4.894-9.424 10.35-9.424h.003c5.456 0 9.942 4.16 10.349 9.423H28.54Z" fill="#000"/></svg><svg fill="none" viewBox="0 0 51 50" id="stages2" xmlns="http://www.w3.org/2000/svg"><path d="M21.177 46.875a2.345 2.345 0 1 0 0-4.69 2.345 2.345 0 0 0 0 4.69Zm0-3.125a.781.781 0 1 1 0 1.563.781.781 0 0 1 0-1.563ZM21.17 3.125a.781.781 0 1 0 0 1.563.781.781 0 0 0 0-1.563Zm-10.93 7.813a4.689 4.689 0 1 0-.001 9.377 4.689 4.689 0 0 0 0-9.378Zm0 7.812a3.126 3.126 0 1 1-.001-6.251 3.126 3.126 0 0 1 0 6.251Zm13.053 3.125a4.804 4.804 0 0 0-3.815-.553.78.78 0 1 0 .408 1.508 3.243 3.243 0 0 1 2.572.367 2.272 2.272 0 0 1 1.072 1.419 2.523 2.523 0 0 1-1.627 2.55c-.289.12-.586.217-.883.312a8.412 8.412 0 0 0-1.606.647 4.952 4.952 0 0 0-2.261 2.969 3.172 3.172 0 0 0 .362 2.528 3.622 3.622 0 0 0 3.126 1.465 5.491 5.491 0 0 0 2.402-.564.783.783 0 1 0-.69-1.406 2.917 2.917 0 0 1-3.52-.336 1.622 1.622 0 0 1-.165-1.31 3.417 3.417 0 0 1 1.516-1.987c.42-.215.86-.389 1.315-.518.337-.11.675-.22 1.003-.357a4.08 4.08 0 0 0 2.564-4.27 3.803 3.803 0 0 0-1.773-2.464Zm-.193-3.516a.814.814 0 0 0 .688.391h3.594a.814.814 0 0 0 .688-.39l1.797-3.126a.782.782 0 0 0 0-.78l-1.797-3.126a.816.816 0 0 0-.688-.39h-3.594a.814.814 0 0 0-.688.39l-1.797 3.125a.781.781 0 0 0 0 .781L23.1 18.36ZM24.24 12.5h2.704l1.344 2.344-1.344 2.344H24.24l-1.36-2.344 1.36-2.344ZM49.73 9.719a4.004 4.004 0 0 0-5.517 0l-1.105 1.104-1.614 1.614v-8.53A3.917 3.917 0 0 0 37.586 0H4.768A3.907 3.907 0 0 0 .862 3.906v42.188A3.906 3.906 0 0 0 4.768 50h32.818a3.918 3.918 0 0 0 3.907-3.906v-22.61l7.134-7.132 1.094-1.094a3.923 3.923 0 0 0 0-5.531l.008-.008ZM2.424 3.906a2.344 2.344 0 0 1 2.344-2.344h32.818a2.344 2.344 0 0 1 2.344 2.344V6.25H2.424V3.906ZM39.93 46.094a2.343 2.343 0 0 1-2.344 2.343H4.768a2.344 2.344 0 0 1-2.344-2.343v-5.469H39.93v5.469Zm0-7.032H2.424V7.813H39.93V14L26.522 27.406a.677.677 0 0 0-.203.39l-1.11 5.532a.791.791 0 0 0 .219.703c.147.142.343.22.547.219h.156l5.517-1.11a.104.104 0 0 0 .054-.021h.056c.058-.028.116-.06.171-.094l.052-.038c.015-.012.032-.021.047-.035l.026-.02 7.876-7.885v14.015ZM27.656 29.08a6.18 6.18 0 0 1 2.72 2.725l-3.4.68.68-3.405Zm13.837-7.799-1.563 1.563-8.171 8.17a7.813 7.813 0 0 0-3.321-3.32l11.492-11.49 1.563-1.563 2.16-2.16 3.32 3.32-5.48 5.48Zm7.142-7.14-.547.562-3.329-3.328.549-.548a2.407 2.407 0 0 1 3.328 0 2.378 2.378 0 0 1 0 3.312l-.001.002ZM12.582 25H4.893a.764.764 0 0 0-.718.484.74.74 0 0 0 .171.844l7.674 7.688a.864.864 0 0 0 .562.234 1.13 1.13 0 0 0 .297-.063.805.805 0 0 0 .485-.718V25.78a.781.781 0 0 0-.782-.781Zm-.781 6.578-5.017-5.015h5.017v5.015Z" fill="#000"/></svg><svg fill="none" viewBox="0 0 52 50" id="stages3" xmlns="http://www.w3.org/2000/svg"><path d="M37.528 45.833a2.5 2.5 0 0 1-2.5 2.5h-30a2.5 2.5 0 0 1-2.5-2.5V4.167a2.5 2.5 0 0 1 2.5-2.5h25.834v4.166a2.5 2.5 0 0 0 2.5 2.5h4.166v17.5h1.667V7.5a.833.833 0 0 0-.244-.59L32.284.245a.833.833 0 0 0-.59-.244H5.029A4.172 4.172 0 0 0 .862 4.167v41.666A4.172 4.172 0 0 0 5.028 50h30a4.172 4.172 0 0 0 4.167-4.167V42.5h-1.667v3.333Zm-5-40V2.845l3.822 3.822h-2.988a.833.833 0 0 1-.834-.834Z" fill="#000"/><path d="M5.861 5h1.667v1.667H5.86V5Zm3.334 0h5v1.667h-5V5ZM5.86 8.333h8.334V10H5.86V8.333ZM49.92 22.608a4.172 4.172 0 0 0-5.893 0L29.295 37.34a.834.834 0 0 0-.227.425l-.54 2.7-1.59 1.588a2.501 2.501 0 1 0 3.536 3.536L32.064 44l2.699-.54a.833.833 0 0 0 .425-.228L49.92 28.5a4.172 4.172 0 0 0 0-5.892ZM30.2 40.602l.393-1.965 3.297 3.297-1.964.394-1.726-1.726Zm1.452-3.262L41.67 27.322l1.179 1.178L32.83 38.518l-1.179-1.178Zm2.358 2.357 10.018-10.018 1.178 1.18-10.018 10.016-1.178-1.178Zm8.839-13.554.589-.589 3.536 3.536-.59.59-3.535-3.537ZM29.295 44.411a.852.852 0 0 1-1.178 0 .835.835 0 0 1 0-1.18l1.178-1.178 1.18 1.18-1.18 1.178ZM48.74 27.323l-.589.589-3.536-3.536.59-.59a2.499 2.499 0 1 1 3.535 3.537Zm-13.638-3.481a.84.84 0 0 0 0-1.184l-8.25-8.25a.862.862 0 0 0-1.175 0l-2.183 2.184-1.275.25-2.434-2.434a.86.86 0 0 0-.591-.241h-3.192l-2.108-2.117a.84.84 0 0 0-1.184 0l-8.25 8.25a.84.84 0 0 0 0 1.183l6 6a2.477 2.477 0 0 0 2.125 3.559c.023.615.279 1.2.717 1.633a2.47 2.47 0 0 0 1.633.725 2.486 2.486 0 0 0 2.359 2.358 2.5 2.5 0 0 0 4.258 1.634l.883.883a2.494 2.494 0 0 0 3.534 0c.44-.436.696-1.023.716-1.642a2.453 2.453 0 0 0 2.359-2.35 2.469 2.469 0 0 0 2.358-2.358 2.494 2.494 0 0 0 1.642-4.258l-.884-.884 2.942-2.941Zm-28.875-2.95 7.075-7.067L14.478 15 7.41 22.075l-1.183-1.183Zm2.358 2.358 7.417-7.417h2.85l6.525 6.534a.813.813 0 0 1 0 1.175.845.845 0 0 1-1.175 0l-3.533-3.534a.864.864 0 0 0-1.184 0 2.555 2.555 0 0 1-3.533 0l-1.175 1.175a4.23 4.23 0 0 0 1.025.742L11.536 26.2l-2.95-2.95Zm12.667 10.308a2.507 2.507 0 0 0-.633 2.409l-.25.241a.811.811 0 0 1-.592.242.794.794 0 0 1-.583-.242.828.828 0 0 1-.009-1.166.008.008 0 0 0 .009-.009l2.358-2.35v-.008L20.37 31.5l-2.359 2.358c-.008 0-.008 0-.008.009a.86.86 0 0 1-1.167-.009.845.845 0 0 1 0-1.183l2.359-2.358-1.175-1.175L15.66 31.5a.838.838 0 0 1-1.183-1.183l2.358-2.35-1.175-1.184-2.358 2.359a.856.856 0 0 1-1.183 0 .834.834 0 0 1 0-1.175l5.558-5.567c.017 0 .025.008.042.008a4.124 4.124 0 0 0 2.3-.691l3.008 3.008a2.563 2.563 0 0 0 3.533 0 2.5 2.5 0 0 0 .05-3.483l4.375 4.366-.25.242a2.506 2.506 0 0 0-2.408.642 2.421 2.421 0 0 0-.717 1.633 2.467 2.467 0 0 0-2.358 2.383 2.422 2.422 0 0 0-2.358 2.334c-.616.031-1.2.286-1.642.716Zm3.542 3.542a.864.864 0 0 1-1.184 0l-1.175-1.183a.832.832 0 1 1 1.175-1.175l1.184 1.175a.84.84 0 0 1 0 1.183Zm2.358-2.358a.84.84 0 0 1-1.183 0l-1.175-1.184a.833.833 0 0 1 0-1.175.833.833 0 0 1 1.175 0l1.183 1.175a.845.845 0 0 1 0 1.184Zm2.35-2.359a.845.845 0 0 1-1.175 0L27.153 31.2a.8.8 0 0 1-.25-.583.84.84 0 0 1 .833-.834c.221.001.433.088.592.242l1.175 1.183a.834.834 0 0 1 0 1.175Zm2.358-2.358a.834.834 0 0 1-1.175 0l-1.183-1.175a.84.84 0 0 1 0-1.183c.16-.153.37-.24.592-.242.22 0 .433.087.591.242l1.175 1.183a.815.815 0 0 1 0 1.175Zm-6.775-12.667 1.184-1.183 7.066 7.075-1.175 1.175-7.075-7.067Zm-8.391 25.975h8.333V45h-8.333v-1.667ZM5.86 35h6.667v1.667H5.86V35Zm0 3.333h8.334V40H5.86v-1.667Zm0-6.666h5v1.666h-5v-1.666Z" fill="#000"/></svg><svg fill="none" viewBox="0 0 39 50" id="stages4" xmlns="http://www.w3.org/2000/svg"><path d="M9.691 37.991a.896.896 0 0 0 .893-.893v-3.294a.896.896 0 0 0-.893-.893.896.896 0 0 0-.893.892v3.295c0 .491.402.893.893.893Zm0 1.018c-.562 0-1.009.455-1.009 1.009 0 .553.455 1.018 1.01 1.018.553 0 1.008-.456 1.008-1.018 0-.563-.455-1.01-1.009-1.01Z" fill="#000"/><path d="M5.522 15.545a2.554 2.554 0 0 0-2.554 2.553v6.777c-1.607.41-2.83 1.804-2.83 3.545v10.25a3.727 3.727 0 0 0 3.723 3.723h.241v4.74A2.87 2.87 0 0 0 6.968 50h5.464c1.268 0 2.304-.84 2.688-1.973h19.848a3.727 3.727 0 0 0 3.723-3.723v-10.25a3.727 3.727 0 0 0-3.723-3.724h-.125V15.777a6.778 6.778 0 0 0 3.054-5.652 6.71 6.71 0 0 0-1.83-4.616c-.644-.688-1.447-.902-2.144-.59-.75.34-1.151 1.206-1.035 2.25l.178 1.76a1.5 1.5 0 0 1-.41 1.178c-.768.848-2.33.848-3.09 0-.214-.24-.464-.643-.41-1.178l.178-1.76c.116-1.142-.759-1.973-1.294-2.276a.868.868 0 0 0-.697-.08c-.125.035-.786.24-1.196.696a6.756 6.756 0 0 0-1.83 4.625 6.776 6.776 0 0 0 3.053 5.643v8.321c-.545-.294-1.143-.5-1.83-.5-1.733 0-2.786 1.188-3.51 2.366h-2.294l-2.33-4.482c-.733-1.402-1.83-3.518-4.143-3.518-.688 0-1.295.206-1.83.5v-.357a2.559 2.559 0 0 0-2.554-2.553h-.786V5.24h.063a.895.895 0 0 0 .892-.893.895.895 0 0 0-.892-.893h-.063V.893A.895.895 0 0 0 7.2 0a.895.895 0 0 0-.893.893v2.562h-.062a.895.895 0 0 0-.893.893c0 .491.402.893.893.893h.062v10.304h-.785Zm6.901 32.67H6.96c-.598 0-1.08-.483-1.08-1.081V32.482c0-.607.473-1.08 1.08-1.08h5.464c.608 0 1.08.473 1.08 1.08v14.652c0 .598-.481 1.08-1.08 1.08Zm13.679-38.09c0-1.268.482-2.473 1.348-3.402l-.08 2.027c-.098.929.214 1.84.857 2.554a3.911 3.911 0 0 0 2.875 1.267c1.09 0 2.152-.473 2.866-1.267.652-.724.955-1.625.857-2.563-.196-1.91-.214-1.91-.17-2.107.742.634 1.438 2.036 1.438 3.482 0 1.822-1 3.491-2.59 4.366a.898.898 0 0 0-.464.786V30.33h-1.053V17.152a.896.896 0 0 0-.893-.893.895.895 0 0 0-.893.893V30.33h-1.053V15.268a.909.909 0 0 0-.465-.786 4.99 4.99 0 0 1-2.589-4.357h.009Zm-.563 15.25c.59 0 1.072.179 1.393.527.34.366.491.902.447 1.616v3.705c0 .491.402.893.893.893h6.687c1.072 0 1.938.866 1.938 1.938v10.25a1.936 1.936 0 0 1-1.938 1.937H15.29V33.375h4.322a.91.91 0 0 0 .794-.482l2.58-4.964c.858-1.652 1.519-2.554 2.555-2.554Zm-13.66-5.107c.321-.34.803-.527 1.393-.527 1.026 0 1.696.902 2.553 2.554l2.58 4.964a.89.89 0 0 0 .795.482h1.875l-2 3.848h-3.964c-.384-1.134-1.42-1.973-2.688-1.973H6.96a2.87 2.87 0 0 0-2.866 2.866v8.125h-.241a1.936 1.936 0 0 1-1.938-1.937V28.42c0-1.09.849-1.938 1.938-1.938h6.688a.895.895 0 0 0 .892-.893v-3.803c-.035-.634.107-1.17.447-1.527v.009Zm-2.232-2.17v6.598H4.745v-6.598c0-.42.348-.768.768-.768H8.87c.428 0 .768.349.768.768h.009Z" fill="#000"/></svg><svg fill="none" viewBox="0 0 51 50" id="stages5" xmlns="http://www.w3.org/2000/svg"><path d="M49.858 6.667a.833.833 0 0 0 .833-.834v-5A.835.835 0 0 0 49.858 0H28.191a.833.833 0 0 0-.589.244L.936 26.911a.833.833 0 0 0 0 1.178l3.089 3.09v17.988a.833.833 0 0 0 .833.833h45a.833.833 0 0 0 .833-.833V22.5a.835.835 0 0 0-.833-.833h-2.5v-15h2.5Zm-21.322-5h20.489V5H29.858a.832.832 0 0 0-.59.244L4.859 29.655 2.703 27.5 28.536 1.667Zm.489 20V7.845l1.178-1.178h12.155v15H29.025ZM5.69 31.178l1.667-1.666v12.155H5.691V31.178Zm3.334-3.333 15-15v15.488H18.19a.835.835 0 0 0-.833.834V35h-5.833a.834.834 0 0 0-.834.833v5.834H9.025V27.845ZM25.69 11.178l1.667-1.666v12.155h-1.667V11.178ZM34.858 35h9.167v13.333h-9.167V35Zm-1.667 13.333h-9.166V35h9.166v13.333Zm15.834 0H45.69V34.167a.835.835 0 0 0-.833-.834H23.191a.835.835 0 0 0-.833.834v14.166H5.691v-5h5.834a.831.831 0 0 0 .833-.833v-5.833h5.833a.836.836 0 0 0 .834-.834V30h5.833a.833.833 0 0 0 .833-.833v-5.834h23.334v25ZM45.69 21.667h-1.666v-15h1.666v15Z" fill="#000"/><path d="M38.192 39.167h-1.667v5h1.667v-5ZM31.525 39.167h-1.667v5h1.667v-5Z" fill="#000"/></svg><svg fill="none" viewBox="0 0 43 50" id="stages6" xmlns="http://www.w3.org/2000/svg"><path d="M21.486 6.247a14.577 14.577 0 1 0 0 29.153 14.577 14.577 0 0 0 0-29.153Zm0 27.072a12.495 12.495 0 1 1 0-24.99 12.495 12.495 0 0 1 0 24.99Z" fill="#000"/><path d="M41.03 17.982a1.718 1.718 0 0 1-.396-2.02 3.79 3.79 0 0 0-2.166-5.206 1.687 1.687 0 0 1-1.145-1.708 3.82 3.82 0 0 0-4.165-4.019 1.686 1.686 0 0 1-1.604-1.145 3.79 3.79 0 0 0-5.206-2.166C24.391 2.613 24.318 0 21.486 0a3.842 3.842 0 0 0-2.843 1.28 1.76 1.76 0 0 1-2.02.396 3.78 3.78 0 0 0-5.206 2.166A1.707 1.707 0 0 1 9.7 4.987a3.821 3.821 0 0 0-4.02 4.165 1.687 1.687 0 0 1-1.145 1.604 3.801 3.801 0 0 0-2.166 5.206 1.718 1.718 0 0 1-.406 2.082 3.802 3.802 0 0 0 0 5.675 1.718 1.718 0 0 1 .396 2.02 3.78 3.78 0 0 0 2.166 5.206 1.708 1.708 0 0 1 1.145 1.718 3.769 3.769 0 0 0 2.749 3.852c-4.904 8.507-4.915 8.132-4.436 8.85.48.719.802.48 5.383-.073 1.791 4.228 1.76 4.686 2.614 4.686.854 0 .676 0 6.351-9.86.117.075.225.162.323.26a3.8 3.8 0 0 0 5.674 0c.096-.094.2-.178.313-.25 5.82 10.09 5.477 9.923 6.351 9.86.875-.062.823-.448 2.634-4.706 4.55.552 4.915.791 5.383.073.469-.719.23-.76-4.435-8.84a3.81 3.81 0 0 0 2.749-3.967 1.688 1.688 0 0 1 1.145-1.604 3.799 3.799 0 0 0 2.166-5.206 1.738 1.738 0 0 1 .395-2.02 3.79 3.79 0 0 0 0-5.736ZM12.177 46.615c-1.833-4.28-.854-3.676-5.404-3.124 4.227-7.288 3.769-6.632 3.894-6.56.33.202.58.51.708.875a3.8 3.8 0 0 0 4.477 2.447l-3.675 6.362Zm18.616 0-3.675-6.362a3.79 3.79 0 0 0 4.467-2.447c.153-.391.436-.718.801-.927l3.811 6.612c-4.592-.562-3.602-1.104-5.404 3.124Zm8.86-24.51a3.811 3.811 0 0 0-.895 4.498 1.698 1.698 0 0 1-.978 2.353 3.83 3.83 0 0 0-2.54 3.904 1.728 1.728 0 0 1-1.875 1.718 3.811 3.811 0 0 0-3.748 2.54 1.716 1.716 0 0 1-2.353.98 3.842 3.842 0 0 0-4.488.885 1.779 1.779 0 0 1-2.572 0 3.811 3.811 0 0 0-4.498-.896 1.718 1.718 0 0 1-2.363-.979 3.8 3.8 0 0 0-3.894-2.54 1.73 1.73 0 0 1-1.718-1.874 3.8 3.8 0 0 0-2.54-3.749 1.685 1.685 0 0 1-.98-2.353 3.821 3.821 0 0 0-.885-4.487 1.718 1.718 0 0 1 0-2.572 3.832 3.832 0 0 0 .896-4.498 1.687 1.687 0 0 1 .979-2.353 3.832 3.832 0 0 0 2.54-3.905A1.718 1.718 0 0 1 9.616 7.06a3.8 3.8 0 0 0 3.749-2.54 1.717 1.717 0 0 1 2.353-.979 3.821 3.821 0 0 0 4.487-.885 1.78 1.78 0 0 1 2.572 0 3.832 3.832 0 0 0 4.498.896 1.708 1.708 0 0 1 2.353.978 3.832 3.832 0 0 0 3.905 2.54 1.728 1.728 0 0 1 1.718 1.875 3.8 3.8 0 0 0 2.54 3.748 1.685 1.685 0 0 1 .979 2.353 3.82 3.82 0 0 0 .885 4.488 1.717 1.717 0 0 1 0 2.572Z" fill="#000"/><path d="M24.755 16.763c-2.478-5.008-2.405-5.31-3.27-5.31-.863 0-.79.292-3.268 5.31-5.519.802-5.78.635-6.05 1.458-.27.823 0 .854 4.04 4.748-.948 5.497-1.177 5.706-.479 6.247.698.541.812.23 5.758-2.374 5.029 2.645 4.79 2.572 5.143 2.572a1.042 1.042 0 0 0 1.042-1.218l-.896-5.206 3.78-3.676a1.04 1.04 0 0 0-.583-1.78l-5.217-.77Zm.167 5.102c-.52.51-.323.74.333 4.571-3.634-1.905-3.425-1.843-3.77-1.843-.343 0-.134-.062-3.768 1.843.666-3.852.854-4.071.333-4.57l-2.655-2.593 3.665-.532c.729-.104.708-.405 2.426-3.894 1.739 3.52 1.707 3.79 2.426 3.894l3.665.532-2.655 2.592Z" fill="#000"/></svg><svg viewBox="0 0 512 512" id="title" xmlns="http://www.w3.org/2000/svg"><path d="M8.805 51.23C-7.09 84.66-1.547 125.73 26.12 153.398 53.79 181.066 94.86 186.61 128.29 170.715L341.285 383.71c-15.898 33.43-10.355 74.5 17.313 102.168 27.672 27.668 68.742 33.21 102.172 17.316l-59.743-59.746 42.426-42.426 59.742 59.743c15.895-33.426 10.356-74.5-17.316-102.168-27.668-27.668-68.738-33.211-102.168-17.317L170.715 128.29c15.894-33.426 10.355-74.5-17.313-102.168C125.73-1.55 84.66-7.089 51.23 8.805l59.743 59.742-42.426 42.426zm0 0"/><path d="M17.574 494.426c23.43 23.433 61.422 23.433 84.852 0L234.89 361.96l21.214 21.215 21.211-21.215L150.04 234.684l-21.215 21.21 21.215 21.215L17.574 409.574c-23.433 23.43-23.433 61.422 0 84.852zm143.07-164.285 21.211 21.214-111.25 111.25-21.21-21.214zM383.57 35.352l25.328 25.328-131.687 131.683 42.426 42.43 131.687-131.691 25.324 25.328L512 36.504 475.5 0zm0 0"/></svg></svg>