<svg width="426" height="360" viewBox="0 0 426 360" fill="none" xmlns="http://www.w3.org/2000/svg">
<path d="M45.9414 309.059C45.9414 313.671 49.6819 317.412 54.2943 317.412C58.9068 317.412 62.6473 313.671 62.6473 309.059V175.412H45.9414V309.059Z" fill="#E0F1F8"/>
<path d="M346.647 8.35278V100.235C346.647 104.848 350.388 108.588 355 108.588C359.613 108.588 363.353 104.848 363.353 100.235V8.35278H346.647Z" fill="#E0F1F8"/>
<path d="M279.824 142C279.824 146.613 283.564 150.353 288.177 150.353C292.789 150.353 296.53 146.613 296.53 142V33.6624H279.824V142Z" fill="#E0F1F8"/>
<path d="M221.353 183.765C221.353 188.377 225.093 192.118 229.706 192.118C234.318 192.118 238.059 188.377 238.059 183.765V69.1038H221.353V183.765Z" fill="#E0F1F8"/>
<path d="M162.882 225.529C162.882 230.142 166.622 233.882 171.235 233.882C175.849 233.882 179.588 230.142 179.588 225.529V104.537H162.882V225.529Z" fill="#E0F1F8"/>
<path d="M104.412 267.294C104.412 271.907 108.151 275.647 112.765 275.647C117.378 275.647 121.118 271.907 121.118 267.294V139.979H104.412V267.294Z" fill="#E0F1F8"/>
<path d="M380.059 -0.00012207C346.567 0.011572 329.935 -0.0193335 329.271 0.0341253C328.199 0.120161 327.162 0.409173 326.204 0.891138C325.616 1.18516 138.535 114.596 51.9611 167.059H29.2353C24.6228 167.059 20.8823 170.798 20.8823 175.412C20.8823 180.025 24.6228 183.765 29.2353 183.765C55.0016 183.766 53.5348 183.771 54.4277 183.758C55.0517 183.748 55.8035 183.667 56.6129 183.431C58.3937 182.917 38.8161 194.519 332.274 16.7058H380.059C384.671 16.7058 388.412 12.9661 388.412 8.35282C388.412 3.73949 384.671 -0.00012207 380.059 -0.00012207Z" fill="#D3EFFD"/>
<path d="M405.118 350.823H20.8823V309.059C20.8823 304.445 24.6219 300.706 29.2353 300.706H79.3529V267.294C79.3529 262.681 83.0925 258.941 87.7059 258.941H137.824V225.529C137.824 220.916 141.563 217.176 146.176 217.176H196.294V183.765C196.294 179.151 200.034 175.412 204.647 175.412H254.765V142C254.765 137.387 258.504 133.647 263.118 133.647H313.235V100.235C313.235 95.6218 316.975 91.8822 321.588 91.8822H396.765C401.378 91.8822 405.118 95.6218 405.118 100.235V350.823Z" fill="#CF9875"/>
<path d="M417.647 359.176H8.35294C3.73961 359.176 0 355.436 0 350.823C0 346.211 3.73961 342.47 8.35294 342.47H417.647C422.26 342.47 426 346.211 426 350.823C426 355.436 422.26 359.176 417.647 359.176Z" fill="#C7865B"/>
</svg>
